<svg width="105" height="55" viewBox="0 0 105 55" fill="none" xmlns="http://www.w3.org/2000/svg">
<path d="M34.7732 36.5305H30.2109V54.6146H34.7732V36.5305Z" fill="#00A3DF"/>
<path d="M71.5651 41.7173C70.3897 41.0763 69.0716 40.7423 67.7329 40.746C64.7754 40.746 62.7301 42.8084 62.7301 45.5713C62.7301 48.2564 64.6913 50.3966 67.7329 50.3966C69.0695 50.3989 70.386 50.0706 71.5651 49.4409V54.2942C70.218 54.7102 68.8174 54.9273 67.4075 54.9386C62.2709 54.9386 57.7725 51.399 57.7725 45.5713C57.7725 40.1685 61.8491 36.2148 67.4075 36.2148C68.818 36.2186 70.2197 36.4358 71.5651 36.8593V41.7173Z" fill="#00A3DF"/>
<path d="M23.9394 41.7173C22.7642 41.0773 21.4469 40.7433 20.1087 40.746C17.1513 40.746 15.1044 42.8084 15.1044 45.5713C15.1044 48.2564 17.0625 50.3966 20.1087 50.3966C21.4447 50.3976 22.7604 50.0694 23.9394 49.4409V54.2942C22.5888 54.7114 21.1844 54.9285 19.7709 54.9386C14.6483 54.9386 10.1483 51.399 10.1483 45.5713C10.1483 40.1685 14.2218 36.2148 19.7709 36.2148C21.185 36.2183 22.5903 36.4356 23.9394 36.8593V41.7173Z" fill="#00A3DF"/>
<path d="M95.4751 45.571C95.4751 50.7434 91.4825 54.9383 85.9241 54.9383C80.3656 54.9383 76.373 50.7356 76.373 45.571C76.373 40.4063 80.3609 36.2161 85.9241 36.2161C91.4872 36.2161 95.4751 40.4048 95.4751 45.571ZM85.9241 40.8157C83.2141 40.8157 81.2015 42.9482 81.2015 45.571C81.2015 48.1938 83.2141 50.334 85.9241 50.334C88.634 50.334 90.6467 48.2046 90.6467 45.571C90.6467 42.9373 88.6231 40.8157 85.9241 40.8157Z" fill="#00A3DF"/>
<path d="M52.0802 40.6429C52.0149 40.6211 50.0863 40.0888 48.5142 40.0888C46.6821 40.0888 45.6921 40.7036 45.6921 41.5753C45.6921 42.6649 47.0339 43.0572 47.781 43.2953L49.0403 43.6969C51.9977 44.6308 53.3504 46.6652 53.3504 48.8662C53.3504 53.4129 49.3532 54.9368 45.8618 54.9368C44.2072 54.9214 42.5573 54.7568 40.9322 54.4449V50.2811C41.3338 50.3807 43.2468 50.952 45.2407 50.952C47.5149 50.952 48.5562 50.2905 48.5562 49.26C48.5562 48.3463 47.6518 47.8202 46.5327 47.4669C46.2509 47.3735 45.8353 47.2427 45.552 47.1478C43.018 46.3477 40.8917 44.8534 40.8917 41.8555C40.8917 38.4747 43.4242 36.199 47.6347 36.199C49.1338 36.2198 50.6256 36.4136 52.0802 36.7765V40.6429Z" fill="#00A3DF"/>
<path d="M5.306 17.0973C5.306 16.4962 5.06723 15.9198 4.64221 15.4947C4.21718 15.0697 3.64073 14.8309 3.03966 14.8309C2.43859 14.8309 1.86213 15.0697 1.43711 15.4947C1.01209 15.9198 0.773315 16.4962 0.773315 17.0973L0.773315 21.8432C0.773315 22.4443 1.01209 23.0207 1.43711 23.4458C1.86213 23.8708 2.43859 24.1096 3.03966 24.1096C3.64073 24.1096 4.21718 23.8708 4.64221 23.4458C5.06723 23.0207 5.306 22.4443 5.306 21.8432V17.0973Z" fill="#00A3DF"/>
<path d="M17.7528 10.8659C17.7373 10.2753 17.4918 9.71411 17.0687 9.30187C16.6455 8.88963 16.078 8.65894 15.4872 8.65894C14.8965 8.65894 14.329 8.88963 13.9058 9.30187C13.4826 9.71411 13.2372 10.2753 13.2217 10.8659V21.8427C13.2372 22.4333 13.4826 22.9945 13.9058 23.4067C14.329 23.819 14.8965 24.0497 15.4872 24.0497C16.078 24.0497 16.6455 23.819 17.0687 23.4067C17.4918 22.9945 17.7373 22.4333 17.7528 21.8427V10.8659Z" fill="#00A3DF"/>
<path d="M30.1936 2.34242C30.1936 1.74177 29.955 1.16571 29.5303 0.740978C29.1056 0.316248 28.5295 0.0776367 27.9289 0.0776367C27.3282 0.0776367 26.7521 0.316248 26.3274 0.740978C25.9027 1.16571 25.6641 1.74177 25.6641 2.34242V26.3554C25.6641 26.9561 25.9027 27.5321 26.3274 27.9568C26.7521 28.3816 27.3282 28.6202 27.9289 28.6202C28.5295 28.6202 29.1056 28.3816 29.5303 27.9568C29.955 27.5321 30.1936 26.9561 30.1936 26.3554V2.34242Z" fill="#00A3DF"/>
<path d="M42.6462 10.8661C42.6307 10.2759 42.3854 9.71508 41.9625 9.30313C41.5396 8.89118 40.9726 8.66064 40.3822 8.66064C39.7918 8.66064 39.2248 8.89118 38.8019 9.30313C38.379 9.71508 38.1336 10.2759 38.1182 10.8661V21.8429C38.1336 22.4331 38.379 22.9939 38.8019 23.4058C39.2248 23.8178 39.7918 24.0483 40.3822 24.0483C40.9726 24.0483 41.5396 23.8178 41.9625 23.4058C42.3854 22.9939 42.6307 22.4331 42.6462 21.8429V10.8661Z" fill="#00A3DF"/>
<path d="M55.0703 17.0971C55.0486 16.513 54.8013 15.9601 54.3804 15.5545C53.9595 15.149 53.3977 14.9224 52.8132 14.9224C52.2288 14.9224 51.667 15.149 51.2461 15.5545C50.8252 15.9601 50.5779 16.513 50.5562 17.0971V21.843C50.545 22.1465 50.595 22.4491 50.7034 22.7327C50.8117 23.0164 50.9761 23.2753 51.1868 23.494C51.3975 23.7126 51.6502 23.8866 51.9296 24.0054C52.2091 24.1242 52.5096 24.1854 52.8132 24.1854C53.1169 24.1854 53.4174 24.1242 53.6969 24.0054C53.9763 23.8866 54.229 23.7126 54.4397 23.494C54.6504 23.2753 54.8148 23.0164 54.9231 22.7327C55.0315 22.4491 55.0815 22.1465 55.0703 21.843V17.0971Z" fill="#00A3DF"/>
<path d="M67.5251 10.8656C67.5412 10.5593 67.4947 10.2528 67.3886 9.965C67.2824 9.67716 67.1188 9.41395 66.9076 9.1914C66.6964 8.96885 66.4422 8.79162 66.1603 8.67051C65.8784 8.5494 65.5748 8.48694 65.2681 8.48694C64.9613 8.48694 64.6577 8.5494 64.3758 8.67051C64.0939 8.79162 63.8397 8.96885 63.6285 9.1914C63.4174 9.41395 63.2537 9.67716 63.1476 9.965C63.0414 10.2528 62.995 10.5593 63.011 10.8656V21.8425C62.995 22.1488 63.0414 22.4553 63.1476 22.7431C63.2537 23.0309 63.4174 23.2942 63.6285 23.5167C63.8397 23.7393 64.0939 23.9165 64.3758 24.0376C64.6577 24.1587 64.9613 24.2212 65.2681 24.2212C65.5748 24.2212 65.8784 24.1587 66.1603 24.0376C66.4422 23.9165 66.6964 23.7393 66.9076 23.5167C67.1188 23.2942 67.2824 23.0309 67.3886 22.7431C67.4947 22.4553 67.5412 22.1488 67.5251 21.8425V10.8656Z" fill="#00A3DF"/>
<path d="M79.9726 2.3424C79.9839 2.03895 79.9338 1.73635 79.8255 1.45268C79.7171 1.16901 79.5527 0.910105 79.342 0.691438C79.1313 0.472773 78.8787 0.298838 78.5992 0.180035C78.3198 0.0612321 78.0192 0 77.7156 0C77.4119 0 77.1114 0.0612321 76.832 0.180035C76.5525 0.298838 76.2999 0.472773 76.0892 0.691438C75.8785 0.910105 75.714 1.16901 75.6057 1.45268C75.4973 1.73635 75.4473 2.03895 75.4586 2.3424V26.3554C75.4473 26.6588 75.4973 26.9614 75.6057 27.2451C75.714 27.5288 75.8785 27.7877 76.0892 28.0063C76.2999 28.225 76.5525 28.3989 76.832 28.5177C77.1114 28.6365 77.4119 28.6978 77.7156 28.6978C78.0192 28.6978 78.3198 28.6365 78.5992 28.5177C78.8787 28.3989 79.1313 28.225 79.342 28.0063C79.5527 27.7877 79.7171 27.5288 79.8255 27.2451C79.9338 26.9614 79.9839 26.6588 79.9726 26.3554V2.3424Z" fill="#00A3DF"/>
<path d="M92.4216 10.8662C92.4061 10.274 92.16 9.7112 91.7356 9.29781C91.3113 8.88442 90.7423 8.65308 90.1498 8.65308C89.5574 8.65308 88.9884 8.88442 88.5641 9.29781C88.1397 9.7112 87.8936 10.274 87.8781 10.8662V21.843C87.8936 22.4352 88.1397 22.998 88.5641 23.4114C88.9884 23.8248 89.5574 24.0561 90.1498 24.0561C90.7423 24.0561 91.3113 23.8248 91.7356 23.4114C92.16 22.998 92.4061 22.4352 92.4216 21.843V10.8662Z" fill="#00A3DF"/>
<path d="M104.847 17.097C104.826 16.5129 104.578 15.9599 104.158 15.5544C103.737 15.1488 103.175 14.9222 102.59 14.9222C102.006 14.9222 101.444 15.1488 101.023 15.5544C100.602 15.9599 100.355 16.5129 100.333 17.097V21.8429C100.322 22.1463 100.372 22.449 100.481 22.7326C100.589 23.0163 100.753 23.2752 100.964 23.4939C101.175 23.7125 101.427 23.8865 101.707 24.0053C101.986 24.1241 102.287 24.1853 102.59 24.1853C102.894 24.1853 103.195 24.1241 103.474 24.0053C103.754 23.8865 104.006 23.7125 104.217 23.4939C104.428 23.2752 104.592 23.0163 104.7 22.7326C104.809 22.449 104.859 22.1463 104.847 21.8429V17.097Z" fill="#00A3DF"/>
<path d="M102.234 52.2332V52.5149H101.434V54.6147H101.096V52.5149H100.285V52.2332H102.234Z" fill="#00A3DF"/>
<path d="M102.404 52.2332H102.923L103.634 54.182H103.651L104.341 52.2332H104.848V54.6147H104.506V52.6659H104.496L103.771 54.6147H103.453L102.748 52.6659H102.741V54.6147H102.404V52.2332Z" fill="#00A3DF"/>
</svg>
