<svg width="166" height="21" viewBox="0 0 166 21" fill="none" xmlns="http://www.w3.org/2000/svg">
<path fill-rule="evenodd" clip-rule="evenodd" d="M0 1.18262C0.138002 1.18262 0.270592 1.19885 0.416711 1.19885H20.5109V5.34432H4.573V8.48319H18.292V12.4907H4.56759V19.775C4.48802 19.7905 4.40761 19.8014 4.32676 19.8075H0.156943C0.104155 19.8042 0.0516891 19.797 0 19.7858L0 1.18262Z" fill="black"/>
<path fill-rule="evenodd" clip-rule="evenodd" d="M39.5066 0.991008C39.5066 2.57126 39.512 4.15152 39.5228 5.73178C39.5228 5.89413 39.4525 5.9699 39.2928 5.96178C39.2495 5.96178 39.2062 5.96178 39.1629 5.96178C36.9522 5.96178 34.7415 5.96178 32.5307 5.96178C32.225 5.96178 32.133 5.8779 32.1357 5.56672C32.1357 4.04058 32.1357 2.51173 32.1357 0.985596L39.5066 0.991008Z" fill="#EE3026"/>
<path fill-rule="evenodd" clip-rule="evenodd" d="M46.2506 0.990845C46.7373 1.26925 47.1974 1.5917 47.6252 1.95415C48.6237 2.95534 49.0701 4.2163 49.1811 5.60985C49.2 5.86691 49.1188 5.97515 48.8456 5.97244C46.5491 5.97244 44.2536 5.97244 41.959 5.97244C41.6884 5.97244 41.591 5.88585 41.5937 5.59903C41.6099 4.19195 41.5937 2.78216 41.5937 1.37238C41.5937 1.2452 41.5937 1.11802 41.5693 0.990845L46.2506 0.990845Z" fill="#EE3026"/>
<path fill-rule="evenodd" clip-rule="evenodd" d="M30.0836 0.990967C30.0836 2.50899 30.0646 4.02701 30.0836 5.54232C30.0836 5.86162 30.0051 5.96986 29.6777 5.96715C27.402 5.96715 25.1236 5.96715 22.8479 5.96715C22.7018 5.96715 22.553 5.99421 22.5313 5.7588C22.3879 4.19748 23.6922 1.8758 25.102 1.19932L25.5295 0.990967H30.0836Z" fill="#EE3026"/>
<path fill-rule="evenodd" clip-rule="evenodd" d="M163.186 20.8768C162.628 20.7814 162.115 20.508 161.725 20.0975C161.425 19.7475 161.236 19.3158 161.183 18.8577C161.13 18.3997 161.215 17.9363 161.428 17.5269C161.649 17.1185 161.991 16.7882 162.407 16.5811C162.823 16.3741 163.292 16.3003 163.752 16.3698C164.211 16.4393 164.638 16.6488 164.974 16.9696C165.31 17.2905 165.539 17.7071 165.63 18.1628C165.63 18.2332 165.67 18.3035 165.689 18.3739V18.8231C165.668 18.9042 165.646 18.9854 165.627 19.0666C165.555 19.4216 165.396 19.7533 165.165 20.0327C164.935 20.312 164.639 20.5303 164.304 20.6685C164.065 20.7543 163.821 20.8239 163.573 20.8768H163.186ZM163.438 16.6313C162.92 16.6211 162.42 16.8163 162.045 17.1743C161.671 17.5323 161.454 18.0239 161.441 18.5416C161.433 18.8063 161.479 19.0699 161.574 19.3168C161.67 19.5638 161.814 19.7893 161.997 19.98C162.181 20.1707 162.401 20.3229 162.644 20.4277C162.887 20.5324 163.149 20.5876 163.414 20.59C163.938 20.5845 164.439 20.3752 164.811 20.0065C165.183 19.6377 165.397 19.1386 165.408 18.6147C165.407 18.0912 165.2 17.5892 164.831 17.2177C164.462 16.8463 163.961 16.6355 163.438 16.6313Z" fill="black"/>
<path fill-rule="evenodd" clip-rule="evenodd" d="M71.8081 11.6115C72.1905 11.7927 72.5119 12.0814 72.733 12.4423C72.954 12.8032 73.0652 13.2207 73.0528 13.6437C73.1015 15.6407 73.0799 17.6403 73.0853 19.6373C73.0815 19.6872 73.0751 19.7369 73.0663 19.7861H68.6773V13.6653C68.6773 12.9077 68.3797 12.583 67.6328 12.537C67.3027 12.5153 66.9726 12.5018 66.6425 12.5018H57.0581V19.7861H52.5176V1.19917H52.8964C57.5867 1.19917 62.2769 1.19917 66.9672 1.19917C67.964 1.18306 68.9583 1.30416 69.922 1.55906C71.7296 2.06777 72.8986 3.21238 73.1286 5.0957C73.2684 6.35791 73.3028 7.62958 73.2314 8.89751C73.1908 9.84729 72.6902 10.6618 72.0246 11.3491C71.9569 11.4194 71.8893 11.4871 71.8243 11.5574C71.8189 11.5628 71.8189 11.5764 71.8081 11.6115ZM57.0716 8.48351H57.3747H66.7074C67.1133 8.48353 67.5188 8.46185 67.9224 8.41856C68.1426 8.39726 68.3471 8.29548 68.4969 8.13271C68.6467 7.96993 68.7312 7.75762 68.7341 7.53644C68.7504 7.11972 68.7341 6.70301 68.7341 6.2863C68.7333 6.07521 68.6578 5.87122 68.5212 5.71032C68.3846 5.54942 68.1955 5.44195 67.9873 5.40688C67.7456 5.36177 67.4999 5.34092 67.254 5.34464C63.9708 5.34464 60.6895 5.34464 57.4099 5.34464C57.2962 5.34464 57.1853 5.34464 57.0689 5.36088L57.0716 8.48351Z" fill="black"/>
<path fill-rule="evenodd" clip-rule="evenodd" d="M126.875 19.7889V1.22363H145.143V5.33934H131.418V8.49444H140.954V12.4938H131.418V15.6597H145.219V19.7889H126.875Z" fill="black"/>
<path fill-rule="evenodd" clip-rule="evenodd" d="M107.444 5.35028V19.7918H102.898V1.1994H103.25C108.029 1.1994 112.809 1.1994 117.592 1.1994C118.686 1.18915 119.767 1.43763 120.747 1.92459C122.324 2.73636 123.131 4.08932 123.472 5.75346C123.619 6.49667 123.694 7.25246 123.696 8.0102C123.718 11.8283 123.696 15.6436 123.696 19.4616C123.696 19.5645 123.696 19.6673 123.677 19.7891H119.137V19.302C119.137 15.3459 119.137 11.3899 119.137 7.43384C119.134 7.04029 119.088 6.64824 118.999 6.26488C118.871 5.70746 118.439 5.45311 117.916 5.35569C117.799 5.33629 117.68 5.32904 117.562 5.33405H107.772C107.677 5.33675 107.585 5.34487 107.444 5.35028Z" fill="black"/>
<path fill-rule="evenodd" clip-rule="evenodd" d="M79.9297 5.35563H75.6543V1.21558H92.6664V5.34751H84.4837V19.7863H79.9297V5.35563Z" fill="black"/>
<path fill-rule="evenodd" clip-rule="evenodd" d="M147.412 5.36098V1.22363H164.459V5.34475H156.255V19.7835H151.709V5.36098H147.412Z" fill="black"/>
<path fill-rule="evenodd" clip-rule="evenodd" d="M99.4692 19.7917H94.953V1.22363H99.4692V19.7917Z" fill="black"/>
<path fill-rule="evenodd" clip-rule="evenodd" d="M45.3627 12.9702C44.2208 12.9702 43.0789 12.9702 41.937 12.9702C41.6664 12.9702 41.5852 12.8998 41.588 12.6292C41.5988 11.1861 41.5988 9.7429 41.588 8.29975C41.588 8.06163 41.6583 7.98315 41.8991 7.98315C44.2262 7.98315 46.5533 7.98315 48.8804 7.98315C49.0888 7.98315 49.1699 8.05621 49.1699 8.25375C49.1699 9.72577 49.1699 11.2005 49.1699 12.6725C49.1699 12.9025 49.0671 12.9431 48.8533 12.9431C47.6925 12.9431 46.5263 12.9431 45.3627 12.9431V12.9702Z" fill="#EE3026"/>
<path fill-rule="evenodd" clip-rule="evenodd" d="M30.0553 8.02643V12.9512C29.9389 12.9512 29.8361 12.9701 29.7306 12.9701C27.4549 12.9701 25.1792 12.9701 22.9035 12.9701C22.5978 12.9701 22.5247 12.8754 22.5274 12.5886C22.54 11.1689 22.54 9.7474 22.5274 8.32408C22.5274 8.07514 22.5951 7.99125 22.8548 7.99396C25.163 7.99396 27.4711 7.99396 29.7793 7.99396C29.8659 8.00208 29.9498 8.02643 30.0553 8.02643Z" fill="#EE3026"/>
<path fill-rule="evenodd" clip-rule="evenodd" d="M32.165 19.9509V15.0613C32.2868 15.0613 32.3977 15.0397 32.5114 15.0397C34.7357 15.0397 36.9599 15.0397 39.1842 15.0397C39.4764 15.0397 39.5414 15.1371 39.5387 15.405C39.5387 16.8148 39.5387 18.2272 39.5387 19.6397C39.5387 19.8373 39.5387 19.978 39.2681 19.978C36.9599 19.978 34.6491 19.978 32.3409 19.978C32.2868 19.9699 32.2462 19.959 32.165 19.9509Z" fill="#EE3026"/>
<path fill-rule="evenodd" clip-rule="evenodd" d="M41.6074 19.9754V15.0615C41.7157 15.0615 41.8185 15.0344 41.9213 15.0344C44.2186 15.0344 46.5214 15.0344 48.8133 15.0344C49.1001 15.0344 49.1975 15.1237 49.1705 15.4024C48.9973 17.1775 48.3857 18.7145 46.8163 19.7319C46.5456 19.9053 46.2284 19.9921 45.9071 19.9808C44.5948 19.9673 43.2797 19.9808 41.9646 19.9808L41.6074 19.9754Z" fill="#EE3026"/>
<path fill-rule="evenodd" clip-rule="evenodd" d="M30.0542 15.0612V19.9318C29.9406 19.9318 29.8269 19.948 29.716 19.948C28.5064 19.948 27.2969 19.902 26.0927 19.9643C25.7204 19.9812 25.349 19.9141 25.0062 19.7679C24.6633 19.6218 24.3577 19.4003 24.112 19.12C23.2829 18.2475 22.7523 17.1341 22.5967 15.9406C22.5507 15.67 22.5399 15.375 22.5128 15.0639L30.0542 15.0612Z" fill="#EE3026"/>
<path fill-rule="evenodd" clip-rule="evenodd" d="M162.898 18.739V19.7645L162.592 19.7834V17.294C163.027 17.294 163.441 17.294 163.855 17.294C163.98 17.2793 164.106 17.3085 164.212 17.3767C164.318 17.4448 164.396 17.5476 164.435 17.6674C164.491 17.7956 164.508 17.9376 164.483 18.0753C164.459 18.2131 164.394 18.3405 164.297 18.4413C164.267 18.4684 164.242 18.5036 164.31 18.5252C164.391 18.9311 164.47 19.337 164.548 19.7456C164.278 19.8322 164.164 19.7726 164.14 19.475C164.08 18.785 164.221 18.6821 163.285 18.7038C163.168 18.7227 163.033 18.7336 162.898 18.739ZM162.919 18.4224C163.233 18.4224 163.509 18.4224 163.785 18.4224C163.836 18.4207 163.886 18.4087 163.933 18.387C163.979 18.3653 164.02 18.3343 164.054 18.2961C164.088 18.2579 164.114 18.2131 164.13 18.1646C164.146 18.116 164.152 18.0647 164.148 18.0138C164.148 17.8081 164.083 17.6349 163.877 17.616C163.566 17.5889 163.252 17.616 162.927 17.616L162.919 18.4224Z" fill="black"/>
</svg>
