<svg width="166" height="37" viewBox="0 0 166 37" fill="none" xmlns="http://www.w3.org/2000/svg">
<path d="M145.844 29.5692L142.886 23.6346L139.917 29.5692H145.844ZM79.3315 15.3746L73.3986 18.3403L79.3315 21.3076V15.3746ZM25.7236 22.0592L28.6909 27.9938L31.6599 22.0592H25.7236ZM161.445 9.42038C161.191 9.41583 160.939 9.4615 160.704 9.55477C160.468 9.64803 160.253 9.78704 160.071 9.96379C159.889 10.1405 159.745 10.3515 159.645 10.5845C159.545 10.8176 159.492 11.0681 159.49 11.3216C159.49 12.5514 160.48 13.2474 161.445 13.2474C162.521 13.2474 163.443 12.5236 163.443 11.3626C163.443 10.1737 162.478 9.42038 161.458 9.42038H161.445ZM153.27 15.4794V13.1672H158.202C157.321 12.3484 157.321 11.2365 157.321 10.9139C157.321 9.29592 158.482 7.10156 161.415 7.10156C164.209 7.10156 165.608 9.0421 165.608 11.0137C165.608 12.1044 165.077 12.9428 164.517 13.2638H165.336V15.486L153.27 15.4794ZM161.502 23.2612C162.213 23.2612 163.443 22.7323 163.443 21.3338C163.457 21.0104 163.385 20.689 163.232 20.4034C163.08 20.1179 162.853 19.8786 162.576 19.7109C162.278 19.5215 161.937 19.4089 161.584 19.3834C161.233 19.3578 160.882 19.425 160.565 19.5783C160.23 19.7311 159.949 19.9808 159.757 20.2951C159.565 20.6095 159.472 20.9741 159.49 21.342C159.49 22.6701 160.606 23.2547 161.486 23.2547L161.502 23.2612ZM165.342 17.0695V19.39H164.502C165.26 19.8092 165.609 20.7737 165.609 21.6826C165.609 24.139 163.68 25.585 161.456 25.585C158.913 25.585 157.32 23.7541 157.32 21.6826C157.32 20.4118 157.934 19.6995 158.41 19.39H157.592V17.0761L165.342 17.0695ZM153.27 29.5626V27.2487H165.342V29.5692H153.27" fill="#D52B1E"/>
<path d="M103.093 32.7066L104.826 36.473C113.045 30.1863 114.558 23.1644 109.208 15.6381C104.97 9.67562 109.634 4.37313 111.039 2.99429L107.883 0.472412C105.828 2.729 100.432 9.78207 105.148 16.8761C109.72 23.7457 109.247 27.4696 103.093 32.7066ZM39.2274 32.7066L40.96 36.473C49.179 30.1863 50.6921 23.1644 45.3405 15.6381C41.1041 9.67562 45.7663 4.37313 47.1697 2.99429L44.0239 0.472412C41.9654 2.729 36.5696 9.78207 41.2907 16.8761C45.8612 23.7457 45.388 27.4696 39.2274 32.7066ZM148.082 7.10135L142.886 16.1162L137.679 7.10953H133.434L142.886 23.4592L152.332 7.10135H148.082ZM63.1918 8.37538C61.7081 7.50419 59.8904 7.10135 57.4717 7.10135H52.1643V29.569H56.404V11.3394H57.4684C60.403 11.3394 62.4156 12.0632 62.4156 14.7014C62.4156 17.1577 59.9919 18.2418 57.1753 18.3302H56.5645L59.3811 22.3538C60.6832 22.1424 61.9342 21.6885 63.069 21.0159C63.1459 20.9668 63.2229 20.9144 63.2982 20.8619C64.3313 20.2006 65.1802 19.2886 65.7661 18.2109C66.3519 17.1331 66.6555 15.9247 66.6487 14.6981C66.6585 11.9355 65.4287 9.68709 63.1918 8.37538ZM96.7622 20.8652C97.7949 20.2035 98.6434 19.2914 99.2289 18.2138C99.8145 17.1361 100.118 15.9278 100.111 14.7014C100.111 11.9339 98.8796 9.68709 96.6427 8.37538C95.1688 7.50419 93.3429 7.10135 90.9242 7.10135H85.6185V29.569H89.8598V11.3394H90.9242C93.8588 11.3394 95.873 12.0632 95.873 14.7014C95.873 17.1577 93.4494 18.2418 90.6327 18.3302H90.0219L97.8823 29.5657H102.843L96.7622 20.8652ZM125.404 18.3335L133.264 7.10135H128.302L120.442 18.3335L128.302 29.569H133.264L125.404 18.3335ZM120.266 7.10135H116.03V29.569H120.268L120.266 7.10135ZM9.62318 18.3335L17.4836 7.10135H12.5348L4.6744 18.3335L12.5348 29.569H17.495L9.62318 18.3335ZM4.49263 7.10135H0.25293V29.569H4.49263V7.10135ZM82.3433 11.3394V7.10135H68.9921V29.569H82.3433V25.3309H73.2285V11.3394H82.3433ZM39.5696 29.569H35.3299L28.6912 15.3318L22.0541 29.569H17.8111L28.6912 6.23998L39.5696 29.569Z" fill="#006D55"/>
</svg>
