<svg width="175" height="24" viewBox="0 0 175 24" fill="none" xmlns="http://www.w3.org/2000/svg">
<path fill-rule="evenodd" clip-rule="evenodd" d="M125.548 0.865967H121.981V23.1026H138.733L141.005 19.4708H125.548V0.865967Z" fill="#E6301A"/>
<path fill-rule="evenodd" clip-rule="evenodd" d="M76.6427 1.9755L63.6064 23.1027H67.8805L71.8286 16.7209H80.2649L82.481 13.0891H74.0447L78.6353 5.76853L89.3902 23.1027H93.7201L80.5349 1.9186C80.3156 1.59704 80.0221 1.33527 79.6801 1.15632C79.3382 0.977368 78.9583 0.886717 78.5739 0.892336C78.1895 0.897955 77.8123 0.999673 77.4756 1.18854C77.1388 1.37742 76.8528 1.64765 76.6427 1.9755Z" fill="#E6301A"/>
<path fill-rule="evenodd" clip-rule="evenodd" d="M101.99 4.4978H116.991L119.188 0.865967H101.869C95.8535 0.875449 91.8867 5.85381 91.8867 11.9796C91.8867 18.1053 95.8535 23.0932 101.878 23.0932H116.534L118.825 19.4898H101.99C97.9299 19.4898 95.5462 16.1329 95.5462 11.9985C95.5462 7.86412 97.9299 4.50728 101.99 4.50728V4.4978Z" fill="#E6301A"/>
<path fill-rule="evenodd" clip-rule="evenodd" d="M25.4486 0.875488H9.99133C3.96674 0.875488 0 5.85385 0 11.9796C0 18.1054 3.96674 23.1027 9.99133 23.1027H25.4486C31.4732 23.1027 35.4399 18.1243 35.4399 11.9891C35.4399 5.85385 31.4732 0.875488 25.4486 0.875488ZM25.4486 19.4803H9.99133C5.93148 19.4803 3.55703 16.1235 3.55703 11.9891C3.55703 7.85467 5.93148 4.49784 9.99133 4.49784H25.4486C29.5084 4.49784 31.8922 7.85467 31.8922 11.9891C31.8922 16.1235 29.5084 19.4803 25.4486 19.4803Z" fill="#E6301A"/>
<path fill-rule="evenodd" clip-rule="evenodd" d="M151.202 4.49792H166.203L168.409 0.866089H151.09C145.065 0.866089 141.099 5.84445 141.099 11.9797C141.099 18.1149 145.065 23.0933 151.09 23.0933H165.746L168.037 19.4899H151.202C147.738 19.4899 145.512 17.0434 144.935 13.8003H163.819L166.091 10.0832H144.935C145.549 6.85909 147.784 4.45999 151.202 4.45999V4.49792Z" fill="#E6301A"/>
<path fill-rule="evenodd" clip-rule="evenodd" d="M55.7676 14.0753C57.3666 13.9004 58.8457 13.1297 59.9205 11.9114C60.9953 10.6931 61.5898 9.11314 61.5898 7.47537C61.5898 5.8376 60.9953 4.25765 59.9205 3.03932C58.8457 1.821 57.3666 1.05032 55.7676 0.875488H37.582V23.1027H41.586V4.49784H55.7676C56.543 4.49784 57.2867 4.81154 57.835 5.36994C58.3833 5.92833 58.6914 6.68568 58.6914 7.47537C58.6914 8.26506 58.3833 9.02241 57.835 9.5808C57.2867 10.1392 56.543 10.4529 55.7676 10.4529H44.3981L57.2295 23.0837H62.3881L53.2069 14.0847L55.7676 14.0753Z" fill="#E6301A"/>
<path fill-rule="evenodd" clip-rule="evenodd" d="M172.265 0.600546C171.878 0.604297 171.502 0.724508 171.183 0.946006C170.863 1.1675 170.616 1.48036 170.471 1.8451C170.326 2.20983 170.29 2.6101 170.369 2.99537C170.447 3.38065 170.635 3.73367 170.911 4.00989C171.186 4.28611 171.535 4.47313 171.914 4.54737C172.294 4.62161 172.686 4.57973 173.042 4.42702C173.398 4.2743 173.702 4.0176 173.915 3.68931C174.128 3.36101 174.241 2.97584 174.239 2.58241C174.239 2.31973 174.188 2.05968 174.088 1.81735C173.989 1.57503 173.843 1.35527 173.659 1.17087C173.475 0.986456 173.257 0.841071 173.018 0.743162C172.779 0.645254 172.523 0.596776 172.265 0.600546ZM172.265 4.24186C172.053 4.24327 171.842 4.20096 171.646 4.11746C171.451 4.03396 171.274 3.911 171.126 3.75598C170.978 3.60095 170.862 3.41707 170.786 3.21539C170.71 3.01371 170.674 2.7984 170.682 2.58241C170.682 2.15487 170.849 1.74484 171.145 1.44252C171.442 1.14021 171.845 0.970367 172.265 0.970367C172.685 0.970367 173.087 1.14021 173.384 1.44252C173.681 1.74484 173.848 2.15487 173.848 2.58241C173.854 2.79806 173.818 3.01279 173.741 3.21388C173.664 3.41497 173.549 3.59832 173.401 3.75307C173.253 3.90782 173.077 4.03082 172.882 4.11478C172.686 4.19874 172.477 4.24195 172.265 4.24186Z" fill="#E6301A"/>
<path fill-rule="evenodd" clip-rule="evenodd" d="M172.553 2.72449C172.633 2.7233 172.712 2.70578 172.785 2.67295C172.858 2.64012 172.924 2.59267 172.979 2.5334C173.033 2.47413 173.076 2.40426 173.104 2.32794C173.131 2.25162 173.144 2.17042 173.14 2.08915C173.14 1.64347 172.87 1.44434 172.339 1.44434H171.482V3.72964H171.827V2.78138H172.265L172.861 3.72964H173.196L172.553 2.72449ZM171.827 2.44001V1.7383H172.293C172.525 1.7383 172.777 1.78571 172.777 2.07019C172.777 2.35466 172.525 2.44001 172.237 2.44001H171.827Z" fill="#E6301A"/>
</svg>
