<svg width="165" height="31" viewBox="0 0 165 31" fill="none" xmlns="http://www.w3.org/2000/svg">
<path d="M70.3551 5.82202C68.2298 5.82202 66.022 6.40131 63.2895 7.8647L64.8076 11.6185C67.1806 10.2936 69.1407 9.71429 70.5761 9.71429C72.2047 9.71429 72.9224 10.3215 72.9224 11.1218V11.1765C72.9224 11.729 72.4804 12.0326 71.4044 12.1432L69.5281 12.3363C64.8355 12.833 62.9033 14.8756 62.9033 17.6907V17.8838C62.9033 20.5616 65.1112 22.659 68.2298 22.659C70.2834 22.659 72.0675 21.7919 73.152 20.2617L73.5017 22.3833H77.7522V12.7504C77.7522 8.19624 75.1303 5.82202 70.3551 5.82202ZM69.941 18.9877C68.3683 18.9877 67.6226 18.3805 67.6226 17.4418V17.3871C67.6226 16.5589 68.0914 15.9516 69.8025 15.7039L70.5482 15.5934C71.6375 15.4416 72.3067 15.2412 72.9224 14.8684V16.0901C72.9224 17.9397 71.7626 18.9877 69.941 18.9877Z" fill="black"/>
<path d="M30.3901 5.93252L24.953 0.495483L19.516 5.93252L22.2205 8.63828L8.58606 22.2728L14.0231 27.7098L19.4601 22.2728L16.7556 19.5682L30.3901 5.93252Z" fill="#F04E23"/>
<path d="M14.0773 0.494875L0.442383 14.1298L5.87985 19.5672L19.5147 5.93234L14.0773 0.494875Z" fill="#F04E23"/>
<path d="M33.0948 8.63831L19.46 22.2732L24.8974 27.7107L38.5323 14.0758L33.0948 8.63831Z" fill="#F04E23"/>
<path d="M85.3435 0.302246H80.5137V22.3831H85.3435V0.302246Z" fill="black"/>
<path d="M54.7884 5.8219C52.5927 5.8219 50.8293 6.79345 49.859 8.31514L49.4898 6.09758H45.2393V27.9016H50.0691V20.3441C50.9884 21.7614 52.7275 22.6576 54.7884 22.6576C58.6527 22.6576 61.7993 19.2353 61.7993 14.5148V13.9623C61.7993 9.2454 58.6527 5.8219 54.7884 5.8219ZM56.8311 14.3788C56.8311 16.8623 55.534 18.6573 53.3808 18.6573C51.2276 18.6573 49.9306 16.8636 49.9306 14.3788V14.1031C49.9306 11.6184 51.2276 9.82468 53.3808 9.82468C55.534 9.82468 56.8311 11.6184 56.8311 14.1031V14.3788Z" fill="black"/>
<path d="M150.509 5.82202C145.569 5.82202 142.091 9.2443 142.091 13.9648V14.5174C142.091 19.2367 145.569 22.6602 150.509 22.6602C155.45 22.6602 158.928 19.2379 158.928 14.5174V13.9648C158.928 9.24552 155.45 5.82202 150.509 5.82202ZM153.96 14.3789C153.96 16.8625 152.662 18.6574 150.509 18.6574C148.356 18.6574 147.059 16.8637 147.059 14.3789V14.1033C147.059 11.6185 148.356 9.8248 150.509 9.8248C152.662 9.8248 153.96 11.6185 153.96 14.1033V14.3789Z" fill="black"/>
<path d="M163.481 6.81661V6.73403C163.481 6.26526 163.123 5.93372 162.488 5.93372H161.384V8.4731H161.908V7.61692H162.491L162.93 8.4731H163.509L162.97 7.46876C163.298 7.36797 163.481 7.12265 163.481 6.81661ZM161.907 6.40249H162.486C162.818 6.40249 162.955 6.513 162.955 6.76196V6.78989C162.955 7.01092 162.817 7.14815 162.486 7.14815H161.907V6.40249Z" fill="black"/>
<path d="M162.378 4.58044C160.888 4.58044 159.756 5.7123 159.756 7.20241C159.756 8.69253 160.888 9.82438 162.378 9.82438C163.868 9.82438 165 8.69253 165 7.20241C165 5.7123 163.868 4.58044 162.378 4.58044ZM162.378 9.46491C161.081 9.46491 160.142 8.52615 160.142 7.2012C160.142 5.87625 161.081 4.93749 162.378 4.93749C163.675 4.93749 164.613 5.87625 164.613 7.2012C164.613 8.52615 163.675 9.46491 162.378 9.46491Z" fill="black"/>
<path d="M127.876 0.302246H123.046V22.3831H127.876V0.302246Z" fill="black"/>
<path d="M137.398 18.6572C135.99 18.6572 135.466 17.9674 135.466 16.4773V9.82458H141.152V6.09869H135.466V2.37158L130.636 3.08931V16.9448C130.636 20.7266 132.568 22.6587 136.432 22.6587C138.143 22.6587 140.158 22.1341 141.815 21.1953L140.435 17.7731C139.467 18.2977 138.115 18.6572 137.398 18.6572Z" fill="black"/>
<path d="M112.889 5.82202C110.764 5.82202 108.556 6.40131 105.824 7.8647L107.342 11.6185C109.715 10.2936 111.675 9.71429 113.11 9.71429C114.739 9.71429 115.457 10.3215 115.457 11.1218V11.1765C115.457 11.729 115.015 12.0326 113.939 12.1432L112.062 12.3363C107.37 12.833 105.438 14.8756 105.438 17.6907V17.8838C105.438 20.5616 107.645 22.659 110.764 22.659C112.816 22.659 114.602 21.7919 115.686 20.2617L116.036 22.3833H120.286V12.7504C120.286 8.19624 117.664 5.82202 112.889 5.82202ZM112.475 18.9877C110.901 18.9877 110.157 18.3805 110.157 17.4418V17.3871C110.157 16.5589 110.626 15.9516 112.337 15.7039L113.082 15.5934C114.172 15.4416 114.841 15.2412 115.455 14.8684V16.0901C115.455 17.9397 114.297 18.9877 112.475 18.9877Z" fill="black"/>
<path d="M95.9165 5.82202C90.9762 5.82202 87.498 9.2443 87.498 13.9648V14.5174C87.498 19.2367 90.9762 22.6602 95.9165 22.6602C100.857 22.6602 104.335 19.2379 104.335 14.5174V13.9648C104.334 9.24552 100.857 5.82202 95.9165 5.82202ZM99.3655 14.3789C99.3655 16.8625 98.0685 18.6574 95.9153 18.6574C93.7621 18.6574 92.4651 16.8637 92.4651 14.3789V14.1033C92.4651 11.6185 93.7621 9.8248 95.9153 9.8248C98.0685 9.8248 99.3655 11.6185 99.3655 14.1033V14.3789Z" fill="black"/>
<path d="M115.685 26.2985H116.923L118.632 28.5512H118.649V26.2985H119.784V30.2709H118.587L116.838 27.961H116.821V30.2709H115.685V26.2985Z" fill="black"/>
<path d="M121.293 26.2986H124.766L124.812 27.2628H122.479V27.8081H124.312V28.6874H122.479V29.3067H124.88L124.834 30.271H121.293V26.2986Z" fill="black"/>
<path d="M127.298 27.3198H125.907L125.952 26.2985H129.84L129.886 27.3198H128.495V30.2709H127.298V27.3198Z" fill="black"/>
<path d="M130.845 26.2985H132.115L132.762 29.0564H132.825L133.665 26.2985H134.829L135.651 29.0564H135.714L136.35 26.2985H137.564L136.52 30.2709H134.959L134.233 27.876H134.199L133.461 30.2709H131.894L130.845 26.2985Z" fill="black"/>
<path d="M138.439 28.2858C138.439 26.9912 139.319 26.1799 140.709 26.1799C142.1 26.1799 142.98 26.9912 142.98 28.2858C142.98 29.5804 142.101 30.3916 140.709 30.3916C139.319 30.3916 138.439 29.5791 138.439 28.2858ZM141.794 28.2858C141.794 27.5996 141.397 27.1903 140.709 27.1903C140.022 27.1903 139.625 27.5996 139.625 28.2858C139.625 28.9731 140.022 29.3812 140.703 29.3812C141.391 29.3812 141.794 28.9719 141.794 28.2858Z" fill="black"/>
<path d="M144.27 26.2985H146.586C147.641 26.2985 148.158 26.7976 148.158 27.723C148.158 28.3581 147.897 28.7905 147.386 28.9945L148.328 30.2721H146.978L146.246 29.2277H145.462V30.2721H144.27V26.2985ZM146.431 28.2962C146.828 28.2962 146.971 28.0752 146.971 27.774C146.971 27.4728 146.828 27.2579 146.431 27.2579H145.461V28.2962H146.431Z" fill="black"/>
<path d="M149.706 26.2985H150.897V27.7631H151.386L152.549 26.2985H153.888L153.895 26.3033L152.374 28.2051L153.98 30.266L153.973 30.2709H152.583L151.381 28.7443H150.897V30.2709H149.706V26.2985Z" fill="black"/>
<path d="M154.892 30.0098V28.9205H154.898C155.562 29.2557 156.21 29.4196 156.771 29.4196C157.197 29.4196 157.412 29.3176 157.412 29.1184C157.412 28.9193 157.27 28.8683 156.419 28.7322C155.488 28.5853 154.869 28.306 154.869 27.5057C154.869 26.7624 155.522 26.1892 156.799 26.1892C157.31 26.1892 157.843 26.2973 158.337 26.5074V27.5858L158.331 27.5919C157.86 27.3198 157.225 27.1486 156.714 27.1486C156.259 27.1486 156.078 27.2567 156.078 27.4376C156.078 27.6708 156.357 27.6927 157.055 27.8129C157.985 27.972 158.605 28.2331 158.605 29.0735C158.605 29.7256 158.116 30.379 156.715 30.379C156.023 30.379 155.471 30.2369 154.892 30.0098Z" fill="black"/>
</svg>
