<svg width="95" height="74" viewBox="0 0 95 74" fill="none" xmlns="http://www.w3.org/2000/svg">
<path d="M60.798 1.31279C61.9659 0.666484 63.3492 0.623019 64.6494 0.600342C66.0592 0.61735 67.605 0.732626 68.7578 1.63972C69.4796 2.1972 69.7858 3.11941 69.7877 4.00571C69.3398 4.00571 68.8938 4.00571 68.4478 4.00571C68.2853 3.13641 67.9036 2.20098 66.9984 1.87972C65.4866 1.31279 63.7461 1.34113 62.204 1.7909C60.9681 2.13295 60.5165 3.92067 61.4689 4.78429C62.1511 5.32855 63.0601 5.40225 63.8822 5.58555C65.5678 5.94461 67.3556 6.00319 68.926 6.77233C70.6003 7.61139 70.536 10.2892 69.0601 11.2945C67.8356 12.1355 66.2784 12.2281 64.8384 12.2394C63.2699 12.2149 61.5596 12.0675 60.284 11.0545C59.4714 10.4082 59.2182 9.33297 59.1691 8.3484C59.6264 8.32572 60.0837 8.31816 60.5429 8.31627C60.6431 9.37076 61.1382 10.4668 62.1889 10.8675C63.833 11.5062 65.7341 11.4986 67.4122 10.9903C68.5858 10.6596 69.0412 9.16478 68.5083 8.14052C68.2551 7.67753 67.7524 7.42619 67.2705 7.29202C65.2201 6.73831 63.0488 6.70808 61.0456 5.96918C59.1577 5.26807 59.0954 2.25578 60.798 1.31279Z" fill="#326690"/>
<path d="M73.5491 1.432C75.1139 0.634521 76.9337 0.509796 78.6496 0.651529C80.2862 0.787592 81.953 1.39232 83.0604 2.64713C84.4342 4.12682 84.6799 6.3643 84.164 8.25218C83.8843 9.31046 83.1416 10.142 82.3441 10.8563C82.9734 11.3136 83.6273 11.735 84.2566 12.1961C83.9744 12.4683 83.6852 12.7316 83.3892 12.9861C82.724 12.559 82.1136 12.0412 81.4257 11.6632C80.8947 11.6632 80.409 11.9845 79.8799 12.0582C78.3996 12.3331 76.8814 12.3331 75.4011 12.0582C73.7967 11.7369 72.2547 10.8374 71.3891 9.4125C70.5331 8.0273 70.4216 6.27926 70.8222 4.72776C71.0173 4.01657 71.3613 3.35496 71.8314 2.78677C72.3015 2.21858 72.8871 1.75679 73.5491 1.432ZM75.6865 1.68712C74.1577 2.0424 72.7328 3.10823 72.2376 4.63894C71.7142 6.28682 71.8956 8.27297 73.0899 9.59581C74.1406 10.7864 75.7583 11.3231 77.3136 11.3476C79.0333 11.4043 80.9155 10.9111 82.0474 9.53723C83.5933 7.54919 83.4156 4.24587 81.3463 2.66791C79.7835 1.3961 77.5838 1.28082 75.6865 1.68712Z" fill="#326690"/>
<path d="M85.3166 0.883869L86.6224 0.849854C86.6583 4.2401 86.6224 7.63035 86.6356 11.0206C89.3871 11.0678 92.1405 10.9998 94.892 11.0546V11.9598C91.7021 11.9598 88.5103 11.973 85.3185 11.9598C85.3185 8.26342 85.3109 4.56892 85.3166 0.883869Z" fill="#326690"/>
<path d="M51.7412 23.731C54.7516 23.0847 57.9774 23.164 60.8801 24.2601C62.896 25.0349 64.668 26.3346 66.0128 28.0245C66.6515 28.8258 66.7328 29.9011 66.7687 30.8856C66.797 33.2308 66.3246 35.5496 65.7217 37.806C64.552 41.9816 62.8364 45.9847 60.6194 49.7115C60.4034 50.0787 60.1648 50.4322 59.905 50.7698C59.8842 50.6677 59.8445 50.4599 59.8238 50.3559C60.0978 49.6378 60.4965 48.9613 60.6515 48.1997C61.2033 46.0491 60.7365 43.8362 60.5381 41.6724C60.3302 39.6296 61.0275 37.6434 61.0105 35.6063C61.0899 34.6085 60.6949 33.6655 60.3113 32.7716C58.9242 29.6705 56.7208 26.9133 53.8861 25.0236C53.202 24.5379 52.4291 24.2072 51.7412 23.731Z" fill="#326690"/>
<path d="M43.3764 24.0147C47.1296 23.5379 50.9187 24.5681 53.9138 26.8796C56.3721 28.8109 58.2394 31.3932 59.3034 34.3328C57.5818 34.2723 55.6297 34.2024 54.2388 35.3986C52.9765 36.4626 52.8139 38.2787 53.105 39.8056C53.7645 43.4339 55.9037 46.5181 57.4836 49.7798C57.9031 50.5452 58.4681 51.2122 58.9954 51.8982C58.3566 52.2214 57.6442 52.5294 57.2814 53.187C56.6464 54.2113 56.8694 55.4548 56.7144 56.5981C56.3497 59.7861 55.9906 62.978 55.471 66.1452C55.2253 67.657 54.5809 69.2766 53.1465 70.0325C51.6782 70.7789 49.9717 71.2476 48.3201 70.9944C46.7516 70.7184 45.7632 69.2577 45.3191 67.8328C44.9941 66.6384 44.9601 65.3912 44.8675 64.1628C44.7106 61.1959 44.7068 58.2233 44.7843 55.2526C44.8486 54.0923 44.2533 52.8847 43.2196 52.3215C42.7188 52.04 42.133 52.0022 41.5717 51.9568C42.012 49.7741 43.3405 47.89 43.796 45.7206C44.3875 43.0239 44.0605 40.2176 43.4558 37.5549C43.161 36.232 42.15 35.0509 40.8101 34.7202C38.7314 34.1986 36.6526 35.0094 34.7969 35.8749C35.0312 32.8645 35.8362 29.7841 37.6807 27.3407C38.3628 26.437 39.2175 25.6777 40.1952 25.1068C41.1729 24.5359 42.2542 24.1647 43.3764 24.0147Z" fill="#326690"/>
<path d="M27.5913 24.2639C30.889 23.629 34.2717 24.3017 37.437 25.2674C36.0296 26.7975 34.9663 28.6115 34.3189 30.5871C33.4367 33.236 33.0792 36.0314 33.2663 38.817C33.3938 40.7717 33.3254 42.7343 33.0622 44.6753C32.9098 45.9384 33.0624 47.2197 33.5072 48.4116C33.9521 49.6035 34.6763 50.6714 35.6191 51.5257C34.3378 53.0243 32.9734 54.453 31.7375 55.9856C31.1894 56.6319 30.4487 57.401 29.5151 57.2083C28.4228 56.8927 27.7274 55.8949 27.1189 54.9991C25.4748 52.3686 24.4732 49.3979 23.5756 46.4479C22.5589 42.9575 21.7009 39.4104 21.2077 35.8047C20.962 33.0608 21.1151 30.1184 22.5192 27.6787C23.5699 25.8287 25.5315 24.6494 27.5913 24.2639Z" fill="#326690"/>
<path d="M55.3053 36.4663C56.5185 35.6046 58.1059 35.7973 59.5081 35.8843C59.4476 37.8232 58.8505 39.7243 59.0451 41.6764C59.2209 44.0915 59.922 46.6881 58.7824 48.9785C57.2555 45.9397 55.2807 43.0389 54.5928 39.6543C54.3982 38.5847 54.349 37.2146 55.3053 36.4663ZM55.7531 36.9198C55.3487 37.2524 55.7853 37.7476 56.1311 37.9044C56.972 38.3995 58.1248 37.7154 58.1531 36.746C57.7722 36.5651 57.3508 36.486 56.9302 36.5164C56.5096 36.5469 56.104 36.6859 55.7531 36.9198Z" fill="#326690"/>
<path d="M34.7364 37.7152C36.2483 36.7325 38.036 35.9615 39.8785 36.0673C40.3538 36.0881 40.8101 36.2597 41.1812 36.5574C41.5523 36.8551 41.8188 37.2633 41.9421 37.7228C42.7793 41.0563 43.0382 44.7641 41.4357 47.9275C40.8841 49.1477 40.4151 50.4034 40.0316 51.6863C37.3651 51.7128 35.0974 49.4601 34.6249 46.9222C34.3018 45.4879 34.7232 44.0441 34.7723 42.606C34.8838 40.9713 34.7686 39.3404 34.7364 37.7152ZM39.0111 36.9763C38.7787 37.0576 38.5349 37.2163 38.5821 37.4998C38.7484 38.4655 40.0429 39.0532 40.8498 38.4447C41.2089 38.2425 41.5869 37.6888 41.173 37.3486C40.5891 36.8837 39.7292 36.7836 39.0111 36.9763Z" fill="#326690"/>
<path d="M58.7656 53.7332C59.1606 53.4422 59.7218 53.1663 60.1791 53.4914C62.1199 54.5137 64.3763 54.0148 66.44 53.7654C65.1795 54.9918 63.4314 55.5663 61.7155 55.7515C60.5817 55.8876 59.3968 55.9273 58.2988 55.5512C58.3026 54.9295 58.2686 54.1943 58.7656 53.7332Z" fill="#326690"/>
<path d="M39.2183 56.1104C40.3333 55.5113 40.7755 54.1904 41.8167 53.5119C42.9506 53.3513 43.7802 55.037 42.9223 55.8345C41.2479 58.1022 37.8974 58.535 35.4766 57.3009C36.6803 56.7472 38.0674 56.7907 39.2183 56.1104Z" fill="#326690"/>
<path d="M0.40719 0.883766C2.48594 0.883766 4.56468 0.866758 6.64343 0.85353C7.60721 0.842191 8.6447 1.01983 9.38927 1.67936C10.3984 2.55243 10.5742 4.09071 10.1452 5.29638C9.63116 6.60032 8.16281 7.2145 6.84375 7.24284C5.06547 7.26552 3.28531 7.24284 1.50704 7.25607C1.48814 8.82647 1.53349 10.395 1.50704 11.9654H0.40719C0.400891 8.27151 0.400891 4.57764 0.40719 0.883766ZM1.5316 1.77007C1.5316 3.30834 1.5316 4.84661 1.5316 6.38489C3.17381 6.38489 4.81602 6.40945 6.45823 6.37166C7.37477 6.34331 8.44816 6.02772 8.83178 5.10551C9.12848 4.27968 9.09068 3.24598 8.52375 2.54487C7.9795 1.8929 7.06863 1.77196 6.26926 1.76818C4.68689 1.76692 3.10767 1.76755 1.5316 1.77007Z" fill="black"/>
<path d="M30.0313 2.30115H31.1651C31.1651 3.09296 31.1651 3.88288 31.1651 4.6747C31.8139 4.68226 32.4621 4.68226 33.1097 4.6747C33.1191 4.93171 33.1286 5.18683 33.1399 5.44384C32.4835 5.45769 31.8278 5.45769 31.1727 5.44384C31.1462 6.99912 31.1727 8.55251 31.1576 10.1059C31.1689 10.4593 31.1349 10.9279 31.4958 11.1302C32.0004 11.3834 32.5843 11.2908 33.1248 11.2605C33.1248 11.5062 33.1248 11.7538 33.1248 12.0013C32.2914 12.0958 31.3938 12.1582 30.6209 11.7746C30.1541 11.5308 29.9991 10.9733 30.0086 10.482C29.9991 8.80007 30.0086 7.12006 30.0086 5.43817C29.5191 5.43817 29.0316 5.43817 28.5421 5.43817C28.5421 5.18683 28.5421 4.93549 28.5516 4.68226C29.0353 4.68226 29.5172 4.68226 30.001 4.66336C30.0199 3.87911 30.0218 3.09296 30.0313 2.30115Z" fill="black"/>
<path d="M13.3353 4.55564C14.781 4.3421 16.359 4.39123 17.661 5.12257C19.615 6.22242 19.889 9.17424 18.5284 10.8372C17.3605 12.1336 15.4481 12.3094 13.804 12.1714C12.4811 12.0902 11.1111 11.4306 10.4818 10.2098C10.2022 9.63885 10.0531 9.01284 10.0452 8.37714C10.0374 7.74143 10.171 7.11194 10.4364 6.53423C10.9807 5.42493 12.1485 4.75785 13.3353 4.55564ZM13.9023 5.29265C12.8345 5.41738 11.7838 6.09013 11.4342 7.14274C11.043 8.3125 11.2093 9.77141 12.1599 10.635C12.9158 11.3248 13.9873 11.4854 14.97 11.4382C15.8619 11.4023 16.8087 11.1661 17.4456 10.4933C18.1429 9.8092 18.2582 8.7566 18.1675 7.83061C18.0975 7.02935 17.712 6.21675 17.0053 5.78966C16.083 5.23407 14.9492 5.17171 13.8928 5.29265H13.9023Z" fill="black"/>
<path d="M20.9045 5.08871C21.6605 4.60871 22.5827 4.53312 23.452 4.47264C24.6784 4.4443 26.0202 4.43674 27.0822 5.14162C27.6737 5.51958 27.8872 6.21312 27.9704 6.86698C27.5717 6.8821 27.171 6.88588 26.7723 6.88588C26.6891 6.34352 26.468 5.76903 25.9238 5.54225C24.9449 5.09249 23.8129 5.14162 22.7697 5.29091C22.1216 5.38351 21.3297 5.75202 21.3108 6.50604C21.2542 7.04084 21.7436 7.41691 22.2104 7.53218C23.5861 7.87801 25.0242 7.84399 26.4094 8.14069C27.0274 8.2862 27.6945 8.53376 28.046 9.0988C28.2741 9.51584 28.3338 10.0044 28.2129 10.4641C28.092 10.9238 27.7997 11.3198 27.3959 11.5706C26.3868 12.1678 25.166 12.198 24.0246 12.2037C22.9134 12.1602 21.7039 12.1413 20.7553 11.4799C20.1732 11.0774 19.9729 10.3574 19.8633 9.69597C20.2771 9.69597 20.691 9.69597 21.1049 9.69597C21.1256 10.5974 21.8834 11.2361 22.7338 11.3438C23.9697 11.5215 25.3361 11.6235 26.4869 11.049C27.2844 10.6484 27.2069 9.3577 26.3641 9.05912C24.6633 8.56022 22.7905 8.72463 21.1049 8.11423C19.8897 7.63612 19.8708 5.77092 20.9045 5.08871Z" fill="black"/>
<path d="M36.5655 4.65012C37.7518 4.36589 38.9911 4.38997 40.1655 4.72004C40.8288 4.89957 41.2993 5.4287 41.7926 5.8539C41.8153 5.47595 41.8247 5.0791 41.8455 4.69358C42.2102 4.69358 42.5749 4.69358 42.9416 4.68413C43.0398 6.92351 42.9548 9.17045 42.985 11.4136C43.0134 12.3415 42.832 13.362 42.1082 14.0101C41.1633 14.8719 39.8026 15.0117 38.5762 15.0363C37.4858 15.0136 36.3368 14.989 35.3504 14.4694C34.6606 14.1122 34.3299 13.3563 34.1938 12.6306C34.5718 12.6306 34.9384 12.6193 35.3126 12.6079C35.5488 13.0898 35.7302 13.6738 36.2574 13.9308C37.036 14.3087 37.928 14.3087 38.7746 14.3087C39.7195 14.2766 40.7986 14.0952 41.3919 13.2769C41.9589 12.4946 41.8342 11.4722 41.8342 10.5632C40.653 11.7594 38.8672 11.9824 37.2704 11.7897C36.2688 11.6744 35.2218 11.3172 34.568 10.5103C33.7743 9.5295 33.676 8.1443 33.9708 6.95753C34.2656 5.77075 35.3863 4.91658 36.5655 4.65012ZM37.5217 5.32477C36.6996 5.45327 35.8757 5.8539 35.4184 6.5739C34.8874 7.42997 34.8798 8.54871 35.2294 9.47281C35.6074 10.4309 36.643 10.9204 37.6162 11.0205C38.8521 11.1982 40.294 11.0375 41.1765 10.0624C42.1649 8.86053 42.0571 6.77422 40.7343 5.84823C39.8083 5.21516 38.6045 5.17736 37.5217 5.32477Z" fill="black"/>
<path d="M46.4584 4.75789C47.2861 4.39505 48.2121 4.46308 49.0946 4.46497C49.0946 4.77364 49.0946 5.08167 49.0946 5.38907C48.1875 5.37584 47.1765 5.2549 46.396 5.82183C45.6401 6.3434 45.3718 7.31475 45.3585 8.19349C45.3453 9.4483 45.3585 10.705 45.3585 11.9617H44.2379C44.2026 9.54152 44.1995 7.12073 44.2285 4.69931C44.6064 4.69931 44.9844 4.69931 45.3529 4.69931C45.3529 5.11694 45.3623 5.53647 45.3737 5.95411C45.6515 5.49112 45.9406 4.98844 46.4584 4.75789Z" fill="black"/>
<path d="M49.4886 6.26984C50.2445 5.04149 51.7393 4.51802 53.1245 4.47456C54.5418 4.40464 56.1481 4.59739 57.1762 5.67078C57.9434 6.41535 58.1948 7.50764 58.2363 8.54134C55.5302 8.56591 52.824 8.52244 50.1198 8.56402C50.1821 9.29536 50.4032 10.0532 50.9721 10.5558C52.0228 11.5215 53.6083 11.6084 54.9406 11.3117C55.3706 11.2043 55.7677 10.993 56.0971 10.6965C56.4266 10.4 56.6783 10.0273 56.8303 9.61095C57.2423 9.61095 57.6549 9.61095 58.0681 9.61095C57.7148 10.8393 56.6319 11.7294 55.4073 12.0053C53.7481 12.3832 51.8357 12.3247 50.4051 11.3061C48.8423 10.2062 48.5475 7.85725 49.4886 6.26984ZM51.5352 5.67456C50.7132 6.09976 50.3276 6.9974 50.1311 7.86102C52.4303 7.87866 54.7314 7.87866 57.0344 7.86102C56.9848 7.32799 56.7783 6.82163 56.4411 6.4059C55.2788 4.99613 53.0792 4.84873 51.5352 5.67267V5.67456Z" fill="black"/>
<path d="M49.1532 21.3046C52.381 20.458 55.7958 20.0971 59.0991 20.7245C62.1252 21.2535 64.9216 22.6827 67.1231 24.8253C68.0831 25.7872 69.0582 26.8379 69.4191 28.1872C70.0654 30.5059 69.8084 32.9607 69.4191 35.3003C68.3949 40.9129 66.1782 46.2515 63.3398 51.1743C64.6172 51.1743 65.8456 50.768 67.1193 50.6849C68.393 50.6017 69.6875 51.3671 69.9861 52.6257C70.364 53.9655 69.5174 55.2714 68.5309 56.0953C66.0194 58.3309 62.5347 59.0698 59.2522 58.8808C59.0632 62.2692 58.9876 65.7917 57.5514 68.9363C56.9285 70.3636 55.8951 71.5733 54.5826 72.4116C53.3183 73.1996 51.8499 73.5719 50.4024 73.8478C48.8188 74.1331 47.0821 73.9782 45.7158 73.0673C44.4534 72.2642 43.6616 70.913 43.208 69.5183C42.0874 66.6024 42.1989 63.4238 42.0742 60.3529C39.8275 61.2251 37.3433 61.2666 35.0688 60.4701C34.2835 60.1813 33.5698 59.7262 32.9768 59.1359C31.8165 60.0997 30.2178 60.5948 28.7343 60.1753C26.8445 59.6613 25.5103 58.0777 24.5069 56.4846C22.7664 53.6235 21.6722 50.4279 20.7103 47.236C19.6464 43.5491 18.7431 39.8036 18.2536 35.9938C17.9796 32.6073 18.2839 28.9847 20.1113 26.0309C21.5796 23.612 24.1554 21.9963 26.9144 21.4577C30.8168 20.664 34.8401 21.4312 38.5838 22.601C39.7951 22.0568 41.0046 21.4671 42.3312 21.246C44.5743 20.7849 46.895 20.9947 49.1532 21.3046ZM49.1419 22.8164C48.8509 22.875 48.5655 22.7446 48.2802 22.7087C45.0884 22.0605 41.5677 22.3157 38.7992 24.1638C35.477 22.9676 31.9034 22.2457 28.3658 22.6161C25.7352 22.8901 23.0933 24.1109 21.5834 26.3522C19.6747 29.1472 19.4158 32.7169 19.7201 35.99C20.3585 40.3385 21.3701 44.624 22.7437 48.7989C23.6338 51.403 24.6108 54.026 26.1925 56.2994C26.9957 57.4162 28.0634 58.5425 29.4996 58.7183C30.7771 58.8733 31.9318 58.0814 32.7122 57.1441C34.0653 55.5227 35.4581 53.9315 36.9019 52.3951C37.8457 52.8545 38.8689 53.1284 39.916 53.2021C39.3491 53.8748 38.8823 54.7517 37.9809 55.0162C36.7658 55.4849 35.3353 55.4225 34.2694 56.2314C34.1257 56.343 34.0077 56.4845 33.9238 56.6461C33.8398 56.8076 33.7918 56.9854 33.783 57.1672C33.7742 57.3491 33.8049 57.5307 33.8728 57.6996C33.9408 57.8685 34.0445 58.0206 34.1768 58.1457C35.1803 59.1208 36.66 59.3306 37.996 59.4421C39.9042 59.5784 41.789 58.9556 43.2402 57.7092C43.2307 60.7196 43.2402 63.7375 43.5841 66.7309C43.7523 68.4846 44.5101 70.2308 45.8518 71.41C47.1085 72.5061 48.9 72.7328 50.495 72.4569C52.0597 72.1602 53.6698 71.6897 54.8925 70.6201C56.1926 69.4749 56.7463 67.7438 57.0052 66.0846C57.472 63.1101 57.8273 60.1186 58.1656 57.129C61.5123 57.6959 65.2976 57.0534 67.8034 54.6099C68.3382 54.1073 68.8447 53.2361 68.3174 52.552C67.775 51.9246 66.8509 52.0965 66.1347 52.2383C64.415 52.5444 62.5442 52.9016 60.8793 52.1872C63.8538 47.4949 66.1933 42.3699 67.4935 36.9614C67.9697 34.9053 68.3363 32.8039 68.2683 30.6873C68.2154 29.5024 68.0509 28.242 67.3234 27.2612C65.5061 24.8899 62.9574 23.1841 60.0723 22.4082C56.495 21.4482 52.6588 21.7374 49.1419 22.824V22.8164Z" fill="black"/>
</svg>
