<svg width="148" height="36" viewBox="0 0 148 36" fill="none" xmlns="http://www.w3.org/2000/svg">
<g clip-path="url(#clip0_170_12028)">
<path d="M30.6309 20.6661C33.6364 20.6661 37.9879 20.0424 37.9879 16.4616C37.9968 16.1851 37.9719 15.9084 37.9139 15.6379L36.1226 7.84732C35.7067 6.13516 35.3442 5.35675 32.3393 3.8517C30.0076 2.65732 24.9306 0.686279 23.4279 0.686279C22.0291 0.686279 21.612 2.5014 19.9565 2.5014C18.3509 2.5014 17.1583 1.15344 15.6556 1.15344C14.2051 1.15344 13.2722 2.13896 12.5466 4.16295C12.5466 4.16295 10.5257 9.87013 10.2666 10.7015C10.2242 10.8534 10.2061 11.0111 10.2132 11.1687C10.2132 13.3874 18.9372 20.6661 30.6309 20.6661ZM38.4543 17.9143C38.8697 19.8871 38.8697 20.0942 38.8697 20.3537C38.8697 23.7274 35.0863 25.5955 30.1122 25.5955C18.8679 25.5955 9.02178 19.0057 9.02178 14.6453C9.02042 14.0383 9.1438 13.4375 9.38425 12.8802C5.34359 13.0891 0.110352 13.8146 0.110352 18.4338C0.110352 26.0103 18.0384 35.3518 32.2365 35.3518C43.1183 35.3518 45.8659 30.4213 45.8659 26.5292C45.8659 23.4668 43.2223 19.9913 38.4567 17.9143" fill="#ED2937"/>
<path d="M38.4541 17.9144C38.8694 19.8872 38.8694 20.0943 38.8694 20.3538C38.8694 23.7275 35.0861 25.5956 30.1119 25.5956C18.8676 25.5956 9.0215 19.0059 9.0215 14.6455C9.02014 14.0384 9.14352 13.4376 9.38397 12.8803L10.2652 10.7004C10.2227 10.8523 10.2047 11.01 10.2117 11.1676C10.2117 13.3863 18.9357 20.6651 30.6295 20.6651C33.635 20.6651 37.9864 20.0414 37.9864 16.4606C37.9953 16.184 37.9704 15.9074 37.9124 15.6369L38.4541 17.9144Z" fill="#010101"/>
<path d="M139.342 22.9065C139.342 25.7671 141.062 27.1592 144.196 27.1592C144.954 27.1592 146.269 26.9827 147.052 26.755V23.4378C146.456 23.6274 145.834 23.7213 145.208 23.7161C143.916 23.7161 143.438 23.3113 143.438 22.0969V17.0075H147.179V13.5891H143.438V9.26045L139.342 10.1459V13.5891H136.64V17.0075H139.342V22.9065ZM126.617 22.9818C126.617 22.0993 127.502 21.6662 128.841 21.6662C129.659 21.6702 130.474 21.7722 131.269 21.9698V23.6914C130.51 24.1221 129.624 24.3239 128.714 24.3239C127.401 24.3239 126.617 23.8179 126.617 22.9818ZM127.867 27.2092C129.308 27.2092 130.471 26.9062 131.558 26.1719V26.9827H135.601V18.4002C135.601 15.1336 133.402 13.3361 129.737 13.3361C127.689 13.3361 125.668 13.818 123.494 14.807L124.963 17.8189C126.528 17.1611 127.844 16.7563 129.006 16.7563C130.7 16.7563 131.56 17.4141 131.56 18.7567V19.4151C130.569 19.1588 129.549 19.0315 128.526 19.0362C125.088 19.0362 123.015 20.4789 123.015 23.0606C123.015 25.4141 124.886 27.2122 127.869 27.2122M105.649 26.9857H109.996V20.0435H117.271V26.9827H121.618V9.26045H117.271V16.0708H109.991V9.26045H105.644L105.649 26.9857ZM89.0819 20.2782C89.0819 18.3549 90.5999 16.8863 92.5967 16.8863C93.7088 16.8863 94.7193 17.2664 95.4284 17.9248V22.6076C94.6952 23.3166 93.7347 23.6708 92.5967 23.6708C90.6246 23.6708 89.0819 22.2028 89.0819 20.2782ZM95.4783 26.9857H99.5231V8.37378L95.4284 9.26045V14.2987C94.3884 13.7078 93.2113 13.402 92.0157 13.412C88.1219 13.412 85.0635 16.425 85.0635 20.273C85.0635 24.1209 88.072 27.1569 91.8888 27.1569C93.1789 27.1636 94.4371 26.7555 95.4783 25.9925V26.9857ZM76.9241 16.7068C78.2136 16.7068 79.2998 17.5423 79.7298 18.8332H74.1324C74.5377 17.4917 75.5488 16.7068 76.9141 16.7068M70.013 20.3018C70.013 24.1997 73.1983 27.2387 77.2936 27.2387C79.543 27.2387 81.1856 26.6315 82.8799 25.2129L80.1775 22.8076C79.5448 23.4654 78.6089 23.8208 77.498 23.8208C75.9806 23.8208 74.741 22.9847 74.2082 21.6939H83.7394V20.6789C83.7394 16.425 80.8819 13.362 76.9893 13.362C73.0714 13.362 70.0124 16.4003 70.0124 20.2988M62.9633 12.9831C64.4032 12.9831 65.2127 13.8944 65.2127 14.9835C65.2127 16.0726 64.4032 16.984 62.9633 16.984H58.6653V12.9831H62.9633ZM54.3174 26.9862H58.6647V20.5265H61.9763L65.3138 26.9827H70.1657L66.2737 19.894C68.3722 18.9815 69.6112 17.0828 69.6112 14.9059C69.6112 11.7163 67.1079 9.25751 63.3663 9.25751H54.3191L54.3174 26.9862Z" fill="#010101"/>
</g>
<defs>
<clipPath id="clip0_170_12028">
<rect width="147.066" height="34.6655" fill="white" transform="translate(0.110352 0.686279)"/>
</clipPath>
</defs>
</svg>
