<svg width="95" height="77" viewBox="0 0 95 77" fill="none" xmlns="http://www.w3.org/2000/svg">
<path d="M64.6274 24.2635L54.2115 27.6623L45.1498 31.6589L42.6147 32.3278C41.9691 32.9415 41.2921 33.563 40.5599 34.1924C39.7568 34.8847 39.0089 35.5142 38.4341 35.9704C37.7964 36.474 36.8517 37.418 36.3715 38.0159C35.655 38.9127 35.0882 39.8647 34.8441 40.5964C34.411 41.9182 34.6237 43.2556 35.4582 44.4909C36.5289 46.0643 38.6625 47.6692 41.1503 48.7628C42.4179 49.3215 44.5515 50.0374 46.1575 50.4386C48.8263 51.1152 53.9911 51.8469 56.8331 51.9571C57.4078 51.9807 58.1794 51.9807 58.2108 51.9571C58.2738 51.9177 58.7147 51.0759 59.2266 50.0296C60.9744 46.4656 62.234 43.1219 62.9189 40.2661C63.3283 38.5353 63.651 36.2301 63.8635 33.5002C63.9187 32.737 63.9423 30.1801 63.895 29.3146C63.8241 27.8985 63.6981 26.7499 63.5015 25.6249C63.47 25.4596 63.462 25.3101 63.4778 25.3023C63.5092 25.2787 63.6037 25.2472 64.887 24.8774L64.6273 24.2638V24.2636H64.6274V24.2635ZM62.2498 25.6562C62.3443 25.6562 62.5961 28.0714 62.6591 29.5978C62.6749 29.9203 62.6669 30.1328 62.6512 30.1328C62.5883 30.1328 61.3207 29.3854 60.4155 28.819C59.6281 28.3233 58.1323 27.332 57.8962 27.1432C57.8173 27.0881 57.8251 27.0803 58.4708 26.8599C59.565 26.4901 62.1632 25.6562 62.2498 25.6562ZM56.9434 27.4028C57.0144 27.4028 57.1953 27.505 57.6283 27.7725C59.2501 28.7874 61.4546 30.0148 62.3994 30.4239C62.6906 30.5498 62.722 30.5025 62.0529 30.9589C60.6201 31.9344 58.8328 32.8942 56.6441 33.8619C56.2584 34.035 55.9357 34.1687 55.9278 34.1687C55.9121 34.1687 55.9592 33.9722 56.0221 33.7361C56.5496 31.777 56.8489 29.7944 56.8647 28.2052C56.8725 27.4184 56.8725 27.4184 56.9434 27.3949C56.9276 27.4028 56.9355 27.4028 56.9434 27.4028ZM55.8491 27.8197C55.8962 27.8668 55.8648 29.6292 55.8018 30.1091C55.6601 31.2578 55.4397 32.3277 55.0776 33.5316C54.991 33.8224 54.9121 34.0665 54.8966 34.0822C54.8649 34.1215 53.7863 33.0672 53.4321 32.6582C52.8179 31.9501 52.3378 31.242 51.9835 30.5497C51.8024 30.1956 51.519 29.5034 51.5426 29.4797C51.6686 29.3932 55.8176 27.7883 55.8491 27.8197ZM50.7002 29.8416C50.708 29.8416 50.7158 29.8416 50.7238 29.8495C50.7395 29.8652 50.7947 29.9911 50.842 30.1327C51.0938 30.8172 51.6606 31.8242 52.1488 32.4694C52.6842 33.1775 53.3849 33.9327 53.9674 34.4283C54.1564 34.5857 54.3295 34.7351 54.3531 34.7587C54.4004 34.806 54.4162 34.798 53.1328 35.2859C51.645 35.8523 50.0231 36.4188 48.165 37.0167C47.7212 37.1596 47.2777 37.3039 46.8347 37.4494C46.7637 37.473 46.7874 37.4336 46.9921 37.1112C47.9132 35.6714 49.3145 32.847 50.1018 30.8486C50.2357 30.5025 50.3695 30.1563 50.3932 30.0777C50.4247 29.9674 50.464 29.9281 50.5663 29.873C50.6214 29.8574 50.6766 29.8416 50.7002 29.8416ZM49.1257 30.4946C49.1493 30.5104 48.7477 31.3522 48.3541 32.1232C47.5904 33.6101 46.7559 35.0735 45.6379 36.8515C45.449 37.1583 45.268 37.4416 45.2443 37.4731C45.205 37.5282 45.1892 37.5124 45.0632 37.2685C44.7955 36.7414 44.575 36.0647 44.457 35.4432C44.3388 34.8295 44.3625 33.7596 44.4964 33.0988C44.5986 32.611 44.5909 32.6189 44.827 32.5008C45.8347 31.9895 49.0942 30.4632 49.1257 30.4946ZM62.7064 31.0454V31.3758C62.7064 33.1303 62.5175 35.5377 62.2418 37.2922C62.1946 37.599 62.1551 37.8506 62.1474 37.8586C62.1474 37.8586 61.9191 37.7958 61.6514 37.717C60.4705 37.3472 59.1872 36.8043 58.0298 36.1672C57.2661 35.7502 56.1561 35.0656 56.1876 35.0341C56.1953 35.0263 56.5261 34.8532 56.9118 34.6486C58.4551 33.8462 59.9351 32.9808 61.2184 32.1232C61.6986 31.8007 62.4228 31.2815 62.5805 31.1398L62.7064 31.0454ZM43.1815 33.374C43.213 33.374 43.2051 33.437 43.1579 33.7202C43.1264 33.9248 43.0871 34.3025 43.0714 34.562C43.0083 35.7107 43.1974 36.5604 43.7642 37.7247C43.9216 38.0473 44.0477 38.3148 44.0397 38.3226C43.9846 38.3699 38.7728 39.8962 37.1351 40.3446C36.647 40.4783 36.222 40.5964 36.1903 40.6041C36.1353 40.6199 36.1274 40.6121 36.151 40.4782C36.332 39.3218 37.2139 37.8112 38.442 36.5367C39.2608 35.687 39.9143 35.1914 41.0322 34.5541C41.8353 34.0978 43.0713 33.4135 43.1658 33.3819C43.1658 33.374 43.1737 33.374 43.1815 33.374ZM55.4633 35.5691C55.4712 35.5612 55.6601 35.6636 55.8884 35.7973C57.5732 36.7728 59.9193 37.6776 61.9189 38.1418L62.1001 38.1812L61.8481 38.3226C60.8011 38.9049 57.3606 40.3367 53.8415 41.6506C53.3297 41.8393 52.8259 42.0282 52.7313 42.0675C52.6368 42.1068 52.5502 42.1305 52.5502 42.1227C52.5502 42.1147 52.692 41.8393 52.8729 41.5011C53.8571 39.6601 54.8491 37.4179 55.353 35.8602C55.4161 35.7107 55.4553 35.577 55.4633 35.5691ZM54.2115 35.9782C54.2195 35.9862 54.1565 36.1513 54.0777 36.3401C53.3928 38.0001 52.4951 39.8097 51.3458 41.8395C51.0545 42.3588 50.8104 42.7758 50.8024 42.7758C50.7947 42.7758 50.5584 42.6341 50.275 42.461C48.6059 41.4382 47.1258 40.1795 46.1575 38.96L46.0158 38.7869L46.7321 38.5902C49.2987 37.8901 51.4794 37.1348 53.6446 36.2065C53.9517 36.0806 54.2037 35.9782 54.2115 35.9782ZM61.99 38.6925C61.9978 38.8734 61.5963 40.4942 61.2656 41.6663C60.9901 42.6497 60.7538 43.4208 60.3209 44.7818C60.1319 45.3798 59.9667 45.8753 59.9587 45.8753C59.9509 45.8753 59.9037 45.8675 59.8564 45.8519C57.5182 45.4269 55.424 44.8369 53.4557 44.0502C52.9046 43.8298 52.1173 43.4758 52.0701 43.4365C52.0544 43.4206 52.5268 43.2004 53.1251 42.9408C56.7073 41.3752 60.4233 39.5971 61.6986 38.8341C61.8482 38.7396 61.9663 38.6925 61.99 38.6925ZM44.0319 39.3062C44.0476 39.3219 43.0477 40.7617 41.6463 42.7206C41.1582 43.4051 40.5914 44.2075 40.3789 44.5065C40.1663 44.8055 39.8435 45.2775 39.6624 45.5608L39.3316 46.0722L38.9773 45.7732C38.56 45.427 37.8358 44.6875 37.513 44.2783C36.8359 43.4366 36.3794 42.5476 36.1983 41.7373C36.1116 41.3596 36.1116 41.1707 36.1903 41.1472C36.3083 41.1158 38.4104 40.6201 40.3788 40.1637C41.4731 39.912 42.7406 39.6131 43.1972 39.5029C43.6539 39.3926 44.024 39.3062 44.0319 39.3062ZM45.0395 39.6917L45.2914 39.9749C46.4252 41.2416 47.5825 42.1779 48.9839 42.996C49.2359 43.1377 49.4248 43.2635 49.409 43.2715C49.354 43.3108 44.5435 45.0178 42.3155 45.7889C41.0638 46.2294 40.0324 46.5835 40.0246 46.5835C40.0168 46.5835 39.9458 46.5363 39.867 46.4812L39.7254 46.3789L39.9537 46.0485C40.6937 44.9785 41.6228 43.8064 43.6461 41.3675L45.0395 39.6917ZM51.3222 44.1839C51.33 44.1761 51.6764 44.3019 52.1015 44.4594C53.1251 44.8449 53.9359 45.0887 55.0224 45.3641C56.3609 45.7024 58.2976 46.0329 59.4392 46.1272C59.6124 46.1429 59.7069 46.1587 59.6754 46.1823C59.6201 46.2138 58.463 46.5993 57.6127 46.8668C56.2584 47.2916 52.1252 48.511 48.7556 49.4788C48.1336 49.6597 47.5983 49.8092 47.5668 49.817C47.4881 49.8328 47.2282 49.7619 47.2282 49.7305C47.2282 49.7148 47.4172 49.471 47.6455 49.2034C48.7791 47.8502 49.9051 46.3397 50.842 44.9078C51.1017 44.5143 51.3222 44.1918 51.3222 44.1839ZM49.9365 44.2234C49.9443 44.2312 49.3854 45.128 48.4093 46.67C47.9919 47.323 47.5274 48.0625 47.362 48.3222C47.2046 48.5739 46.9684 48.9674 46.8346 49.1876L46.6063 49.5889L46.4882 49.5574C46.2047 49.4787 44.2129 48.7784 43.6854 48.5661C43.0319 48.3064 42.3548 47.9918 41.8509 47.7243C41.2212 47.386 40.4339 46.8824 40.4968 46.8668C40.5126 46.8589 41.5912 46.5677 42.8901 46.2138C46.3385 45.2774 48.2516 44.7346 49.5035 44.3413C49.7319 44.2705 49.9286 44.2154 49.9365 44.2234ZM59.7383 46.5205H59.7461C59.7776 46.5993 58.5023 50.1396 58.0376 51.2567C57.9354 51.5085 57.8962 51.5715 57.8409 51.5635C57.7071 51.5558 55.857 51.2961 54.7311 51.1309C52.7708 50.8319 49.4799 50.2575 48.6533 50.0688L48.4643 50.0295L49.6373 49.7618C52.1567 49.1954 53.3691 48.8886 54.5972 48.511C56.1482 48.0389 57.6835 47.4488 59.2344 46.7251C59.4784 46.6149 59.6832 46.5284 59.7383 46.5205Z" fill="url(#paint0_linear_170_12052)"/>
<path d="M53.8883 0.000402959C53.7151 -0.02307 50.9201 0.983944 49.1173 1.71552C46.6845 2.70694 44.7951 3.65108 43.6298 4.46911C43.1969 4.77608 42.6536 5.31886 42.5671 5.53124C42.5356 5.60993 42.5198 5.70433 42.5198 5.79873L43.5748 6.79791L46.0862 7.60038L52.0618 8.67037L58.8954 9.84264L58.9663 9.25259C58.9427 9.25259 58.9269 9.24475 58.9035 9.24475L58.0057 9.10308L57.8248 8.78055C56.8958 7.14409 55.8723 5.11428 55.274 3.74533C54.8095 2.68321 54.3686 1.45602 54.1245 0.574819C53.9906 0.0398387 53.9749 0.00838441 53.8885 0.000547998V0.000366423H53.8883V0.000402959ZM53.7622 0.401765H53.7703C53.778 0.409529 53.8095 0.629964 53.8411 0.889436C53.9748 1.99103 54.219 3.05297 54.6047 4.20166C54.896 5.06711 54.896 5.01995 54.5575 4.9176C53.7545 4.69739 50.1566 4.07584 47.5506 3.71395C47.1333 3.65884 46.779 3.60381 46.779 3.59597C46.7476 3.56452 48.6606 2.56527 49.503 2.17199C50.5816 1.67623 53.5418 0.441056 53.7622 0.401765ZM46.1727 3.92633L46.4799 4.0285C48.1488 4.59504 52.345 5.39755 54.6598 5.58635C54.9195 5.60996 55.14 5.63362 55.1478 5.63362C55.1556 5.64146 54.9353 5.75947 54.6518 5.89316C53.534 6.45176 52.3058 7.13625 51.4555 7.66339C51.2036 7.82067 50.9752 7.94663 50.9438 7.94663C50.9123 7.94663 50.747 7.91514 50.5738 7.89152L50.2589 7.84425L49.4717 7.0732C48.086 5.72795 46.9995 4.68948 46.5822 4.29602L46.1727 3.92633ZM45.8579 4.17017L46.968 5.55489C47.5741 6.31803 48.1882 7.0654 48.3222 7.23054C48.4559 7.39587 48.5662 7.52967 48.5583 7.5375C48.5268 7.56108 46.9524 7.2542 46.1177 7.06547C45.2596 6.86872 44.9053 6.77432 44.3778 6.60918L43.9448 6.46751V6.35729C43.9526 5.83015 44.6219 5.04346 45.7556 4.24106L45.8579 4.17017ZM55.2896 6.05838C55.3212 6.05838 55.3604 6.12916 55.4549 6.34158C55.7226 6.9316 56.5572 8.5209 56.7618 8.82768C56.8249 8.93006 56.935 8.9379 55.825 8.75694C53.1562 8.32412 52.2979 8.18266 52.2979 8.16692C52.2979 8.15908 52.3767 8.10397 52.479 8.04887C53.3057 7.59265 54.1402 7.0104 54.8803 6.38885C55.0614 6.23934 55.2267 6.09774 55.2581 6.07409C55.266 6.05838 55.2818 6.05055 55.2896 6.05838Z" fill="url(#paint1_linear_170_12052)"/>
<path d="M42.6219 5.42114C42.6219 5.42114 42.4488 5.69661 42.6141 6.10574C42.7166 6.35741 43.0157 6.66419 43.3542 6.97896C43.3542 6.97896 46.8576 10.3934 47.2828 10.8812C49.2194 13.1155 50.0619 15.3184 50.1406 18.3553C50.1879 20.3064 49.8177 22.0215 48.8967 24.012C47.2591 27.5838 43.8028 31.5254 38.4729 35.8997L39.2524 35.6401C39.7563 35.2624 40.4412 34.8613 42.0473 33.9801C45.7554 31.9501 49.928 30.0856 55.0455 28.166C62.4143 25.3965 74.5309 22.1551 81.4274 21.101L82.144 20.9908L82.0337 20.8177C81.404 19.8421 80.9708 19.2364 80.4512 18.5912C78.9397 16.7188 77.1054 15.2004 74.8615 13.9416C71.7753 12.2187 67.7836 10.8734 62.7294 9.87422C61.7768 9.68531 59.6825 9.32346 57.982 9.06384C54.3762 8.50539 52.0458 8.11981 49.4793 7.67923C48.5582 7.52181 47.1803 7.28584 46.2671 7.08921C45.7947 6.98683 44.8894 6.77445 44.1808 6.53057C43.614 6.31018 42.7952 6.08989 42.6219 5.42114ZM44.6533 7.38808C44.6611 7.38032 44.787 7.42737 44.9524 7.48248C45.2516 7.58464 45.6373 7.7027 46.0941 7.82866C46.4396 7.92364 46.786 8.01542 47.1333 8.10399C47.6056 8.22193 47.9992 8.33211 48.0071 8.33211C48.0623 8.38722 48.8575 10.9282 49.1251 11.9038C49.2273 12.2737 49.3062 12.5883 49.2984 12.5883C49.2903 12.5963 49.2038 12.4624 49.1015 12.2815C48.1803 10.6608 46.7238 9.01653 45.039 7.69475C44.8187 7.53755 44.6533 7.39592 44.6533 7.38808ZM48.5267 8.45804C48.5661 8.45804 48.7393 8.48166 48.9518 8.52882C50.2902 8.82777 52.6915 9.28409 54.2267 9.54375C54.4865 9.58304 54.6913 9.63035 54.6913 9.64598C54.6913 9.6618 54.5967 9.71676 54.4785 9.77978C54.2189 9.91347 53.1717 10.5349 52.8254 10.771C51.9514 11.3532 51.1642 11.9826 50.5973 12.549C50.369 12.7772 50.1721 12.966 50.1721 12.966C50.1721 12.966 50.125 12.8323 50.0855 12.667C49.8022 11.5734 49.2116 9.95269 48.6763 8.81199C48.5897 8.63109 48.5187 8.46584 48.5187 8.45017C48.5187 8.46588 48.5187 8.45804 48.5267 8.45804ZM55.3446 9.75616C55.3919 9.77184 55.4706 10.0394 55.628 10.6294C55.9194 11.7702 56.0532 13.0447 56.006 14.2327C55.9902 14.5631 55.9745 14.8699 55.9587 14.9094L55.9351 14.9879L55.5257 14.8543C54.6833 14.5868 53.3135 14.1854 52.1405 13.8551C51.4711 13.6741 50.9281 13.5089 50.9281 13.4932C50.9281 13.4459 51.9043 12.4704 52.3215 12.1007C53.1166 11.4004 55.2737 9.73251 55.3446 9.75616ZM55.8879 9.83475C55.9115 9.81127 59.1473 10.3697 60.6195 10.653C61.7139 10.8654 63.3042 11.1958 63.3986 11.2352C63.4459 11.2509 63.2805 11.3453 62.753 11.5813C60.6746 12.5176 59.1314 13.3593 57.5964 14.3822C57.1948 14.6497 56.8563 14.8699 56.8484 14.8699C56.8406 14.8699 56.8327 14.6418 56.8327 14.3664C56.8327 12.8717 56.5335 11.3611 55.9823 10.0866C55.9272 9.96071 55.88 9.84273 55.8879 9.83475ZM64.2567 11.487C64.2804 11.5106 64.178 12.1479 64.0835 12.5255C63.8001 13.6977 63.0365 15.4365 62.0997 17.0729C61.9342 17.364 61.7847 17.6 61.7688 17.6078C61.7533 17.6157 61.5407 17.4976 61.2965 17.356C60.3833 16.821 59.3441 16.3176 58.2104 15.8455C57.8956 15.7118 57.6199 15.6015 57.6121 15.5859C57.5568 15.5387 60.092 13.8629 61.4304 13.0604C62.4933 12.4154 64.2252 11.4555 64.2567 11.487ZM64.8551 11.5814C64.926 11.5814 66.3588 11.9748 67.1067 12.1951C68.9569 12.7458 71.0825 13.5246 72.4681 14.154L73.0428 14.4137L72.6414 14.5081C69.2561 15.2869 66.3588 16.1839 63.5639 17.3168C63.3356 17.4112 63.1309 17.4899 63.1153 17.4899C63.0995 17.4899 63.1782 17.3089 63.2805 17.0886C64.123 15.3027 64.6662 13.4381 64.7999 11.8488C64.8079 11.6993 64.8314 11.5814 64.8551 11.5814ZM50.5894 14.8543C50.613 14.8306 51.7074 15.0903 52.2978 15.2554C53.1953 15.5072 55.1005 16.1444 55.1005 16.1917C55.1005 16.1995 54.888 16.3805 54.6362 16.6008C53.6048 17.4584 52.6128 18.363 51.4239 19.5117C51.0696 19.8501 50.7705 20.1254 50.7548 20.1254C50.739 20.1254 50.7312 20.0781 50.739 20.0152C50.92 18.6934 50.8808 16.9941 50.6288 15.2712C50.6051 15.0508 50.5816 14.8621 50.5894 14.8543ZM73.5862 14.8779C73.6018 14.8935 73.0823 15.7118 72.7516 16.1759C72.2794 16.8525 71.5863 17.7495 70.0196 19.7163C69.1931 20.7547 68.264 21.9271 67.9571 22.3204C67.642 22.7138 67.3823 23.0441 67.3743 23.0441C67.3665 23.0441 67.2643 22.9026 67.154 22.7296C66.2722 21.4078 65.2172 20.2513 63.9654 19.2128C63.7292 19.016 63.4695 18.8036 63.3829 18.7407C63.2963 18.6778 63.2254 18.6148 63.2254 18.607C63.2254 18.5834 64.5636 18.009 65.5794 17.6C67.3587 16.8761 69.7833 16.0107 71.6021 15.4521C72.5548 15.1532 73.5704 14.8621 73.5862 14.8779ZM74.1924 15.0351C74.2238 15.0273 74.4128 15.1217 74.6411 15.2554C76.5543 16.3489 78.4279 17.7573 79.9082 19.2049C80.3254 19.6141 81.3567 20.684 81.3409 20.6919C81.3409 20.6919 80.9788 20.7233 80.5537 20.7547C77.2392 21.0066 72.9958 21.7067 68.9175 22.6901C68.642 22.753 68.398 22.8081 68.3822 22.8081C68.3666 22.8081 68.6735 22.5013 69.0594 22.1316C71.4527 19.8264 72.5471 18.371 73.8381 15.7746C74.0192 15.3892 74.1767 15.0588 74.1924 15.0351C74.1845 15.0351 74.1845 15.0351 74.1924 15.0351ZM56.6594 16.829C56.7697 16.8525 57.7931 17.3326 58.5647 17.718C59.2732 18.0719 60.3361 18.6385 60.3912 18.6856C60.399 18.6934 60.0211 18.8902 59.5568 19.1183C58.0765 19.8579 56.8091 20.558 55.4863 21.3605C55.1085 21.5887 54.7936 21.7776 54.7857 21.7776C54.7542 21.7776 54.762 21.746 54.9746 21.3605C55.6832 20.0704 56.25 18.5283 56.5729 17.0256C56.6043 16.9076 56.6358 16.829 56.6594 16.829ZM55.6359 17.0178C55.6595 17.0414 55.3919 18.009 55.2266 18.5362C54.9037 19.5353 54.3605 20.7862 53.8331 21.7303C53.707 21.9505 53.5181 22.2731 53.4157 22.454L53.219 22.7687L52.7781 22.344C52.2664 21.8483 51.849 21.5415 51.3138 21.2661C51.1011 21.156 50.9358 21.0615 50.9358 21.0459C50.9358 20.9829 52.2821 19.7635 53.3134 18.8823C54.0534 18.2451 55.6123 16.9942 55.6359 17.0178ZM61.895 19.5905L62.2808 19.8421C63.1624 20.4165 64.2016 21.1796 64.9969 21.8483C65.4455 22.218 66.3115 22.997 66.4849 23.1858L66.5792 23.2882L65.9416 23.4691C62.3358 24.4681 59.5488 25.3572 56.2972 26.5531C55.9351 26.6868 55.628 26.7969 55.6044 26.7969C55.5573 26.7969 55.5178 26.8362 56.3288 26.0888C58.4073 24.1772 60.2494 22.0686 61.6194 20.0152L61.895 19.5905ZM60.2495 19.9995C60.2652 20.0152 59.1866 21.5336 58.541 22.3912C57.7695 23.414 56.3995 25.129 55.4548 26.2461C55.0613 26.7104 54.7228 27.0958 54.707 27.1038C54.6833 27.1116 54.6755 26.9936 54.6755 26.8127C54.6755 25.8606 54.4315 24.8457 54.0062 23.9804C53.8252 23.6185 53.7936 23.5319 53.8331 23.4926C53.9827 23.3588 56.2737 22.0528 57.7222 21.274C58.6985 20.7548 60.2257 19.9838 60.2495 19.9995ZM50.2981 22.4384C50.3217 22.4384 50.5028 22.5328 50.7075 22.643C51.2114 22.9183 51.6601 23.2251 52.0616 23.5556C52.0773 23.5713 51.8727 23.7366 51.605 23.9332C50.8571 24.4681 49.7234 25.3258 49.0622 25.8529C48.3692 26.4036 48.3458 26.4193 48.4244 26.3014C48.9441 25.5067 49.2037 25.0583 49.4794 24.484C49.7234 23.9727 49.9674 23.3668 50.1406 22.8397C50.2036 22.6115 50.2824 22.4384 50.2981 22.4384ZM52.9513 24.5154C52.9906 24.5076 53.038 24.5783 53.2504 24.8931C53.6992 25.5617 54.0456 26.4587 54.1323 27.1825L54.1479 27.3399L53.0695 27.7569C51.1405 28.5042 49.3613 29.2438 48.1566 29.7944C47.8182 29.9519 47.2277 30.235 46.842 30.424C46.4562 30.6205 46.1412 30.77 46.1412 30.7622C46.1412 30.7544 46.3852 30.5734 46.6844 30.353C49.0386 28.6459 51.0776 26.7734 52.6049 24.901C52.7702 24.7042 52.9199 24.5233 52.9355 24.5154L52.9513 24.5154ZM51.731 24.8144C51.7626 24.8459 50.8651 25.8607 50.251 26.4822C48.7315 28.0322 47.2277 29.2438 45.3618 30.424C45.1256 30.5734 44.9131 30.7071 44.8894 30.7229C44.8343 30.7544 44.9051 30.6756 45.724 29.7866C46.2436 29.228 46.6372 28.756 47.086 28.1739C47.3851 27.7884 47.4403 27.7333 47.8734 27.4264C49.0307 26.5924 51.6995 24.7829 51.731 24.8144Z" fill="url(#paint2_radial_170_12052)"/>
<path d="M17.6396 57.3908C17.4943 57.3908 17.349 57.4046 17.2051 57.4046C14.2717 57.5608 12.2932 58.8509 11.1364 61.3702C10.1471 63.6487 10.2551 66.627 11.1475 68.9194C12.1853 71.1594 13.8622 72.3416 16.6613 72.7881C17.2535 72.885 17.6507 73.2099 18.7977 74.5483L20.209 76.2006H22.7688L21.0667 74.486C20.1258 73.5458 19.3648 72.7272 19.3648 72.6553C19.3648 72.5834 19.7248 72.4258 20.1604 72.2931C21.5967 71.8588 22.7894 70.75 23.6237 69.0507C24.2989 67.6861 24.3959 67.2642 24.4926 65.5664C24.7459 60.5128 22.0795 57.3532 17.6394 57.3893L17.6396 57.3908ZM19.8838 70.6064C18.6385 71.2091 16.8302 71.3295 15.6499 70.8967C14.4295 70.4488 13.2479 69.1823 12.7165 67.7484C12.1257 66.1805 12.2101 63.288 12.8853 61.9854C13.9715 59.9114 15.4078 58.9574 17.5067 58.9574C20.6199 58.9574 22.3909 60.8628 22.622 64.4438C22.8047 67.4332 21.8029 69.6759 19.8851 70.6051L19.8838 70.6064ZM64.1022 61.7075C63.0285 61.7075 62.2066 62.1418 61.653 62.9974L61.2186 63.675V61.9134H59.3604V72.4771H61.2174V69.1006C61.2174 66.0131 61.2559 65.6522 61.6877 64.8073C62.2827 63.6487 63.3065 63.0709 64.296 63.3474L64.96 63.541V61.7103H64.1022V61.7075ZM53.1853 61.6106C52.8213 61.6106 52.4352 61.6591 52.0508 61.7435C49.5642 62.3932 48.1626 64.7714 48.2484 67.2188C48.2484 69.268 48.6468 70.2924 49.6363 71.3669C51.6633 73.0288 53.4966 73.1615 55.9705 72.2698C56.3926 72.09 56.8519 71.8826 56.8519 71.8826V70.2207L55.9705 70.677C53.9684 71.548 52.4602 71.548 51.2522 70.522C50.4817 69.7381 50.1426 68.7978 49.9863 67.725H57.4786V66.3007C57.4786 63.3971 55.7298 61.5637 53.1837 61.6106H53.1853ZM50.1551 66.2426C50.1551 66.2426 50.4318 64.4314 51.4585 63.7207C51.9526 63.3722 52.5197 63.2036 53.0745 63.2036C53.6308 63.2036 54.1856 63.3832 54.6436 63.7332C55.5846 64.4563 55.7423 66.2289 55.7423 66.2289H50.1551V66.2426H50.1551ZM5.35691 64.3374C3.3424 63.1178 2.44855 62.2384 2.55785 61.2014C2.8705 58.3323 6.41824 58.7292 8.38292 59.8146L8.3969 57.8845C8.3969 57.8845 7.31068 57.4144 5.75403 57.3894C3.36588 57.3535 1.82173 58.136 1.09819 59.7289C0.0354508 62.0794 0.976446 63.8519 4.3775 65.8293C6.28687 66.9395 7.13081 67.9033 7.13081 68.9541C7.13081 71.1249 4.51162 71.8826 1.80942 70.5206C1.2533 70.2441 0.782798 70.0132 0.757914 70.0132C0.660994 70.6285 0.710954 72.101 0.710954 72.101C0.710954 72.101 1.54118 72.4495 2.78634 72.6899C5.8745 73.3052 8.68478 71.8576 8.9504 69.507C9.1815 67.3004 8.38299 66.143 5.35704 64.3358L5.35691 64.3374ZM80.5481 61.5858C80.1855 61.5858 79.8009 61.6356 79.3996 61.7199C76.9161 62.3698 75.5171 64.748 75.6125 67.1954C75.6125 69.2418 76.0097 70.2566 76.9989 71.3295C79.0261 72.993 80.8594 73.127 83.3458 72.2339C83.7664 72.0542 84.2244 71.8497 84.2244 71.8497V70.1849L83.3445 70.6438C81.3382 71.5122 79.83 71.5122 78.6263 70.4863C77.8514 69.7037 77.5152 68.7745 77.3588 67.689H84.8388V66.2649C84.8388 63.3752 83.0898 61.5403 80.5439 61.5888L80.5481 61.5858ZM77.5179 66.2178C77.5179 66.2178 77.7974 64.4092 78.8226 63.6846C79.3152 63.3349 79.8825 63.1661 80.4373 63.1661C80.9908 63.1661 81.5484 63.3459 82.0065 63.6971C82.9474 64.4202 83.1052 66.2053 83.1052 66.2053H77.5194L77.5179 66.2178ZM43.4582 64.3609C41.4437 63.1441 40.5525 62.2619 40.6605 61.2248C40.9731 58.3543 44.521 58.7526 46.4856 59.8381L46.4995 57.908C46.4995 57.908 45.4133 57.4378 43.8567 57.4156C41.4685 57.3797 39.9244 58.1623 39.1995 59.7551C38.1382 62.1055 39.0915 63.8782 42.4814 65.8555C44.3882 66.9645 45.2321 67.9157 45.2321 68.9665C45.2321 71.1373 42.6143 71.9075 39.912 70.533C39.3586 70.2565 38.8882 70.0283 38.8605 70.0283C38.7636 70.6435 38.8135 72.1162 38.8135 72.1162C38.8135 72.1162 39.6339 72.4522 40.8751 72.7051C43.9661 73.3218 46.7777 71.8755 47.042 69.525C47.2717 67.3293 46.4747 66.172 43.4583 64.3634V64.3609H43.4582ZM91.4664 61.6826C90.3927 61.6826 89.5612 62.1181 89.0174 62.974L88.5828 63.6487V61.89H86.7246V72.4509H88.5814V69.0745C88.5814 65.9883 88.6187 65.626 89.052 64.7826C89.6469 63.6253 90.6707 63.0461 91.66 63.3239L92.3241 63.5174V61.6827L91.4664 61.6826ZM28.681 64.3V57.5718H26.8076V72.4744H34.6861V70.7143H28.6811V64.3H28.681ZM72.0055 66.3975L70.4613 70.4128L68.9766 66.3753L67.4685 61.9011H65.5508C66.7934 65.4214 68.145 69.0024 69.508 72.4744C70.0988 72.4882 70.691 72.4744 71.2817 72.4744L73.367 67.2423L75.4908 61.9024H73.6576C73.6576 61.9024 72.848 64.0235 72.0042 66.3989L72.0055 66.3975ZM32.9979 53.5109C33.2996 53.5109 33.5514 53.4142 33.7589 53.2068C33.9636 53.0021 34.0716 52.7615 34.0716 52.4601C34.0716 52.1587 33.9636 51.907 33.7589 51.7134C33.5514 51.5199 33.312 51.423 33.0117 51.423C32.7074 51.423 32.4555 51.5199 32.2507 51.7245C32.0432 51.9292 31.9491 52.1809 31.9491 52.4712C31.9491 52.7754 32.046 53.027 32.2507 53.2179C32.4445 53.4114 32.6963 53.5082 32.9979 53.5082V53.5109ZM32.3338 51.7965C32.5136 51.6168 32.7323 51.5337 33.0118 51.5337C33.2747 51.5337 33.4934 51.6168 33.676 51.7965C33.8559 51.9762 33.9527 52.1946 33.9527 52.4601C33.9527 52.7256 33.8559 52.9552 33.676 53.1348C33.4934 53.3145 33.2747 53.4003 33.0118 53.4003C32.7447 53.4003 32.5275 53.3173 32.3477 53.1348C32.1678 52.9552 32.071 52.7256 32.071 52.4601C32.071 52.1946 32.154 51.9763 32.3338 51.7965ZM32.7807 52.557H32.9024C32.9883 52.557 33.0726 52.6399 33.1445 52.7976L33.2899 53.1238H33.5182L33.3384 52.7614C33.2651 52.6163 33.1932 52.532 33.1087 52.5083C33.2152 52.4835 33.2996 52.4476 33.3605 52.3756C33.4213 52.3135 33.4435 52.2291 33.4435 52.1336C33.4435 52.0231 33.4089 51.9402 33.3356 51.8793C33.2526 51.8102 33.1197 51.7729 32.9481 51.7729H32.5636V53.1238H32.7572V52.5569L32.7807 52.557ZM32.7807 51.9292H32.9495C33.0713 51.9292 33.1571 51.9541 33.2041 51.99C33.2498 52.0259 33.2623 52.073 33.2623 52.1587C33.2623 52.3149 33.1653 52.3883 32.9855 52.3883H32.778V51.9292H32.7807ZM1.83411 52.4366C1.83411 51.9665 1.82033 51.6168 1.80923 51.4107H1.82033C1.86869 51.6539 1.92822 51.8352 1.97665 51.9554L3.77531 55.9707H4.07698L5.87564 51.9195C5.9242 51.809 5.97263 51.643 6.03209 51.412H6.04588C6.00995 51.8131 5.99751 52.1615 5.99751 52.4393V55.9832H6.6131V50.7152H5.84106L4.18768 54.3793C4.12675 54.5244 4.04234 54.7416 3.93444 55.0292H3.90943C3.87351 54.8867 3.78909 54.6696 3.66876 54.4041L2.05258 50.7026H1.23218V55.9706H1.82435V52.4392L1.83411 52.4366ZM7.96226 52.4464H8.49369V55.7274H7.96226V52.4464ZM8.22794 51.2434C8.33871 51.2434 8.43275 51.206 8.50466 51.1328C8.57804 51.0608 8.62653 50.9669 8.62653 50.8563C8.62653 50.7484 8.59048 50.6516 8.50613 50.5798C8.43141 50.5065 8.3359 50.469 8.2266 50.469C8.11877 50.469 8.02191 50.5065 7.94981 50.5798C7.87669 50.6516 7.82814 50.7484 7.82814 50.8563C7.82814 50.9766 7.86553 51.0608 7.94981 51.1328C8.03302 51.206 8.11871 51.2434 8.2266 51.2434H8.22794ZM12.2821 55.7994V55.2213C11.9915 55.4384 11.6788 55.5464 11.355 55.5464C10.9677 55.5464 10.6535 55.4137 10.4238 55.1594C10.1956 54.9077 10.0738 54.5577 10.0738 54.1222C10.0738 53.666 10.1956 53.3036 10.4473 53.027C10.6895 52.7616 11.0036 52.6288 11.3883 52.6288C11.7024 52.6288 12.0039 52.7258 12.2822 52.9194V52.3041C12.029 52.1714 11.7398 52.1105 11.4132 52.1105C10.8099 52.1105 10.3396 52.3041 9.98813 52.6776C9.63937 53.0508 9.4595 53.5583 9.4595 54.1708C9.4595 54.7155 9.61582 55.1733 9.9411 55.5231C10.28 55.8825 10.7133 56.0651 11.2445 56.0651C11.6553 56.0537 11.9915 55.968 12.2821 55.7994ZM13.8026 54.0503C13.8026 53.6175 13.8995 53.2677 14.0794 53.027C14.2483 52.81 14.4529 52.7008 14.6951 52.7008C14.8999 52.7008 15.0451 52.7381 15.1516 52.8224V52.1946C15.0687 52.1587 14.9483 52.1463 14.7919 52.1463C14.5747 52.1463 14.3811 52.2194 14.2109 52.3537C14.031 52.496 13.8871 52.7132 13.8027 52.9897H13.7889V52.2195H13.1871V55.9804H13.7903V54.0503H13.8026ZM17.2659 56.0551C17.8333 56.0551 18.2899 55.8725 18.6288 55.5104C18.9663 55.1507 19.1351 54.6669 19.1351 54.0639C19.1351 53.4488 18.9803 52.9786 18.6648 52.6287C18.3521 52.2791 17.9175 52.1102 17.3502 52.1102C16.7828 52.1102 16.3263 52.2789 15.9873 52.6052C15.6248 52.9649 15.4339 53.4723 15.4339 54.1235C15.4339 54.6904 15.5889 55.1606 15.9155 55.5104C16.253 55.8725 16.7 56.0537 17.2659 56.0537V56.0551ZM16.4081 52.9911C16.6377 52.7491 16.9395 52.6287 17.3129 52.6287C17.7005 52.6287 17.991 52.7491 18.2068 52.9911C18.424 53.2441 18.5321 53.6051 18.5321 54.0876C18.5321 54.5465 18.4351 54.9074 18.2303 55.1494C18.0256 55.4025 17.724 55.5365 17.3254 55.5365C16.938 55.5365 16.6377 55.4024 16.4081 55.1494C16.1798 54.895 16.0705 54.5465 16.0705 54.0876C16.047 53.6313 16.1674 53.258 16.4081 52.9911ZM21.7767 55.7274C22.0063 55.5229 22.1282 55.2712 22.1282 54.9558C22.1282 54.6792 22.0312 54.4498 21.8514 54.2686C21.7046 54.1236 21.4779 53.9921 21.1499 53.8594C20.8592 53.7378 20.6794 53.6298 20.5825 53.5455C20.4857 53.4487 20.4262 53.3285 20.4262 53.1584C20.4262 53.0022 20.4871 52.8818 20.6062 52.7851C20.7279 52.6884 20.8829 52.6414 21.0904 52.6414C21.4156 52.6414 21.6937 52.727 21.9482 52.9082V52.3053C21.7047 52.1838 21.4404 52.1257 21.1387 52.1257C20.7514 52.1257 20.4248 52.2323 20.184 52.4381C19.9307 52.6429 19.8104 52.9083 19.8104 53.2207C19.8104 53.4972 19.8934 53.7268 20.0511 53.8954C20.1839 54.0392 20.411 54.1859 20.7263 54.3171C21.028 54.4499 21.2328 54.5701 21.342 54.6668C21.4499 54.7637 21.4983 54.8839 21.4983 55.0265C21.4983 55.3776 21.2577 55.5588 20.7872 55.5588C20.4246 55.5588 20.0996 55.4398 19.8089 55.1993V55.849C20.0718 56.0068 20.3873 56.0786 20.7359 56.0786C21.1829 56.0551 21.5329 55.9459 21.7737 55.7288L21.7767 55.7274ZM24.6491 52.1103C24.0817 52.1103 23.6252 52.2791 23.2862 52.6053C22.9264 52.965 22.7327 53.4724 22.7327 54.1236C22.7327 54.6905 22.8892 55.1607 23.2143 55.5105C23.5532 55.8727 23.9987 56.0538 24.5661 56.0538C25.1472 56.0538 25.59 55.8714 25.929 55.509C26.268 55.1495 26.4367 54.6656 26.4367 54.0627C26.4367 53.4474 26.279 52.9774 25.9662 52.6275C25.6399 52.2777 25.2052 52.1089 24.6518 52.1089L24.6491 52.1103ZM25.8196 54.0876C25.8196 54.5466 25.7227 54.9075 25.518 55.1495C25.3132 55.4025 25.0115 55.5366 24.613 55.5366C24.2254 55.5366 23.9253 55.4024 23.6955 55.1495C23.4673 54.8951 23.358 54.5466 23.358 54.0876C23.358 53.6037 23.4785 53.2304 23.7206 52.9786C23.9488 52.7381 24.2506 52.6163 24.6255 52.6163C24.999 52.6163 25.2993 52.7379 25.5165 52.9786C25.7102 53.2441 25.8182 53.605 25.8182 54.0876H25.8196ZM27.4496 55.9694H28.0515V52.7133H28.9328V52.2071H28.0514V51.6264C28.0514 51.0983 28.2561 50.8328 28.6796 50.8328C28.8221 50.8328 28.9674 50.8687 29.0754 50.9296V50.3863C28.9674 50.3379 28.8221 50.3269 28.6407 50.3269C28.3156 50.3269 28.05 50.4238 27.8327 50.6283C27.5795 50.8689 27.4453 51.1814 27.4453 51.6046V52.2213H26.8087V52.7273H27.4453V55.9712L27.4496 55.9694ZM29.9221 54.9434C29.9221 55.6791 30.2473 56.0537 30.9114 56.0537C31.1522 56.0537 31.3334 56.0151 31.4787 55.9293V55.4122C31.3681 55.4953 31.2366 55.534 31.0914 55.534C30.8867 55.534 30.7427 55.4854 30.6582 55.3762C30.5724 55.2685 30.5241 55.0859 30.5241 54.8342V52.7119H31.4787V52.2057H30.5241V51.0969C30.3165 51.1688 30.1132 51.2297 29.9207 51.2904V52.2057H29.2704V52.7118H29.9207V54.9421L29.9221 54.9434ZM94.6764 61.8761C94.4717 61.6826 94.2295 61.5858 93.9293 61.5858C93.625 61.5858 93.373 61.6826 93.1683 61.89C92.9635 62.0932 92.8665 62.3462 92.8665 62.6367C92.8665 62.9381 92.9635 63.1898 93.1667 63.3832C93.3716 63.5768 93.6233 63.6737 93.9278 63.6737C94.228 63.6737 94.4812 63.5768 94.6889 63.3722C94.8923 63.1648 95.0002 62.9256 95.0002 62.6256C94.9891 62.3214 94.8798 62.0697 94.675 61.8762L94.6764 61.8761ZM94.5796 63.3004C94.3997 63.48 94.1811 63.563 93.9154 63.563C93.6526 63.563 93.434 63.48 93.2513 63.3004C93.0715 63.1178 92.9745 62.8897 92.9745 62.6228C92.9745 62.36 93.0576 62.1417 93.2402 61.9592C93.42 61.7795 93.6374 61.6964 93.9154 61.6964C94.1784 61.6964 94.3971 61.7795 94.5796 61.9592C94.7594 62.1417 94.8563 62.36 94.8563 62.6228C94.8563 62.9022 94.7733 63.1178 94.5796 63.3004ZM94.0371 62.685C94.145 62.6601 94.2309 62.6117 94.2904 62.5523C94.3513 62.49 94.3735 62.4056 94.3735 62.3091C94.3735 62.2012 94.3389 62.1154 94.2656 62.056C94.1826 61.9868 94.0484 61.9495 93.8783 61.9495H93.4937V63.2989H93.6874V62.732H93.8077C93.8908 62.732 93.9739 62.8149 94.0484 62.9726L94.1923 63.2975H94.4221L94.2423 62.9351C94.1799 62.7775 94.108 62.7055 94.0348 62.682L94.0371 62.685ZM93.9043 62.5634H93.6968V62.1072H93.867C93.9874 62.1072 94.0718 62.1292 94.1203 62.1666C94.1686 62.2025 94.1797 62.2496 94.1797 62.3353C94.1797 62.4916 94.0829 62.5635 93.9031 62.5635L93.9043 62.5634ZM60.2418 52.0509H60.4107V50.7H60.8574V50.5313H59.795V50.7H60.242V52.0509H60.2418ZM61.2657 51.036C61.2657 50.9046 61.2657 50.7968 61.256 50.7361C61.2671 50.8078 61.292 50.8564 61.3031 50.8923L61.822 52.0509H61.9051L62.4252 50.8811C62.4392 50.8452 62.4503 50.7982 62.4737 50.7361C62.4626 50.8564 62.4626 50.9529 62.4626 51.0264V52.0496H62.6425V50.5313H62.4252L61.9549 51.5794C61.9438 51.6168 61.9063 51.69 61.8828 51.7731H61.869C61.8593 51.7245 61.8345 51.6762 61.7998 51.5934L61.3294 50.5314H61.0859V52.0524H61.256V51.0375L61.2657 51.036Z" fill="#231F1F"/>
<defs>
<linearGradient id="paint0_linear_170_12052" x1="42.4616" y1="46.8335" x2="46.2267" y2="44.6072" gradientUnits="userSpaceOnUse">
<stop stop-color="#909CA9"/>
<stop offset="1" stop-color="#EDEDEE"/>
</linearGradient>
<linearGradient id="paint1_linear_170_12052" x1="42.5474" y1="4.90613" x2="45.5779" y2="4.90613" gradientUnits="userSpaceOnUse">
<stop stop-color="#939FAB"/>
<stop offset="1" stop-color="#DCDEE1"/>
</linearGradient>
<radialGradient id="paint2_radial_170_12052" cx="0" cy="0" r="1" gradientUnits="userSpaceOnUse" gradientTransform="translate(57.8394 18.7954) rotate(-171.463) scale(3.90713 7.81098)">
<stop stop-color="#EE352C"/>
<stop offset="1" stop-color="#A91D22"/>
</radialGradient>
</defs>
</svg>
