<svg width="335" height="47" viewBox="0 0 335 47" fill="none" xmlns="http://www.w3.org/2000/svg">
<mask id="mask0_170_12010" style="mask-type:luminance" maskUnits="userSpaceOnUse" x="0" y="0" width="335" height="47">
<path d="M334.176 0.0583496H0.125977V47H334.176V0.0583496Z" fill="white"/>
</mask>
<g mask="url(#mask0_170_12010)">
<path fill-rule="evenodd" clip-rule="evenodd" d="M0.125977 6.75182L19.3301 4.12558V22.6122H0.125977M21.6431 3.76065L47.087 0.0583496V22.4578H21.6431M0.125977 24.5694H19.3301V43.109L0.125977 40.4297M21.6431 24.8158H47.087V47L21.6431 43.4099" fill="#00AFEF"/>
<path fill-rule="evenodd" clip-rule="evenodd" d="M97.1782 9.88342L89.3811 37.487H85.5882L79.9091 17.313C79.6649 16.4537 79.5177 15.5164 79.4661 14.5027H79.3894C79.3127 15.4525 79.1452 16.3773 78.8885 17.2756L73.1717 37.487H69.4164L61.3313 9.88342H64.8925L70.7642 31.0571C71.0084 31.9429 71.1634 32.8677 71.2276 33.8299H71.323C71.3872 33.1499 71.586 32.2251 71.9195 31.0571L78.0228 9.88342H81.1223L86.9752 31.2114C87.1802 31.9429 87.3336 32.8037 87.4369 33.7909H87.5136C87.5653 33.1234 87.7391 32.2376 88.0333 31.135L93.6749 9.88342H97.1782Z" fill="#00AFEF"/>
<path fill-rule="evenodd" clip-rule="evenodd" d="M102.012 12.7404C101.455 12.7404 100.979 12.5486 100.586 12.1634C100.192 11.7766 99.9961 11.2885 99.9961 10.6974C99.9961 10.1064 100.192 9.61823 100.586 9.23303C100.979 8.83535 101.455 8.63574 102.012 8.63574C102.582 8.63574 103.064 8.83535 103.457 9.23303C103.863 9.61823 104.066 10.1064 104.066 10.6974C104.066 11.2635 103.863 11.7454 103.457 12.1431C103.064 12.5423 102.582 12.7404 102.012 12.7404ZM103.534 37.4869H100.414V17.7511H103.534V37.4869Z" fill="#00AFEF"/>
<path fill-rule="evenodd" clip-rule="evenodd" d="M125.825 37.487H122.683V26.2756C122.683 22.1038 121.165 20.0188 118.125 20.0188C116.555 20.0188 115.252 20.613 114.218 21.8029C113.197 22.9803 112.687 24.4712 112.687 26.2756V37.487H109.545V17.8292H112.687V21.0933H112.763C114.244 18.6105 116.389 17.3691 119.199 17.3691C121.343 17.3691 122.984 18.0663 124.12 19.462C125.257 20.8438 125.825 22.8462 125.825 25.4693V37.487Z" fill="#00AFEF"/>
<path fill-rule="evenodd" clip-rule="evenodd" d="M148.209 37.4929H145.055V34.1446H144.978C143.516 36.6851 141.259 37.9545 138.206 37.9545C135.732 37.9545 133.751 37.0765 132.263 35.3189C130.788 33.5489 130.051 31.1425 130.051 28.103C130.051 24.8452 130.871 22.2345 132.513 20.2727C134.154 18.3092 136.341 17.3283 139.072 17.3283C141.779 17.3283 143.746 18.3934 144.978 20.5222H145.055V8.32361H148.209V37.4929ZM145.055 28.5849V25.6795C145.055 24.0888 144.529 22.7414 143.477 21.6388C142.425 20.5347 141.091 19.9842 139.476 19.9842C137.552 19.9842 136.04 20.6891 134.936 22.1004C133.834 23.5118 133.282 25.4612 133.282 27.9486C133.282 30.2193 133.808 32.0159 134.86 33.3368C135.924 34.6452 137.347 35.2987 139.13 35.2987C140.886 35.2987 142.311 34.6639 143.4 33.3945C144.504 32.125 145.055 30.5218 145.055 28.5849Z" fill="#00AFEF"/>
<path fill-rule="evenodd" clip-rule="evenodd" d="M162.417 37.9547C159.478 37.9547 157.13 37.0393 155.369 35.2084C153.622 33.365 152.749 30.9259 152.749 27.8927C152.749 24.5896 153.662 22.0102 155.487 20.1528C157.31 18.2969 159.776 17.369 162.882 17.369C165.845 17.369 168.155 18.272 169.813 20.0763C171.482 21.8823 172.316 24.3853 172.316 27.5854C172.316 30.7216 171.417 33.2372 169.619 35.132C167.833 37.0143 165.432 37.9547 162.417 37.9547ZM162.65 20.0186C160.604 20.0186 158.987 20.7111 157.796 22.0928C156.606 23.4621 156.01 25.3569 156.01 27.7773C156.01 30.1072 156.612 31.9443 157.816 33.2886C159.018 34.6329 160.631 35.3051 162.65 35.3051C164.707 35.3051 166.286 34.6454 167.387 33.326C168.498 32.0082 169.055 30.1321 169.055 27.7009C169.055 25.243 168.498 23.3482 167.387 22.0164C166.286 20.6846 164.707 20.0186 162.65 20.0186Z" fill="#00AFEF"/>
<path fill-rule="evenodd" clip-rule="evenodd" d="M201.744 17.8368L195.804 37.4868H192.515L188.432 23.4214C188.278 22.8834 188.174 22.2752 188.123 21.5984H188.046C188.007 22.0584 187.872 22.6526 187.639 23.3825L183.209 37.4868H180.036L174.037 17.8368H177.365L181.467 32.6133C181.597 33.0608 181.686 33.6488 181.737 34.3786H181.892C181.932 33.8156 182.047 33.2137 182.241 32.5743L186.808 17.8368H189.71L193.811 32.6507C193.941 33.1248 194.036 33.7127 194.102 34.4161H194.256C194.282 33.917 194.392 33.3291 194.586 32.6507L198.611 17.8368H201.744Z" fill="#00AFEF"/>
<path fill-rule="evenodd" clip-rule="evenodd" d="M203.624 36.7835V33.404C205.354 34.6703 207.259 35.3051 209.337 35.3051C212.125 35.3051 213.52 34.3834 213.52 32.5401C213.52 32.0145 213.396 31.5731 213.152 31.2145C212.919 30.8433 212.596 30.5173 212.183 30.2351C211.782 29.9528 211.305 29.7033 210.751 29.4865C210.208 29.2557 209.621 29.0187 208.988 28.7754C208.11 28.4307 207.335 28.0845 206.664 27.7383C206.006 27.3796 205.451 26.9835 205 26.5484C204.56 26.1008 204.225 25.5939 203.992 25.031C203.773 24.468 203.663 23.8083 203.663 23.0535C203.663 22.1318 203.876 21.3177 204.302 20.6144C204.727 19.897 205.296 19.3028 206.006 18.8287C206.715 18.3422 207.523 17.9772 208.426 17.7339C209.344 17.4907 210.286 17.369 211.253 17.369C212.971 17.369 214.508 17.6638 215.863 18.2517V21.4394C214.404 20.4927 212.725 20.0186 210.828 20.0186C210.234 20.0186 209.699 20.0888 209.22 20.2307C208.743 20.3586 208.329 20.5442 207.982 20.7875C207.645 21.0308 207.381 21.3255 207.187 21.6702C207.007 22.0039 206.916 22.3751 206.916 22.7837C206.916 23.2968 207.007 23.7256 207.187 24.0703C207.381 24.4165 207.658 24.7237 208.019 24.992C208.381 25.2618 208.819 25.5051 209.337 25.7218C209.852 25.9402 210.441 26.1772 211.098 26.433C211.977 26.7651 212.764 27.1114 213.462 27.47C214.159 27.8147 214.752 28.2124 215.244 28.66C215.733 29.0951 216.108 29.6019 216.366 30.1774C216.637 30.7528 216.773 31.439 216.773 32.2328C216.773 33.2044 216.554 34.0497 216.114 34.7671C215.688 35.4844 215.114 36.0786 214.392 36.5527C213.669 37.0268 212.834 37.3792 211.894 37.6085C210.95 37.8393 209.962 37.9547 208.93 37.9547C206.891 37.9547 205.122 37.5648 203.624 36.7835Z" fill="#00AFEF"/>
<path fill-rule="evenodd" clip-rule="evenodd" d="M230.548 36.3747V32.5633C230.985 32.9485 231.506 33.2947 232.109 33.6019C232.727 33.9107 233.369 34.1743 234.037 34.3926C234.718 34.5969 235.399 34.7575 236.08 34.8729C236.761 34.9883 237.39 35.046 237.969 35.046C239.96 35.046 241.444 34.6811 242.421 33.9497C243.41 33.2042 243.905 32.1391 243.905 30.7527C243.905 30.0072 243.738 29.36 243.404 28.8079C243.082 28.2559 242.632 27.7553 242.055 27.3046C241.476 26.8429 240.789 26.4063 239.992 25.9961C239.207 25.5719 238.361 25.129 237.448 24.6674C236.484 24.1793 235.585 23.6849 234.749 23.1843C233.915 22.6837 233.189 22.1316 232.572 21.5281C231.955 20.9246 231.467 20.2446 231.107 19.4867C230.759 18.7163 230.587 17.818 230.587 16.7903C230.587 15.5333 230.862 14.4416 231.415 13.5168C231.968 12.5796 232.694 11.8091 233.594 11.2056C234.493 10.6021 235.515 10.1529 236.657 9.85818C237.814 9.56343 238.99 9.41528 240.186 9.41528C242.91 9.41528 244.894 9.74279 246.141 10.3978V14.0377C244.509 12.9071 242.413 12.3425 239.857 12.3425C239.151 12.3425 238.444 12.4189 237.738 12.5733C237.03 12.7152 236.401 12.9523 235.848 13.286C235.296 13.6197 234.846 14.0502 234.499 14.5757C234.153 15.1029 233.979 15.7438 233.979 16.5017C233.979 17.2082 234.107 17.818 234.364 18.3311C234.635 18.8442 235.026 19.3136 235.54 19.7377C236.055 20.1604 236.676 20.5721 237.41 20.9698C238.156 21.3675 239.009 21.8041 239.973 22.2798C240.962 22.7663 241.9 23.281 242.787 23.819C243.673 24.3586 244.451 24.9559 245.118 25.6109C245.787 26.2659 246.314 26.9911 246.699 27.7865C247.098 28.5834 247.297 29.4941 247.297 30.5218C247.297 31.8818 247.026 33.0374 246.488 33.9871C245.96 34.9244 245.24 35.6885 244.329 36.2796C243.429 36.8691 242.388 37.2933 241.206 37.5506C240.025 37.8204 238.779 37.9545 237.467 37.9545C237.03 37.9545 236.492 37.9155 235.848 37.8391C235.206 37.7752 234.551 37.6723 233.882 37.5303C233.214 37.4025 232.578 37.2418 231.974 37.05C231.384 36.8441 230.908 36.6196 230.548 36.3747Z" fill="#00AFEF"/>
<path fill-rule="evenodd" clip-rule="evenodd" d="M267.803 28.4494H253.862C253.914 30.639 254.505 32.328 255.636 33.5194C256.767 34.7094 258.323 35.3051 260.302 35.3051C262.526 35.3051 264.571 34.5752 266.434 33.1155V36.0724C264.699 37.3278 262.404 37.9547 259.551 37.9547C256.761 37.9547 254.57 37.0642 252.974 35.2848C251.381 33.4929 250.584 30.9774 250.584 27.7383C250.584 24.6785 251.451 22.1895 253.187 20.2682C254.936 18.3359 257.101 17.369 259.685 17.369C262.27 17.369 264.269 18.2018 265.682 19.8658C267.096 21.5298 267.803 23.841 267.803 26.7979V28.4494ZM264.564 25.7795C264.55 23.9627 264.107 22.5482 263.234 21.5361C262.371 20.5239 261.171 20.0186 259.627 20.0186C258.137 20.0186 256.871 20.5504 255.83 21.6125C254.787 22.6761 254.145 24.0641 253.901 25.7795H264.564Z" fill="#00AFEF"/>
<path fill-rule="evenodd" clip-rule="evenodd" d="M282.362 21.0494C281.808 20.6283 281.008 20.4178 279.964 20.4178C278.608 20.4178 277.473 21.0494 276.557 22.3142C275.654 23.579 275.203 25.3022 275.203 27.4871V37.4868H272.03V17.8696H275.203V21.9118H275.282C275.732 20.5332 276.421 19.4603 277.351 18.693C278.279 17.9148 279.317 17.5249 280.466 17.5249C281.291 17.5249 281.923 17.6138 282.362 17.7931V21.0494Z" fill="#00AFEF"/>
<path fill-rule="evenodd" clip-rule="evenodd" d="M300.834 17.8369L292.958 37.4869H289.851L282.362 17.8369H285.836L290.854 32.1143C291.229 33.1623 291.46 34.0778 291.549 34.8575H291.626C291.755 33.8735 291.961 32.983 292.244 32.1908L297.495 17.8369H300.834Z" fill="#00AFEF"/>
<path fill-rule="evenodd" clip-rule="evenodd" d="M319.617 28.4493H305.676C305.728 30.6389 306.32 32.3278 307.45 33.5193C308.582 34.7092 310.138 35.305 312.116 35.305C314.341 35.305 316.385 34.5751 318.249 33.1154V36.0723C316.513 37.3277 314.219 37.9546 311.365 37.9546C308.575 37.9546 306.384 37.0641 304.79 35.2847C303.195 33.4928 302.398 30.9773 302.398 27.7382C302.398 24.6784 303.267 22.1894 305.002 20.268C306.75 18.3358 308.917 17.3689 311.499 17.3689C314.084 17.3689 316.083 18.2017 317.496 19.8657C318.911 21.5297 319.617 23.8409 319.617 26.7978V28.4493ZM316.379 25.7794C316.366 23.9626 315.922 22.5481 315.048 21.5359C314.186 20.5238 312.985 20.0185 311.442 20.0185C309.951 20.0185 308.685 20.5503 307.644 21.6123C306.603 22.6759 305.96 24.0639 305.715 25.7794H316.379Z" fill="#00AFEF"/>
<path fill-rule="evenodd" clip-rule="evenodd" d="M334.175 21.0494C333.621 20.6283 332.821 20.4178 331.775 20.4178C330.421 20.4178 329.287 21.0494 328.371 22.3142C327.468 23.579 327.017 25.3022 327.017 27.4871V37.4868H323.844V17.8696H327.017V21.9118H327.093C327.546 20.5332 328.236 19.4603 329.164 18.693C330.093 17.9148 331.131 17.5249 332.28 17.5249C333.104 17.5249 333.737 17.6138 334.175 17.7931V21.0494Z" fill="#00AFEF"/>
</g>
</svg>
