<svg width="31" height="32" viewBox="0 0 31 32" fill="currenColor" xmlns="http://www.w3.org/2000/svg">
<path d="M15.7581 22.9492C14.8539 22.9492 13.9369 22.6004 13.2523 21.9158C12.5806 21.2441 12.206 20.3529 12.206 19.41C12.206 18.4671 12.5806 17.5629 13.2523 16.9042L15.0735 15.0829C15.4481 14.7083 16.0681 14.7083 16.4427 15.0829C16.8172 15.4575 16.8172 16.0775 16.4427 16.4521L14.6214 18.2733C14.3114 18.5833 14.1435 18.9838 14.1435 19.41C14.1435 19.8363 14.3114 20.2496 14.6214 20.5466C15.2544 21.1796 16.2748 21.1796 16.9077 20.5466L19.7752 17.6791C21.4156 16.0387 21.4156 13.3779 19.7752 11.7375C18.1348 10.0971 15.474 10.0971 13.8335 11.7375L10.7077 14.8633C10.0489 15.5221 9.68727 16.3875 9.68727 17.3046C9.68727 18.2217 10.0489 19.1 10.7077 19.7458C11.0822 20.1204 11.0822 20.7404 10.7077 21.115C10.3331 21.4896 9.71307 21.4896 9.33849 21.115C8.31807 20.0946 7.7627 18.7383 7.7627 17.2917C7.7627 15.845 8.31807 14.4887 9.33849 13.4683L12.4644 10.3425C14.854 7.9529 18.7548 7.9529 21.1443 10.3425C23.5339 12.7321 23.5339 16.6329 21.1443 19.0225L18.2769 21.89C17.5794 22.6004 16.6752 22.9492 15.7581 22.9492Z" fill="currenColor"/>
<path d="M15.4999 29.8853C7.84034 29.8853 1.6145 23.6595 1.6145 15.9999C1.6145 8.34034 7.84034 2.1145 15.4999 2.1145C23.1595 2.1145 29.3853 8.34034 29.3853 15.9999C29.3853 23.6595 23.1595 29.8853 15.4999 29.8853ZM15.4999 4.052C8.91242 4.052 3.552 9.41242 3.552 15.9999C3.552 22.5874 8.91242 27.9478 15.4999 27.9478C22.0874 27.9478 27.4478 22.5874 27.4478 15.9999C27.4478 9.41242 22.0874 4.052 15.4999 4.052Z" fill="currenColor"/>
</svg>
