<svg width="90" height="90" viewBox="0 0 90 90" fill="none" xmlns="http://www.w3.org/2000/svg">
<path d="M45 85.3125C22.7625 85.3125 4.6875 67.2375 4.6875 45C4.6875 22.7625 22.7625 4.6875 45 4.6875C67.2375 4.6875 85.3125 22.7625 85.3125 45C85.3125 67.2375 67.2375 85.3125 45 85.3125ZM45 10.3125C25.875 10.3125 10.3125 25.875 10.3125 45C10.3125 64.125 25.875 79.6875 45 79.6875C64.125 79.6875 79.6875 64.125 79.6875 45C79.6875 25.875 64.125 10.3125 45 10.3125Z" fill="currentColor"/>
<path d="M58.9125 59.7375C58.425 59.7375 57.9375 59.625 57.4875 59.325L45.8625 52.3875C42.975 50.6625 40.8375 46.875 40.8375 43.5375V28.1625C40.8375 26.625 42.1125 25.35 43.65 25.35C45.1875 25.35 46.4625 26.625 46.4625 28.1625V43.5375C46.4625 44.8875 47.5875 46.875 48.75 47.55L60.375 54.4875C61.725 55.275 62.1375 57 61.35 58.35C60.7875 59.25 59.85 59.7375 58.9125 59.7375Z" fill="currentColor"/>
</svg>
