<svg width="32" height="32" viewBox="0 0 32 32" fill="none" xmlns="http://www.w3.org/2000/svg">
<path fill-rule="evenodd" clip-rule="evenodd" d="M5.96663 0.987343C4.64929 -0.330416 2.51346 -0.330416 1.19612 0.987343C-0.121215 2.3051 -0.121217 4.44161 1.19612 5.75937L11.3285 15.895L0.988004 26.2387C-0.329335 27.5565 -0.329335 29.693 0.988004 31.0108C2.30534 32.3285 4.44117 32.3285 5.75851 31.0108L16.099 20.667L26.2413 30.8125C27.5586 32.1303 29.6944 32.1303 31.0118 30.8125C32.3291 29.4948 32.3291 27.3582 31.0118 26.0405L20.8695 15.895L30.8037 5.95762C32.121 4.63986 32.121 2.50335 30.8037 1.18559C29.4863 -0.132168 27.3505 -0.13217 26.0331 1.18559L16.099 11.1229L5.96663 0.987343Z" fill="currentColor"/>
</svg>
