<svg width="76" height="76" viewBox="0 0 76 76" fill="none" xmlns="http://www.w3.org/2000/svg">
<path d="M6.90909 0C3.09182 0 0 3.09182 0 6.90909V17.2727C0 19.1796 1.54764 20.7273 3.45455 20.7273H72.5455C74.4524 20.7273 76 19.1796 76 17.2727V6.90909C76 3.09182 72.9082 0 69.0909 0H6.90909ZM3.45455 27.6364C1.54764 27.6364 0 29.184 0 31.0909V44.9091C0 46.816 1.54764 48.3636 3.45455 48.3636H72.5455C74.4524 48.3636 76 46.816 76 44.9091V31.0909C76 29.184 74.4524 27.6364 72.5455 27.6364H3.45455ZM3.45455 55.2727C1.54764 55.2727 0 56.8204 0 58.7273V69.0909C0 72.9082 3.09182 76 6.90909 76H69.0909C72.9082 76 76 72.9082 76 69.0909V58.7273C76 56.8204 74.4524 55.2727 72.5455 55.2727H3.45455Z" fill="currentColor"/>
</svg>
