<svg width="90" height="90" viewBox="0 0 90 90" fill="none" xmlns="http://www.w3.org/2000/svg">
<path d="M50.2501 65.325H40.8376C34.6876 65.325 29.7001 60.15 29.7001 53.775C29.7001 52.2375 30.9751 50.9625 32.5126 50.9625C34.0501 50.9625 35.3251 52.2375 35.3251 53.775C35.3251 57.0375 37.8001 59.7 40.8376 59.7H50.2501C52.6876 59.7 54.7126 57.525 54.7126 54.9C54.7126 51.6375 53.5501 51 51.6376 50.325L36.5251 45C33.6001 43.9875 29.6626 41.8125 29.6626 35.1C29.6626 29.325 34.2001 24.675 39.7501 24.675H49.1626C55.3126 24.675 60.3001 29.85 60.3001 36.225C60.3001 37.7625 59.0251 39.0375 57.4876 39.0375C55.9501 39.0375 54.6751 37.7625 54.6751 36.225C54.6751 32.9625 52.2001 30.3 49.1626 30.3H39.7501C37.3126 30.3 35.2876 32.475 35.2876 35.1C35.2876 38.3625 36.4501 39 38.3626 39.675L53.4751 45C56.4001 46.0125 60.3376 48.1875 60.3376 54.9C60.3001 60.6375 55.8001 65.325 50.2501 65.325Z" fill="currentColor"/>
<path d="M45 70.3125C43.4625 70.3125 42.1875 69.0375 42.1875 67.5V22.5C42.1875 20.9625 43.4625 19.6875 45 19.6875C46.5375 19.6875 47.8125 20.9625 47.8125 22.5V67.5C47.8125 69.0375 46.5375 70.3125 45 70.3125Z" fill="currentColor"/>
<path d="M45 85.3125C22.7625 85.3125 4.6875 67.2375 4.6875 45C4.6875 22.7625 22.7625 4.6875 45 4.6875C67.2375 4.6875 85.3125 22.7625 85.3125 45C85.3125 67.2375 67.2375 85.3125 45 85.3125ZM45 10.3125C25.875 10.3125 10.3125 25.875 10.3125 45C10.3125 64.125 25.875 79.6875 45 79.6875C64.125 79.6875 79.6875 64.125 79.6875 45C79.6875 25.875 64.125 10.3125 45 10.3125Z" fill="currentColor"/>
</svg>
