<svg width="46" height="46" viewBox="0 0 46 46" fill="none" xmlns="http://www.w3.org/2000/svg">
<path d="M8.23459 30V17.706H16.4066V19.776H10.7186V22.764H15.3266V24.798H10.7186V27.93H16.4066V30H8.23459ZM18.1486 30V17.706H22.9546C23.9386 17.706 24.7606 17.832 25.4206 18.084C26.0926 18.336 26.5906 18.756 26.9146 19.344C27.2506 19.932 27.4186 20.73 27.4186 21.738C27.4186 22.626 27.2566 23.376 26.9326 23.988C26.6206 24.588 26.1406 25.032 25.4926 25.32L27.4186 30H24.8086L23.1886 25.878H20.6326V30H18.1486ZM20.6326 23.844H23.0086C23.4646 23.844 23.8306 23.76 24.1066 23.592C24.3826 23.412 24.5806 23.166 24.7006 22.854C24.8206 22.53 24.8806 22.164 24.8806 21.756C24.8806 21.084 24.7246 20.58 24.4126 20.244C24.1006 19.908 23.6146 19.74 22.9546 19.74H20.6326V23.844ZM29.2404 30V17.706H33.8664C34.8864 17.706 35.7324 17.85 36.4044 18.138C37.0764 18.414 37.5804 18.864 37.9164 19.488C38.2644 20.112 38.4384 20.946 38.4384 21.99C38.4384 23.034 38.2644 23.886 37.9164 24.546C37.5804 25.194 37.0764 25.674 36.4044 25.986C35.7324 26.286 34.8864 26.436 33.8664 26.436H31.7244V30H29.2404ZM31.7244 24.402H33.7944C34.5504 24.402 35.0904 24.204 35.4144 23.808C35.7384 23.4 35.9004 22.8 35.9004 22.008C35.9004 21.192 35.7384 20.61 35.4144 20.262C35.0904 19.914 34.5504 19.74 33.7944 19.74H31.7244V24.402Z" fill="currentColor"/>
<rect x="1" y="1" width="44" height="44" rx="22" stroke="currentColor" stroke-width="2"/>
</svg>
