<svg width="18" height="18" viewBox="0 0 18 18" fill="none" xmlns="http://www.w3.org/2000/svg">
<path d="M12.7423 7.28223H5.25732C4.94982 7.28223 4.69482 7.02723 4.69482 6.71973C4.69482 6.41223 4.94982 6.15723 5.25732 6.15723H12.7423C13.0498 6.15723 13.3048 6.41223 13.3048 6.71973C13.3048 7.02723 13.0498 7.28223 12.7423 7.28223Z" fill="currentColor"/>
<path d="M9 7.28246C8.6925 7.28246 8.4375 7.02746 8.4375 6.71996V5.45996C8.4375 5.15246 8.6925 4.89746 9 4.89746C9.3075 4.89746 9.5625 5.15246 9.5625 5.45996V6.71996C9.5625 7.02746 9.3075 7.28246 9 7.28246Z" fill="currentColor"/>
<path d="M5.25 13.1026C4.9425 13.1026 4.6875 12.8476 4.6875 12.5401C4.6875 12.2326 4.9425 11.9776 5.25 11.9776C8.04 11.9776 10.3125 9.61508 10.3125 6.70508C10.3125 6.39758 10.5675 6.14258 10.875 6.14258C11.1825 6.14258 11.4375 6.39758 11.4375 6.70508C11.4375 10.2376 8.6625 13.1026 5.25 13.1026Z" fill="currentColor"/>
<path d="M12.7502 13.1024C11.2727 13.1024 9.90017 12.3675 8.89517 11.025C8.70767 10.7775 8.76019 10.425 9.00769 10.2375C9.25519 10.05 9.60768 10.1024 9.79518 10.3499C10.5902 11.3999 11.6402 11.9774 12.7577 11.9774C13.0652 11.9774 13.3202 12.2324 13.3202 12.5399C13.3202 12.8474 13.0577 13.1024 12.7502 13.1024Z" fill="currentColor"/>
<path d="M9 17.0625C4.5525 17.0625 0.9375 13.4475 0.9375 9C0.9375 4.5525 4.5525 0.9375 9 0.9375C13.4475 0.9375 17.0625 4.5525 17.0625 9C17.0625 13.4475 13.4475 17.0625 9 17.0625ZM9 2.0625C5.175 2.0625 2.0625 5.175 2.0625 9C2.0625 12.825 5.175 15.9375 9 15.9375C12.825 15.9375 15.9375 12.825 15.9375 9C15.9375 5.175 12.825 2.0625 9 2.0625Z" fill="currentColor"/>
</svg>
