<svg width="90" height="90" viewBox="0 0 90 90" fill="none" xmlns="http://www.w3.org/2000/svg">
<path d="M67.5 40.3125C65.9625 40.3125 64.6875 39.0375 64.6875 37.5V30C64.6875 18.1875 61.35 10.3125 45 10.3125C28.65 10.3125 25.3125 18.1875 25.3125 30V37.5C25.3125 39.0375 24.0375 40.3125 22.5 40.3125C20.9625 40.3125 19.6875 39.0375 19.6875 37.5V30C19.6875 19.125 22.3125 4.6875 45 4.6875C67.6875 4.6875 70.3125 19.125 70.3125 30V37.5C70.3125 39.0375 69.0375 40.3125 67.5 40.3125Z" fill="currentColor"/>
<path d="M63.75 85.3125H26.25C9.7125 85.3125 4.6875 80.2875 4.6875 63.75V56.25C4.6875 39.7125 9.7125 34.6875 26.25 34.6875H63.75C80.2875 34.6875 85.3125 39.7125 85.3125 56.25V63.75C85.3125 80.2875 80.2875 85.3125 63.75 85.3125ZM26.25 40.3125C12.825 40.3125 10.3125 42.8625 10.3125 56.25V63.75C10.3125 77.1375 12.825 79.6875 26.25 79.6875H63.75C77.175 79.6875 79.6875 77.1375 79.6875 63.75V56.25C79.6875 42.8625 77.175 40.3125 63.75 40.3125H26.25Z" fill="currentColor"/>
<path d="M30 63.75C29.5125 63.75 29.025 63.6376 28.575 63.4501C28.0875 63.2626 27.7125 63 27.3375 62.6625C26.6625 61.95 26.25 61.0125 26.25 60C26.25 59.5125 26.3624 59.025 26.5499 58.575C26.7374 58.0875 27 57.7125 27.3375 57.3375C27.7125 57 28.0875 56.7375 28.575 56.55C29.925 55.95 31.6125 56.2875 32.6625 57.3375C33 57.7125 33.2626 58.125 33.4501 58.575C33.6376 59.025 33.75 59.5125 33.75 60C33.75 60.975 33.3375 61.95 32.6625 62.6625C31.95 63.3375 30.975 63.75 30 63.75Z" fill="currentColor"/>
<path d="M45 63.7502C44.025 63.7502 43.05 63.3376 42.3375 62.6626C41.6625 61.9501 41.25 61.0127 41.25 60.0002C41.25 59.5127 41.3249 59.0251 41.5499 58.5751C41.7374 58.1251 42 57.7127 42.3375 57.3377C43.2 56.4752 44.5125 56.0626 45.7125 56.3251C45.975 56.3626 46.2 56.4376 46.425 56.5501C46.65 56.6251 46.875 56.7377 47.1 56.8877C47.2875 57.0002 47.475 57.1877 47.6625 57.3377C48 57.7127 48.2626 58.1251 48.4501 58.5751C48.6376 59.0251 48.75 59.5127 48.75 60.0002C48.75 61.0127 48.3375 61.9501 47.6625 62.6626C47.475 62.8126 47.2875 62.9626 47.1 63.1126C46.875 63.2626 46.65 63.3752 46.425 63.4502C46.2 63.5627 45.975 63.6377 45.7125 63.6752C45.4875 63.7127 45.225 63.7502 45 63.7502Z" fill="#1B6CA8"/>
<path d="M60 63.7502C58.9875 63.7502 58.05 63.3376 57.3375 62.6626C57 62.2876 56.7374 61.8752 56.5499 61.4252C56.3624 60.9752 56.25 60.4877 56.25 60.0002C56.25 59.0252 56.6625 58.0502 57.3375 57.3377C57.525 57.1877 57.7125 57.0377 57.9 56.8877C58.125 56.7377 58.35 56.6251 58.575 56.5501C58.8 56.4376 59.025 56.3626 59.25 56.3251C60.4875 56.0626 61.7625 56.4752 62.6625 57.3377C63.3375 58.0502 63.75 58.9877 63.75 60.0002C63.75 60.4877 63.6376 60.9752 63.4501 61.4252C63.2626 61.9127 63 62.2876 62.6625 62.6626C61.95 63.3376 60.975 63.7502 60 63.7502Z" fill="#1B6CA8"/>
</svg>
