<svg width="42" height="42" viewBox="0 0 42 42" fill="none" xmlns="http://www.w3.org/2000/svg">
<path d="M26.25 39.8125H15.75C8.0325 39.8125 5.6875 37.4675 5.6875 29.75V12.25C5.6875 4.5325 8.0325 2.1875 15.75 2.1875H26.25C33.9675 2.1875 36.3125 4.5325 36.3125 12.25V29.75C36.3125 37.4675 33.9675 39.8125 26.25 39.8125ZM15.75 4.8125C9.485 4.8125 8.3125 6.0025 8.3125 12.25V29.75C8.3125 35.9975 9.485 37.1875 15.75 37.1875H26.25C32.515 37.1875 33.6875 35.9975 33.6875 29.75V12.25C33.6875 6.0025 32.515 4.8125 26.25 4.8125H15.75Z" fill="currentColor"/>
<path d="M24.5 10.9375H17.5C16.7825 10.9375 16.1875 10.3425 16.1875 9.625C16.1875 8.9075 16.7825 8.3125 17.5 8.3125H24.5C25.2175 8.3125 25.8125 8.9075 25.8125 9.625C25.8125 10.3425 25.2175 10.9375 24.5 10.9375Z" fill="currentColor"/>
<path d="M21 34.7551C18.7775 34.7551 16.975 32.9526 16.975 30.7301C16.975 28.5076 18.7775 26.7051 21 26.7051C23.2225 26.7051 25.025 28.5076 25.025 30.7301C25.025 32.9526 23.2225 34.7551 21 34.7551ZM21 29.3126C20.23 29.3126 19.6 29.9426 19.6 30.7126C19.6 31.4826 20.23 32.1126 21 32.1126C21.77 32.1126 22.4 31.4826 22.4 30.7126C22.4 29.9426 21.77 29.3126 21 29.3126Z" fill="currentColor"/>
</svg>
