<svg width="90" height="90" viewBox="0 0 90 90" fill="currentColor" xmlns="http://www.w3.org/2000/svg">
<path d="M32.1366 60.075C31.4241 60.075 30.7116 59.8125 30.1491 59.25C29.0616 58.1625 29.0616 56.3626 30.1491 55.2751L54.7116 30.7126C55.7991 29.6251 57.5991 29.6251 58.6866 30.7126C59.7741 31.8001 59.7741 33.6001 58.6866 34.6876L34.1241 59.25C33.5616 59.8125 32.8491 60.075 32.1366 60.075Z" fill="currentColor"/>
<path d="M33.675 41.6626C29.5875 41.6626 26.25 38.3252 26.25 34.2377C26.25 30.1502 29.5875 26.8126 33.675 26.8126C37.7625 26.8126 41.1 30.1502 41.1 34.2377C41.1 38.3252 37.7625 41.6626 33.675 41.6626ZM33.675 32.4752C32.7 32.4752 31.875 33.2627 31.875 34.2752C31.875 35.2877 32.6625 36.0751 33.675 36.0751C34.6875 36.0751 35.475 35.2877 35.475 34.2752C35.475 33.2627 34.65 32.4752 33.675 32.4752Z" fill="currentColor"/>
<path d="M58.2001 63.15C54.1126 63.15 50.7751 59.8125 50.7751 55.725C50.7751 51.6375 54.1126 48.3 58.2001 48.3C62.2876 48.3 65.6251 51.6375 65.6251 55.725C65.6251 59.8125 62.2876 63.15 58.2001 63.15ZM58.2001 53.9626C57.2251 53.9626 56.4001 54.75 56.4001 55.7625C56.4001 56.775 57.1876 57.5626 58.2001 57.5626C59.2126 57.5626 60.0001 56.775 60.0001 55.7625C60.0001 54.75 59.2126 53.9626 58.2001 53.9626Z" fill="currentColor"/>
<path d="M45 85.3125C22.7625 85.3125 4.6875 67.2375 4.6875 45C4.6875 22.7625 22.7625 4.6875 45 4.6875C67.2375 4.6875 85.3125 22.7625 85.3125 45C85.3125 67.2375 67.2375 85.3125 45 85.3125ZM45 10.3125C25.875 10.3125 10.3125 25.875 10.3125 45C10.3125 64.125 25.875 79.6875 45 79.6875C64.125 79.6875 79.6875 64.125 79.6875 45C79.6875 25.875 64.125 10.3125 45 10.3125Z" fill="currentColor"/>
</svg>
