<svg width="46" height="46" viewBox="0 0 46 46" fill="none" xmlns="http://www.w3.org/2000/svg">
<path d="M10.3578 28.143C9.62975 28.143 9.01009 28.0477 8.49875 27.857C7.99609 27.6663 7.61475 27.35 7.35475 26.908C7.09475 26.4573 6.96475 25.8593 6.96475 25.114V19.121H8.75875V25.179C8.75875 25.6903 8.89309 26.0587 9.16175 26.284C9.43909 26.5093 9.83775 26.622 10.3578 26.622C10.9038 26.622 11.3154 26.5093 11.5928 26.284C11.8701 26.0587 12.0088 25.6903 12.0088 25.179V19.121H13.8028V25.088C13.8028 25.8333 13.6684 26.4313 13.3998 26.882C13.1398 27.3327 12.7541 27.6577 12.2428 27.857C11.7401 28.0477 11.1118 28.143 10.3578 28.143ZM15.3703 28V19.121H17.1643V28H15.3703ZM19.9677 28.494L18.3297 28.065L22.0997 18.731L23.7377 19.16L19.9677 28.494ZM28.2201 28.143C27.4921 28.143 26.8724 28.0477 26.3611 27.857C25.8584 27.6663 25.4771 27.35 25.2171 26.908C24.9571 26.4573 24.8271 25.8593 24.8271 25.114V19.121H26.6211V25.179C26.6211 25.6903 26.7554 26.0587 27.0241 26.284C27.3014 26.5093 27.7001 26.622 28.2201 26.622C28.7661 26.622 29.1777 26.5093 29.4551 26.284C29.7324 26.0587 29.8711 25.6903 29.8711 25.179V19.121H31.6651V25.088C31.6651 25.8333 31.5307 26.4313 31.2621 26.882C31.0021 27.3327 30.6164 27.6577 30.1051 27.857C29.6024 28.0477 28.9741 28.143 28.2201 28.143ZM32.5176 28L34.9356 23.684L32.5176 19.121H34.4156L36.1056 22.384L37.8866 19.121H39.7196L37.2886 23.515L39.6676 28H37.7566L36.0926 24.828L34.3766 28H32.5176Z" fill="currentColor"/>
<rect x="1" y="1" width="44" height="44" rx="22" stroke="currentColor" stroke-width="2"/>
</svg>
