<svg width="42" height="42" viewBox="0 0 42 42" fill="none" xmlns="http://www.w3.org/2000/svg">
<path d="M21.0255 28.4998C21.4877 28.4932 21.9283 28.3066 22.2504 27.9811C22.5726 27.6555 22.75 27.2177 22.7437 26.7638L22.7437 10.3467L24.9982 12.561C25.1589 12.7254 25.3513 12.8566 25.5643 12.947C25.7772 13.0374 26.0064 13.0852 26.2384 13.0875C26.4704 13.0898 26.7005 13.0467 26.9153 12.9605C27.1301 12.8744 27.3252 12.7471 27.4892 12.5859C27.6533 12.4248 27.7829 12.2332 27.8706 12.0222C27.9583 11.8113 28.0023 11.5852 27.9999 11.3574C27.9976 11.1295 27.9489 10.9044 27.8569 10.6953C27.7648 10.4861 27.6312 10.2971 27.4639 10.1393L22.2328 5.00142C21.9058 4.68036 21.4624 4.5 21 4.5C20.5376 4.5 20.0942 4.68036 19.7672 5.00142L14.5361 10.1393C14.3688 10.2971 14.2352 10.4861 14.1431 10.6953C14.0511 10.9044 14.0025 11.1295 14.0001 11.3574C13.9977 11.5852 14.0417 11.8113 14.1294 12.0222C14.2171 12.2332 14.3467 12.4248 14.5108 12.5859C14.6748 12.7471 14.8699 12.8744 15.0847 12.9605C15.2995 13.0467 15.5296 13.0898 15.7616 13.0875C15.9936 13.0852 16.2228 13.0374 16.4357 12.947C16.6487 12.8566 16.8411 12.7254 17.0018 12.561L19.2563 10.3467L19.2563 26.7638C19.2531 26.9928 19.2967 27.2201 19.3845 27.4322C19.4723 27.6444 19.6026 27.8371 19.7675 27.9989C19.9325 28.1608 20.1288 28.2885 20.3449 28.3745C20.5609 28.4606 20.7924 28.5032 21.0255 28.4998Z" fill="currentColor"/>
<path d="M7.64239 28.5009C7.20065 28.5073 6.77955 28.6851 6.47162 28.9953C6.16369 29.3055 5.99411 29.7228 6.00016 30.1554V32.6036C6.00016 35.2885 8.25844 37.5 11.0001 37.5H30.9999C33.7416 37.5 35.9998 35.2885 35.9998 32.6036V30.1554C36.003 29.9391 35.9622 29.7244 35.8798 29.5237C35.7974 29.323 35.6752 29.1403 35.5201 28.9863C35.365 28.8323 35.1803 28.7099 34.9765 28.6265C34.7727 28.543 34.5541 28.5 34.3332 28.5C34.1123 28.5 33.8936 28.543 33.6899 28.6265C33.4861 28.7099 33.3013 28.8323 33.1463 28.9863C32.9912 29.1403 32.8689 29.323 32.7866 29.5237C32.7042 29.7244 32.6634 29.9391 32.6665 30.1554V32.6036C32.6665 33.5241 31.9399 34.2357 30.9999 34.2357H11.0001C10.0601 34.2357 9.33345 33.5241 9.33345 32.6036V30.1554C9.3365 29.9372 9.29483 29.7205 9.21091 29.5184C9.12698 29.3162 9.00251 29.1325 8.84484 28.9783C8.68718 28.824 8.49953 28.7023 8.293 28.6203C8.08646 28.5383 7.86523 28.4977 7.64239 28.5009Z" fill="currentColor"/>
</svg>
