<svg width="32" height="32" viewBox="0 0 32 32" fill="currentColor" xmlns="http://www.w3.org/2000/svg">
<path d="M15.9995 0C9.43191 0 3.77843 3.952 1.30055 9.6H3.97878C5.50001 6.7611 8.00964 4.52759 11.0409 3.34063C9.99132 4.96851 9.15908 7.11328 8.63044 9.6H11.0831C12.1096 5.168 14.1311 2.4 15.9995 2.4C17.8679 2.4 19.8894 5.168 20.9159 9.6H23.3685C22.8399 7.11328 22.0077 4.96851 20.9581 3.34063C23.9894 4.52759 26.499 6.7611 28.0202 9.6H30.6984C28.2206 3.952 22.5671 0 15.9995 0ZM8.49262 11.2219C8.25987 11.2338 8.03857 11.3263 7.86678 11.4835C7.69499 11.6406 7.58344 11.8525 7.55132 12.0828L6.89194 16.2094L5.69222 13.4438C5.61436 13.2651 5.48587 13.113 5.32254 13.0061C5.15921 12.8993 4.96816 12.8424 4.77285 12.8424C4.57754 12.8424 4.38649 12.8993 4.22316 13.0061C4.05983 13.113 3.93134 13.2651 3.85348 13.4438L2.65376 16.2094L1.99438 12.0828C1.96044 11.8493 1.84483 11.6353 1.66799 11.4786C1.49115 11.3219 1.26447 11.2326 1.02802 11.2266C0.879801 11.2228 0.732584 11.2519 0.596983 11.3117C0.461382 11.3715 0.340774 11.4606 0.243848 11.5726C0.146923 11.6845 0.0760944 11.8165 0.0364667 11.959C-0.00316107 12.1016 -0.0106012 12.2511 0.0146822 12.3969L1.21754 19.9172C1.25205 20.1306 1.35498 20.3272 1.5109 20.4774C1.66682 20.6276 1.86733 20.7233 2.08238 20.7502C2.29743 20.7772 2.51543 20.7338 2.70372 20.6267C2.892 20.5197 3.04043 20.3546 3.12676 20.1562L4.77285 16.3578L6.41895 20.1562C6.50527 20.3546 6.6537 20.5197 6.84198 20.6267C7.03027 20.7338 7.24828 20.7772 7.46332 20.7502C7.67837 20.7233 7.87888 20.6276 8.0348 20.4774C8.19072 20.3272 8.29365 20.1306 8.32816 19.9172L9.53102 12.3969C9.55762 12.2486 9.55032 12.0963 9.50965 11.9513C9.46899 11.8062 9.39602 11.6722 9.29619 11.5593C9.19635 11.4463 9.07223 11.3573 8.93309 11.2989C8.79395 11.2404 8.64338 11.2141 8.49262 11.2219ZM19.7193 11.2219C19.4865 11.2338 19.2652 11.3263 19.0934 11.4835C18.9216 11.6406 18.8101 11.8525 18.778 12.0828L18.1186 16.2094L16.9189 13.4438C16.841 13.2651 16.7125 13.113 16.5492 13.0061C16.3859 12.8993 16.1948 12.8424 15.9995 12.8424C15.8042 12.8424 15.6131 12.8993 15.4498 13.0061C15.2865 13.113 15.158 13.2651 15.0801 13.4438L13.8804 16.2094L13.221 12.0828C13.1871 11.8493 13.0715 11.6353 12.8946 11.4786C12.7178 11.3219 12.4911 11.2326 12.2547 11.2266C12.1064 11.2228 11.9592 11.2519 11.8236 11.3117C11.688 11.3715 11.5674 11.4606 11.4705 11.5726C11.3736 11.6845 11.3027 11.8165 11.2631 11.959C11.2235 12.1016 11.216 12.2511 11.2413 12.3969L12.4442 19.9172C12.4787 20.1306 12.5816 20.3272 12.7375 20.4774C12.8935 20.6276 13.094 20.7233 13.309 20.7502C13.5241 20.7772 13.7421 20.7338 13.9304 20.6267C14.1187 20.5197 14.2671 20.3546 14.3534 20.1562L15.9995 16.3578L17.6456 20.1562C17.7319 20.3546 17.8803 20.5197 18.0686 20.6267C18.2569 20.7338 18.4749 20.7772 18.69 20.7502C18.905 20.7233 19.1055 20.6276 19.2614 20.4774C19.4174 20.3272 19.5203 20.1306 19.5548 19.9172L20.7577 12.3969C20.7843 12.2486 20.777 12.0963 20.7363 11.9513C20.6956 11.8062 20.6227 11.6722 20.5228 11.5593C20.423 11.4463 20.2989 11.3573 20.1597 11.2989C20.0206 11.2404 19.87 11.2141 19.7193 11.2219ZM30.9459 11.2219C30.7132 11.2338 30.4919 11.3263 30.3201 11.4835C30.1483 11.6406 30.0367 11.8525 30.0046 12.0828L29.3452 16.2094L28.1455 13.4438C28.0677 13.2651 27.9392 13.113 27.7758 13.0061C27.6125 12.8993 27.4215 12.8424 27.2261 12.8424C27.0308 12.8424 26.8398 12.8993 26.6765 13.0061C26.5131 13.113 26.3846 13.2651 26.3068 13.4438L25.107 16.2094L24.4477 12.0828C24.4137 11.8493 24.2981 11.6353 24.1213 11.4786C23.9444 11.3219 23.7178 11.2326 23.4813 11.2266C23.3331 11.2228 23.1859 11.2519 23.0503 11.3117C22.9147 11.3715 22.7941 11.4606 22.6971 11.5726C22.6002 11.6845 22.5294 11.8165 22.4898 11.959C22.4501 12.1016 22.4427 12.2511 22.468 12.3969L23.6708 19.9172C23.7053 20.1306 23.8083 20.3272 23.9642 20.4774C24.1201 20.6276 24.3206 20.7233 24.5357 20.7502C24.7507 20.7772 24.9687 20.7338 25.157 20.6267C25.3453 20.5197 25.4937 20.3546 25.58 20.1562L27.2261 16.3578L28.8722 20.1562C28.9586 20.3546 29.107 20.5197 29.2953 20.6267C29.4836 20.7338 29.7016 20.7772 29.9166 20.7502C30.1317 20.7233 30.3322 20.6276 30.4881 20.4774C30.644 20.3272 30.7469 20.1306 30.7815 19.9172L31.9843 12.3969C32.0109 12.2486 32.0036 12.0963 31.9629 11.9513C31.9223 11.8062 31.8493 11.6722 31.7495 11.5593C31.6496 11.4463 31.5255 11.3573 31.3864 11.2989C31.2472 11.2404 31.0967 11.2141 30.9459 11.2219ZM1.30055 22.4C3.77843 28.048 9.43191 32 15.9995 32C22.5671 32 28.2206 28.048 30.6984 22.4H28.0202C26.499 25.2389 23.9894 27.4724 20.9581 28.6594C22.0077 27.0315 22.8399 24.8867 23.3685 22.4H20.9159C19.8894 26.832 17.8679 29.6 15.9995 29.6C14.1311 29.6 12.1096 26.832 11.0831 22.4H8.63044C9.15908 24.8867 9.99132 27.0315 11.0409 28.6594C8.00964 27.4724 5.50001 25.2389 3.97878 22.4H1.30055Z" fill="currenColor"/>
</svg>
