<svg width="67" height="67" viewBox="0 0 67 67" fill="none" xmlns="http://www.w3.org/2000/svg">
<path d="M15.6314 6.7251H51.3686C56.7868 6.7251 61.1675 11.0732 61.1675 16.4511V50.5491C61.1675 55.927 56.7868 60.2751 51.3686 60.2751H15.6314C10.2132 60.2751 5.83252 55.927 5.83252 50.5491V16.4511C5.83252 11.0732 10.2132 6.7251 15.6314 6.7251Z" fill="#330000"/>
<path d="M32.647 38.8552H24.07L22.3178 44.2331C22.2716 44.4391 22.0872 44.5764 21.8797 44.5535H17.5451C17.2915 44.5535 17.2223 44.4162 17.2915 44.1416L24.7156 22.9275C24.7848 22.6987 24.8539 22.447 24.9462 22.1723C25.0384 21.6918 25.0845 21.1883 25.0845 20.6848C25.0615 20.5704 25.1537 20.456 25.269 20.4331C25.292 20.4331 25.3151 20.4331 25.3381 20.4331H31.2405C31.425 20.4331 31.5172 20.5018 31.5403 20.6162L39.9558 44.1873C40.025 44.4391 39.9558 44.5535 39.7252 44.5535H34.9065C34.7451 44.5764 34.5837 44.462 34.5376 44.3018L32.647 38.8552ZM25.4073 34.2096H31.2636C31.1252 33.7291 30.9408 33.157 30.7333 32.562C30.5258 31.9441 30.3183 31.2804 30.1108 30.5939C29.8802 29.8845 29.6727 29.1979 29.4421 28.4885C29.2116 27.7791 29.0041 27.1154 28.8196 26.4518C28.6352 25.811 28.4738 25.216 28.3124 24.6668H28.2663C28.0588 25.6508 27.8051 26.6348 27.4824 27.6189C27.1365 28.7173 26.7907 29.8616 26.4218 31.0058C26.099 32.1729 25.7531 33.2485 25.4073 34.2096Z" fill="#FF9A00"/>
<path d="M44.982 24.3463C44.2212 24.3692 43.4834 24.0717 42.93 23.5454C42.3997 22.9733 42.1231 22.2181 42.1461 21.44C42.1231 20.6619 42.4228 19.9296 42.9761 19.4033C43.5295 18.8769 44.2673 18.6023 45.0281 18.6023C45.9273 18.6023 46.619 18.8769 47.1263 19.4033C47.6335 19.9525 47.9102 20.6848 47.8871 21.44C47.9102 22.2181 47.6335 22.9733 47.0801 23.5454C46.5499 24.0946 45.7659 24.3921 44.982 24.3463ZM42.3997 44.2102V26.589C42.3997 26.3602 42.492 26.2686 42.6995 26.2686H47.2646C47.4721 26.2686 47.5643 26.3831 47.5643 26.589V44.2102C47.5643 44.4619 47.4721 44.5763 47.2646 44.5763H42.7456C42.515 44.5763 42.3997 44.439 42.3997 44.2102Z" fill="#FF9A00"/>
</svg>
