<svg width="63" height="63" viewBox="0 0 63 63" fill="none" xmlns="http://www.w3.org/2000/svg">
<path d="M31.4999 35.2161C39.8991 35.2161 46.708 29.0185 46.708 21.3734C46.708 13.7283 39.8991 7.53076 31.4999 7.53076C23.1007 7.53076 16.2919 13.7283 16.2919 21.3734C16.2919 29.0185 23.1007 35.2161 31.4999 35.2161Z" fill="#23679A"/>
<path d="M31.4999 36.4026C22.4503 36.4026 15.0886 29.6609 15.0886 21.3734C15.0886 13.086 22.4503 6.34424 31.4999 6.34424C40.5496 6.34424 47.9113 13.086 47.9113 21.3734C47.9113 29.6609 40.5496 36.4026 31.4999 36.4026ZM31.4999 8.71727C23.7773 8.71727 17.4952 14.3961 17.4952 21.3734C17.4952 28.3508 23.7773 34.0296 31.4999 34.0296C39.2226 34.0296 45.5047 28.3524 45.5047 21.3734C45.5047 14.3944 39.2226 8.71727 31.4999 8.71727Z" fill="white"/>
<path d="M43.0313 17.9128H19.9685C17.938 17.9128 16.2919 19.536 16.2919 21.5383V44.2798C16.2919 46.2821 17.938 47.9053 19.9685 47.9053H43.0313C45.0619 47.9053 46.708 46.2821 46.708 44.2798V21.5383C46.708 19.536 45.0619 17.9128 43.0313 17.9128Z" fill="#23679A"/>
<path d="M43.0313 49.0918H19.9686C18.6747 49.0905 17.4343 48.5831 16.5194 47.681C15.6045 46.7788 15.09 45.5557 15.0886 44.2798V21.5383C15.09 20.2625 15.6045 19.0393 16.5194 18.1372C17.4343 17.235 18.6747 16.7276 19.9686 16.7263H43.0313C44.3252 16.7276 45.5656 17.235 46.4805 18.1372C47.3954 19.0393 47.9099 20.2625 47.9113 21.5383V44.2798C47.9099 45.5557 47.3954 46.7788 46.4805 47.681C45.5656 48.5831 44.3252 49.0905 43.0313 49.0918ZM19.9686 19.0993C19.3129 19.1002 18.6842 19.3575 18.2206 19.8147C17.7569 20.2719 17.4961 20.8917 17.4952 21.5383V44.2798C17.4961 44.9264 17.7569 45.5463 18.2206 46.0035C18.6842 46.4607 19.3129 46.7179 19.9686 46.7188H43.0313C43.687 46.7179 44.3156 46.4607 44.7793 46.0035C45.243 45.5463 45.5038 44.9264 45.5047 44.2798V21.5383C45.5038 20.8917 45.243 20.2719 44.7793 19.8147C44.3156 19.3575 43.687 19.1002 43.0313 19.0993H19.9686Z" fill="white"/>
<path d="M21.5396 3.85918C21.2876 3.99705 21.1014 4.22788 21.0218 4.501C20.9422 4.77412 20.9758 5.06721 21.1151 5.31596L27.0262 15.838C27.0954 15.9611 27.1885 16.0695 27.3002 16.1571C27.412 16.2446 27.5401 16.3096 27.6773 16.3483C27.8145 16.387 27.9581 16.3987 28.0998 16.3827C28.2416 16.3667 28.3788 16.3233 28.5035 16.255C28.6283 16.1869 28.7382 16.0952 28.827 15.9852C28.9157 15.8752 28.9816 15.749 29.0209 15.6138C29.0602 15.4787 29.072 15.3372 29.0558 15.1976C29.0396 15.0579 28.9956 14.9227 28.9264 14.7998L23.0119 4.286C22.9437 4.16259 22.8515 4.05365 22.7406 3.96541C22.6297 3.87716 22.5022 3.81133 22.3655 3.77169C22.2287 3.73205 22.0854 3.71938 21.9437 3.73439C21.802 3.7494 21.6647 3.79181 21.5396 3.85918Z" fill="#23679A"/>
<path d="M27.9804 16.9752C27.6787 16.976 27.3822 16.897 27.122 16.7462C26.8618 16.5955 26.6475 16.3786 26.5014 16.1182L20.5853 5.60438C20.3688 5.21815 20.3165 4.76298 20.4399 4.33878C20.5634 3.91458 20.8525 3.55601 21.2438 3.34177C21.4379 3.23495 21.6515 3.16696 21.8724 3.14171C22.0932 3.11645 22.3169 3.13442 22.5307 3.19459C22.7445 3.25475 22.9441 3.35593 23.1182 3.49232C23.2922 3.62871 23.4373 3.79763 23.545 3.98941L29.4594 14.5115C29.6029 14.7645 29.6768 15.05 29.6736 15.3398C29.6705 15.6297 29.5906 15.9136 29.4417 16.1635C29.2929 16.4134 29.0803 16.6206 28.8251 16.7644C28.5699 16.9083 28.281 16.9837 27.9871 16.9834L27.9804 16.9752ZM21.827 4.37832C21.7704 4.40907 21.7206 4.45059 21.6804 4.50049C21.6402 4.55039 21.6104 4.60766 21.5928 4.66898C21.5753 4.73031 21.5702 4.79446 21.578 4.85772C21.5858 4.92098 21.6062 4.98209 21.6382 5.03749L27.5559 15.5497C27.6182 15.6607 27.7227 15.7428 27.8463 15.7779C27.9699 15.8129 28.1026 15.7981 28.2152 15.7367C28.3278 15.6753 28.411 15.5723 28.4466 15.4504C28.4822 15.3285 28.4672 15.1976 28.4049 15.0866L22.4855 4.56454C22.4231 4.4538 22.3188 4.37198 22.1953 4.33707C22.0719 4.30215 21.9394 4.31699 21.827 4.37832Z" fill="white"/>
<path d="M51.3875 21.3735C50.3237 21.3735 49.3035 21.7902 48.5514 22.5319C47.7992 23.2737 47.3766 24.2796 47.3766 25.3286V39.3361C47.3766 40.385 47.7992 41.391 48.5514 42.1327C49.3035 42.8744 50.3237 43.2911 51.3875 43.2911C52.4513 43.2911 53.4715 42.8744 54.2236 42.1327C54.9758 41.391 55.3984 40.385 55.3984 39.3361V25.3286C55.3984 24.2796 54.9758 23.2737 54.2236 22.5319C53.4715 21.7902 52.4513 21.3735 51.3875 21.3735Z" fill="#23679A"/>
<path d="M51.3875 43.8844C50.1645 43.883 48.9921 43.4034 48.1274 42.5507C47.2626 41.6981 46.7762 40.5419 46.7749 39.3361V25.3286C46.7749 24.1223 47.2609 22.9654 48.1259 22.1124C48.9909 21.2595 50.1641 20.7803 51.3875 20.7803C52.6108 20.7803 53.784 21.2595 54.649 22.1124C55.514 22.9654 56 24.1223 56 25.3286V39.3361C55.9987 40.5419 55.5123 41.6981 54.6476 42.5507C53.7828 43.4034 52.6104 43.883 51.3875 43.8844ZM51.3875 21.9668C50.4835 21.9677 49.6169 22.3221 48.9777 22.9524C48.3385 23.5827 47.9791 24.4372 47.9782 25.3286V39.3361C47.9782 40.2277 48.3374 41.0827 48.9767 41.7132C49.6161 42.3437 50.4833 42.6978 51.3875 42.6978C52.2917 42.6978 53.1588 42.3437 53.7982 41.7132C54.4375 41.0827 54.7967 40.2277 54.7967 39.3361V25.3286C54.7958 24.4372 54.4364 23.5827 53.7972 22.9524C53.158 22.3221 52.2914 21.9677 51.3875 21.9668Z" fill="white"/>
<path d="M37.1822 37.3584C36.1184 37.3584 35.0982 37.7751 34.346 38.5168C33.5938 39.2585 33.1713 40.2645 33.1713 41.3134V55.3209C33.1713 56.3699 33.5938 57.3758 34.346 58.1176C35.0982 58.8593 36.1184 59.276 37.1822 59.276C38.2459 59.276 39.2661 58.8593 40.0183 58.1176C40.7705 57.3758 41.1931 56.3699 41.1931 55.3209V41.3134C41.1931 40.2645 40.7705 39.2585 40.0183 38.5168C39.2661 37.7751 38.2459 37.3584 37.1822 37.3584Z" fill="#23679A"/>
<path d="M37.1821 59.8692C35.9592 59.8679 34.7868 59.3883 33.922 58.5356C33.0573 57.6829 32.5709 56.5268 32.5696 55.3209V41.3134C32.5696 40.1072 33.0555 38.9503 33.9206 38.0973C34.7856 37.2443 35.9588 36.7651 37.1821 36.7651C38.4055 36.7651 39.5787 37.2443 40.4437 38.0973C41.3087 38.9503 41.7947 40.1072 41.7947 41.3134V55.3209C41.7934 56.5268 41.307 57.6829 40.4422 58.5356C39.5775 59.3883 38.405 59.8679 37.1821 59.8692ZM37.1821 37.9517C36.2782 37.9525 35.4116 38.307 34.7724 38.9373C34.1332 39.5675 33.7737 40.4221 33.7729 41.3134V55.3209C33.7729 56.2125 34.132 57.0676 34.7714 57.6981C35.4108 58.3285 36.2779 58.6827 37.1821 58.6827C38.0863 58.6827 38.9535 58.3285 39.5929 57.6981C40.2322 57.0676 40.5914 56.2125 40.5914 55.3209V41.3134C40.5905 40.4221 40.231 39.5675 39.5919 38.9373C38.9527 38.307 38.0861 37.9525 37.1821 37.9517Z" fill="white"/>
<path d="M41.4637 3.85935C41.7157 3.99723 41.902 4.22805 41.9815 4.50117C42.0611 4.77429 42.0276 5.06738 41.8882 5.31613L35.9738 15.8382C35.9046 15.9613 35.8115 16.0697 35.6998 16.1572C35.588 16.2448 35.4599 16.3098 35.3227 16.3485C35.1855 16.3872 35.0419 16.3989 34.9002 16.3829C34.7584 16.3669 34.6212 16.3235 34.4965 16.2551C34.3717 16.187 34.2618 16.0954 34.173 15.9854C34.0843 15.8754 34.0184 15.7492 33.9791 15.614C33.9398 15.4789 33.928 15.3374 33.9442 15.1977C33.9604 15.0581 34.0044 14.9229 34.0736 14.8L39.9881 4.28617C40.0563 4.16233 40.1486 4.05301 40.2598 3.96448C40.371 3.87594 40.4988 3.80995 40.6359 3.77029C40.7731 3.73063 40.9168 3.71808 41.0588 3.73336C41.2009 3.74865 41.3385 3.79146 41.4637 3.85935Z" fill="#23679A"/>
<path d="M35.0213 16.9835C34.7276 16.9831 34.4391 16.9072 34.1843 16.7633C33.9294 16.6193 33.7171 16.4123 33.5682 16.1627C33.4194 15.9131 33.3391 15.6294 33.3355 15.3399C33.3318 15.0503 33.4048 14.7648 33.5473 14.5116L39.4617 3.98948C39.6789 3.60334 40.0427 3.31808 40.4732 3.19647C40.9037 3.07486 41.3655 3.12685 41.7571 3.34101C42.1487 3.55517 42.438 3.91396 42.5613 4.33843C42.6847 4.76291 42.6319 5.21831 42.4147 5.60446L36.4986 16.1249C36.3518 16.3844 36.1376 16.6007 35.878 16.7516C35.6183 16.9025 35.3227 16.9825 35.0213 16.9835ZM40.9391 4.31907C40.8525 4.31889 40.7675 4.34158 40.6929 4.38475C40.6182 4.42793 40.5566 4.49004 40.5146 4.56461L34.5985 15.0867C34.5362 15.1977 34.5212 15.3286 34.5568 15.4505C34.5923 15.5724 34.6756 15.6754 34.7882 15.7368C34.9007 15.7982 35.0334 15.813 35.1571 15.7779C35.2807 15.7428 35.3852 15.6608 35.4474 15.5498L41.3619 5.02933C41.4237 4.91817 41.4385 4.78745 41.4032 4.66557C41.3678 4.54368 41.2851 4.44048 41.173 4.37839C41.1011 4.34011 41.0208 4.31974 40.9391 4.31907Z" fill="white"/>
<path d="M11.6126 21.3735C12.6764 21.3735 13.6966 21.7902 14.4487 22.5319C15.2009 23.2737 15.6235 24.2796 15.6235 25.3286V39.3361C15.6235 40.385 15.2009 41.391 14.4487 42.1327C13.6966 42.8744 12.6764 43.2911 11.6126 43.2911C10.5488 43.2911 9.52865 42.8744 8.77645 42.1327C8.02426 41.391 7.60168 40.385 7.60168 39.3361V25.3286C7.60168 24.2796 8.02426 23.2737 8.77645 22.5319C9.52865 21.7902 10.5488 21.3735 11.6126 21.3735Z" fill="#23679A"/>
<path d="M11.6126 43.8844C10.3896 43.883 9.21718 43.4034 8.35245 42.5507C7.48772 41.6981 7.00133 40.5419 7 39.3361V25.3286C7 24.1223 7.48596 22.9654 8.35099 22.1124C9.21601 21.2595 10.3892 20.7803 11.6126 20.7803C12.8359 20.7803 14.0091 21.2595 14.8741 22.1124C15.7391 22.9654 16.2251 24.1223 16.2251 25.3286V39.3361C16.2238 40.5419 15.7374 41.6981 14.8727 42.5507C14.0079 43.4034 12.8355 43.883 11.6126 43.8844ZM11.6126 21.9668C10.7086 21.9677 9.84198 22.3221 9.20281 22.9524C8.56363 23.5827 8.20416 24.4372 8.20327 25.3286V39.3361C8.20327 40.2277 8.56247 41.0827 9.20183 41.7132C9.84119 42.3437 10.7084 42.6978 11.6126 42.6978C12.5167 42.6978 13.3839 42.3437 14.0233 41.7132C14.6626 41.0827 15.0218 40.2277 15.0218 39.3361V25.3286C15.0209 24.4372 14.6615 23.5827 14.0223 22.9524C13.3831 22.3221 12.5165 21.9677 11.6126 21.9668Z" fill="white"/>
<path d="M25.8179 37.3586C26.8817 37.3586 27.9019 37.7753 28.6541 38.517C29.4063 39.2588 29.8288 40.2647 29.8288 41.3137V55.3212C29.8288 56.3701 29.4063 57.3761 28.6541 58.1178C27.9019 58.8595 26.8817 59.2762 25.8179 59.2762C24.7542 59.2762 23.734 58.8595 22.9818 58.1178C22.2296 57.3761 21.807 56.3701 21.807 55.3212V41.3137C21.807 40.2647 22.2296 39.2588 22.9818 38.517C23.734 37.7753 24.7542 37.3586 25.8179 37.3586Z" fill="#23679A"/>
<path d="M25.8179 59.8695C24.595 59.8682 23.4225 59.3885 22.5578 58.5359C21.693 57.6832 21.2066 56.527 21.2053 55.3212V41.3137C21.2053 40.1074 21.6913 38.9505 22.5563 38.0976C23.4213 37.2446 24.5945 36.7654 25.8179 36.7654C27.0412 36.7654 28.2144 37.2446 29.0794 38.0976C29.9445 38.9505 30.4304 40.1074 30.4304 41.3137V55.3212C30.4291 56.527 29.9427 57.6832 29.078 58.5359C28.2132 59.3885 27.0408 59.8682 25.8179 59.8695ZM25.8179 37.9519C24.9139 37.9528 24.0473 38.3072 23.4081 38.9375C22.769 39.5678 22.4095 40.4224 22.4086 41.3137V55.3212C22.4086 56.2128 22.7678 57.0678 23.4071 57.6983C24.0465 58.3288 24.9137 58.6829 25.8179 58.6829C26.7221 58.6829 27.5892 58.3288 28.2286 57.6983C28.868 57.0678 29.2271 56.2128 29.2271 55.3212V41.3137C29.2263 40.4224 28.8668 39.5678 28.2276 38.9375C27.5884 38.3072 26.7218 37.9528 25.8179 37.9519Z" fill="white"/>
<path d="M31.5 35.2161C39.8992 35.2161 46.7081 29.0185 46.7081 21.3734C46.7081 13.7283 39.8992 7.53076 31.5 7.53076C23.1009 7.53076 16.292 13.7283 16.292 21.3734C16.292 29.0185 23.1009 35.2161 31.5 35.2161Z" fill="#23679A"/>
<path d="M43.0314 17.9128H19.9687C17.9381 17.9128 16.292 19.536 16.292 21.5383V44.2798C16.292 46.2821 17.9381 47.9053 19.9687 47.9053H43.0314C45.062 47.9053 46.7081 46.2821 46.7081 44.2798V21.5383C46.7081 19.536 45.062 17.9128 43.0314 17.9128Z" fill="#23679A"/>
<path d="M47.3765 21.3569H15.6234V22.5434H47.3765V21.3569Z" fill="white"/>
<path d="M24.4809 15.2761C24.8501 15.2761 25.1493 14.981 25.1493 14.6169C25.1493 14.2529 24.8501 13.9578 24.4809 13.9578C24.1117 13.9578 23.8124 14.2529 23.8124 14.6169C23.8124 14.981 24.1117 15.2761 24.4809 15.2761Z" fill="white"/>
<path d="M24.4809 15.8694C24.2297 15.8694 23.9842 15.7959 23.7753 15.6583C23.5664 15.5207 23.4036 15.3251 23.3075 15.0962C23.2114 14.8674 23.1862 14.6155 23.2352 14.3726C23.2842 14.1296 23.4052 13.9065 23.5828 13.7313C23.7605 13.5562 23.9868 13.4369 24.2332 13.3886C24.4795 13.3402 24.7349 13.365 24.967 13.4598C25.1991 13.5546 25.3974 13.7152 25.537 13.9211C25.6766 14.1271 25.7511 14.3692 25.7511 14.6169C25.7506 14.949 25.6167 15.2673 25.3786 15.5021C25.1405 15.7368 24.8177 15.8689 24.4809 15.8694ZM24.4809 14.551C24.4677 14.551 24.4548 14.5549 24.4438 14.5621C24.4328 14.5694 24.4242 14.5797 24.4192 14.5917C24.4141 14.6038 24.4128 14.617 24.4154 14.6298C24.418 14.6426 24.4243 14.6543 24.4337 14.6635C24.443 14.6728 24.4549 14.679 24.4679 14.6816C24.4809 14.6841 24.4943 14.6828 24.5065 14.6778C24.5187 14.6728 24.5292 14.6644 24.5365 14.6536C24.5439 14.6427 24.5478 14.63 24.5478 14.6169C24.5478 14.5995 24.5407 14.5827 24.5282 14.5703C24.5157 14.558 24.4987 14.551 24.4809 14.551Z" fill="white"/>
<path d="M38.5191 15.2761C38.8883 15.2761 39.1876 14.981 39.1876 14.6169C39.1876 14.2529 38.8883 13.9578 38.5191 13.9578C38.1499 13.9578 37.8506 14.2529 37.8506 14.6169C37.8506 14.981 38.1499 15.2761 38.5191 15.2761Z" fill="white"/>
<path d="M38.5191 15.8694C38.2679 15.8694 38.0224 15.7959 37.8135 15.6583C37.6046 15.5207 37.4418 15.3251 37.3457 15.0962C37.2496 14.8674 37.2244 14.6155 37.2734 14.3726C37.3224 14.1296 37.4434 13.9065 37.621 13.7313C37.7987 13.5562 38.025 13.4369 38.2714 13.3886C38.5177 13.3402 38.7731 13.365 39.0052 13.4598C39.2373 13.5546 39.4357 13.7152 39.5752 13.9211C39.7148 14.1271 39.7893 14.3692 39.7893 14.6169C39.7888 14.949 39.6549 15.2673 39.4168 15.5021C39.1787 15.7368 38.8559 15.8689 38.5191 15.8694ZM38.5191 14.551C38.5059 14.551 38.493 14.5549 38.482 14.5621C38.471 14.5694 38.4624 14.5797 38.4574 14.5917C38.4523 14.6038 38.451 14.617 38.4536 14.6298C38.4562 14.6426 38.4625 14.6543 38.4719 14.6635C38.4812 14.6728 38.4931 14.679 38.5061 14.6816C38.5191 14.6841 38.5325 14.6828 38.5447 14.6778C38.5569 14.6728 38.5674 14.6644 38.5747 14.6536C38.5821 14.6427 38.586 14.63 38.586 14.6169C38.586 14.5995 38.579 14.5827 38.5664 14.5703C38.5539 14.558 38.5369 14.551 38.5191 14.551Z" fill="white"/>
</svg>
