<svg width="63" height="63" viewBox="0 0 63 63" fill="none" xmlns="http://www.w3.org/2000/svg">
<path d="M50.6906 23.3876C50.3985 23.6172 45.2414 26.5602 45.2414 33.1041C45.2414 40.6733 51.8036 43.351 52 43.4173C51.9698 43.5806 50.9575 47.0846 48.5401 50.655C46.3846 53.7969 44.1334 56.9337 40.7088 56.9337C37.2841 56.9337 36.4028 54.919 32.4493 54.919C28.5966 54.919 27.2268 57 24.0942 57C20.9617 57 18.7759 54.0927 16.2629 50.5224C13.3519 46.3297 11 39.8164 11 33.6346C11 23.7192 17.3658 18.4605 23.6309 18.4605C26.9598 18.4605 29.7348 20.6742 31.8248 20.6742C33.8142 20.6742 36.9165 18.3279 40.7037 18.3279C42.139 18.3279 47.2962 18.4605 50.6906 23.3876ZM38.9058 14.1302C40.4721 12.2481 41.58 9.63666 41.58 7.0252C41.58 6.66307 41.5498 6.29583 41.4843 6C38.936 6.09691 35.9042 7.71887 34.076 9.86619C32.6407 11.5188 31.3011 14.1302 31.3011 16.7774C31.3011 17.1752 31.3665 17.5731 31.3968 17.7006C31.5579 17.7312 31.8198 17.7669 32.0817 17.7669C34.3681 17.7669 37.2438 16.2163 38.9058 14.1302Z" fill="#23679A"/>
</svg>
