<svg width="67" height="67" viewBox="0 0 67 67" fill="none" xmlns="http://www.w3.org/2000/svg">
<path d="M31.2914 5.44775H40.4777V47.5518C35.7723 48.4419 32.3082 48.7921 28.5603 48.7921C17.3405 48.7804 11.5 43.7678 11.5 34.141C11.5 24.8655 17.6952 18.8457 27.2953 18.8457C28.785 18.8457 29.92 18.9628 31.2914 19.3142V5.44775ZM31.6133 26.9017C30.5375 26.5504 29.6508 26.4333 28.5158 26.4333C23.8694 26.4333 21.1856 29.2675 21.1856 34.2343C21.1856 39.07 23.7512 41.7402 28.4567 41.7402C29.4734 41.7402 30.301 41.6828 31.6133 41.5072V26.9017Z" fill="#2BA977"/>
<path d="M55.5 19.9761V41.0568C55.5 48.3168 54.9562 51.808 53.3601 54.8178C51.8704 57.7118 49.9079 59.5364 45.8526 61.552L37.3284 57.5349C41.3836 55.6505 43.3462 53.9851 44.5994 51.4438C45.9117 48.845 46.3255 45.8351 46.3255 37.9181V19.9761H55.5Z" fill="#2BA977"/>
<path d="M45.3997 5.44775H54.586V14.7818H45.3997V5.44775Z" fill="#2BA977"/>
</svg>
