<svg width="67" height="67" viewBox="0 0 67 67" fill="none" xmlns="http://www.w3.org/2000/svg">
<path d="M23.75 62.75C29.132 62.75 33.5 58.382 33.5 53V43.25H23.75C18.368 43.25 14 47.618 14 53C14 58.382 18.368 62.75 23.75 62.75Z" fill="#0ACF83"/>
<path d="M14 33.5C14 28.118 18.368 23.75 23.75 23.75H33.5V43.25H23.75C18.368 43.25 14 38.882 14 33.5Z" fill="#A259FF"/>
<path d="M14 14C14 8.618 18.368 4.25 23.75 4.25H33.5V23.75H23.75C18.368 23.75 14 19.382 14 14Z" fill="#F24E1E"/>
<path d="M33.5 4.25H43.25C48.632 4.25 53 8.618 53 14C53 19.382 48.632 23.75 43.25 23.75H33.5V4.25Z" fill="#FF7262"/>
<path d="M53 33.5C53 38.882 48.632 43.25 43.25 43.25C37.868 43.25 33.5 38.882 33.5 33.5C33.5 28.118 37.868 23.75 43.25 23.75C48.632 23.75 53 28.118 53 33.5Z" fill="#1ABCFE"/>
</svg>
