<svg width="63" height="63" viewBox="0 0 63 63" fill="none" xmlns="http://www.w3.org/2000/svg">
<path d="M36.53 5.0181L52.9553 5L25.4021 32.5524L18.2161 39.6839L10.0447 31.5026L36.53 5.0181ZM36.3771 29.6101C36.5903 29.3286 36.9805 29.4674 37.2801 29.4312H52.9412L38.6618 43.69L30.4481 35.5269L36.3771 29.6101Z" fill="#23679A"/>
<path d="M22.2666 43.708L30.4541 35.5308L38.6678 43.6939L38.702 43.7301L30.4561 51.8993L22.2666 43.708Z" fill="#488EC2"/>
<path d="M30.4562 51.8994L38.702 43.7302L52.9472 57.9891C47.5814 58.0012 42.2176 57.9891 36.8578 57.9891C36.5521 58.0575 36.363 57.788 36.1679 57.605L30.4562 51.8994Z" fill="#23679A"/>
</svg>
