<svg width="67" height="67" viewBox="0 0 67 67" fill="none" xmlns="http://www.w3.org/2000/svg">
<path d="M5.5 5.5H61.5V61.5H5.5V5.5Z" fill="#F7DF1E"/>
<path d="M20.2245 52.2977L24.51 49.7042C25.3367 51.1701 26.0888 52.4104 27.8928 52.4104C29.6221 52.4104 30.7123 51.7339 30.7123 49.1028V31.2095H35.9749V49.1772C35.9749 54.6279 32.7798 57.1089 28.1184 57.1089C23.9085 57.1089 21.4648 54.9285 20.2244 52.2973" fill="black"/>
<path d="M38.8334 51.7337L43.1184 49.2527C44.2464 51.0948 45.7124 52.448 48.306 52.448C50.4865 52.448 51.877 51.3578 51.877 49.8541C51.877 48.0498 50.4487 47.4107 48.0428 46.3585L46.7275 45.7942C42.9306 44.1781 40.412 42.1483 40.412 37.8628C40.412 33.9158 43.4192 30.9084 48.1182 30.9084C51.4638 30.9084 53.8696 32.0739 55.5985 35.1188L51.5011 37.75C50.5989 36.1337 49.6218 35.4948 48.1183 35.4948C46.577 35.4948 45.5996 36.4721 45.5996 37.75C45.5996 39.3288 46.577 39.968 48.8322 40.9454L50.1478 41.5092C54.6211 43.4265 57.1398 45.381 57.1398 49.7789C57.1398 54.5156 53.4184 57.1092 48.4189 57.1092C43.5321 57.1092 40.3744 54.7787 38.8334 51.7337Z" fill="black"/>
</svg>
