<svg width="63" height="63" viewBox="0 0 63 63" fill="none" xmlns="http://www.w3.org/2000/svg">
<path d="M31.5 60C30.7081 60 29.9689 59.7905 29.2826 59.424L22.2609 55.2871C21.205 54.7111 21.7329 54.5016 22.0497 54.3969C23.4752 53.9256 23.7391 53.8209 25.2174 52.983C25.3758 52.8783 25.587 52.9306 25.7453 53.0354L31.1304 56.2297C31.3416 56.3344 31.6056 56.3344 31.764 56.2297L52.8292 44.1332C53.0404 44.0285 53.146 43.819 53.146 43.5572V19.4166C53.146 19.1548 53.0404 18.9453 52.8292 18.8406L31.764 6.79651C31.5528 6.69178 31.2888 6.69178 31.1304 6.79651L10.0652 18.8406C9.85404 18.9453 9.74845 19.2072 9.74845 19.4166V43.5572C9.74845 43.7667 9.85404 44.0285 10.0652 44.1332L15.8199 47.4322C18.9348 49.0032 20.8882 47.1704 20.8882 45.3376V21.5113C20.8882 21.1971 21.1522 20.8829 21.5217 20.8829H24.2143C24.5311 20.8829 24.8478 21.1447 24.8478 21.5113V45.3376C24.8478 49.4745 22.5776 51.8833 18.618 51.8833C17.4037 51.8833 16.4534 51.8833 13.7609 50.5742L8.21739 47.4322C6.84472 46.6468 6 45.1805 6 43.6096V19.469C6 17.898 6.84472 16.4318 8.21739 15.6463L29.2826 3.54984C30.6025 2.81672 32.3975 2.81672 33.7174 3.54984L54.7826 15.6463C56.1553 16.4318 57 17.898 57 19.469V43.6096C57 45.1805 56.1553 46.6468 54.7826 47.4322L33.7174 59.5287C33.0311 59.8429 32.2391 60 31.5 60ZM37.9938 43.4001C28.7547 43.4001 26.854 39.2108 26.854 35.65C26.854 35.3358 27.118 35.0216 27.4876 35.0216H30.2329C30.5497 35.0216 30.8137 35.2311 30.8137 35.5452C31.236 38.3206 32.4503 39.6821 38.0466 39.6821C42.4814 39.6821 44.382 38.6872 44.382 36.3307C44.382 34.9692 43.854 33.9743 36.9379 33.2935C31.1832 32.7175 27.5932 31.4607 27.5932 26.9049C27.5932 22.6633 31.1832 20.1497 37.2019 20.1497C43.9596 20.1497 47.2857 22.4538 47.7081 27.4809C47.7081 27.638 47.6553 27.7951 47.5497 27.9522C47.4441 28.057 47.2857 28.1617 47.1273 28.1617H44.382C44.118 28.1617 43.854 27.9522 43.8012 27.6904C43.1677 24.8103 41.5311 23.8677 37.2019 23.8677C32.3447 23.8677 31.764 25.5434 31.764 26.8002C31.764 28.3188 32.4503 28.7901 38.9969 29.6279C45.4907 30.4658 48.5528 31.6702 48.5528 36.1736C48.5 40.7818 44.6988 43.4001 37.9938 43.4001Z" fill="#539E43"/>
</svg>
