<svg width="67" height="67" viewBox="0 0 67 67" fill="none" xmlns="http://www.w3.org/2000/svg">
<path d="M10.529 27C11.4736 27 12.3656 27.1746 13.2046 27.5237C14.0434 27.8729 14.781 28.343 15.4174 28.9338C16.0537 29.5248 16.56 30.2143 16.936 31.002C17.312 31.7903 17.5 32.6316 17.5 33.5268C17.5 34.4224 17.3165 35.2593 16.9505 36.0382C16.5839 36.8171 16.0872 37.502 15.4607 38.0929C14.8338 38.6838 14.0962 39.1496 13.2479 39.4896C12.3991 39.83 11.4834 40 10.5 40C9.53549 40 8.62932 39.8389 7.781 39.5166C6.9322 39.1942 6.19013 38.7423 5.55374 38.1602C4.91745 37.5784 4.41577 36.8936 4.04963 36.1053C3.68312 35.3176 3.5 34.458 3.5 33.5268C3.5 32.6316 3.67808 31.7943 4.03508 31.0154C4.3917 30.2365 4.88835 29.5562 5.52483 28.9742C6.16112 28.3924 6.90823 27.9266 7.76654 27.5775C8.62438 27.2283 9.54547 27.036 10.529 27ZM10.5 29.659C9.94053 29.659 9.40545 29.7577 8.89472 29.9545C8.38361 30.1517 7.94023 30.4246 7.56411 30.7738C7.18808 31.1228 6.88892 31.5304 6.66746 31.9958C6.44554 32.4617 6.33481 32.972 6.33481 33.5268C6.33481 34.0463 6.44563 34.5433 6.66746 35.0175C6.88892 35.4921 7.18808 35.9085 7.56411 36.2665C7.94014 36.6249 8.38352 36.9069 8.89472 37.1126C9.40545 37.3186 9.94053 37.4214 10.5 37.4214C11.0591 37.4214 11.5943 37.3185 12.1055 37.1126C12.6162 36.9069 13.06 36.6249 13.4361 36.2665C13.8121 35.9085 14.1108 35.4922 14.3327 35.0175C14.5542 34.5433 14.6653 34.0463 14.6653 33.5268C14.6074 32.4705 14.2025 31.5795 13.4505 30.8542C12.6984 30.129 11.7244 29.7307 10.5291 29.6589H10.5V29.659Z" fill="#A24689"/>
<path d="M31.1434 24.0058C31.4704 23.9862 31.7783 24.1202 32.0671 24.4077C32.3558 24.6957 32.5 25.0083 32.5 25.3456V35.7953C32.5 36.768 32.3075 37.6909 31.9227 38.564C31.5375 39.4377 31.018 40.2015 30.364 40.8564C29.7095 41.5114 28.9639 42.0325 28.1269 42.4194C27.2898 42.8064 26.4093 43 25.4856 43C24.5425 43 23.6477 42.8116 22.801 42.4343C21.9539 42.0574 21.2134 41.5411 20.5783 40.8862C19.9433 40.2313 19.4381 39.4674 19.0628 38.5938C18.6876 37.7206 18.5 36.7879 18.5 35.7953C18.5 34.7235 18.6682 33.7811 19.0051 32.967C19.3416 32.1534 19.8468 31.3891 20.5206 30.6746V30.7044C21.2324 30.01 22.0167 29.4837 22.8731 29.1265C23.7292 28.7692 24.6096 28.5906 25.5144 28.5906C26.0529 28.5906 26.6929 28.6799 27.434 28.8586C28.1746 29.0372 28.9107 29.3846 29.6423 29.9006V25.4944C29.6423 25.2962 29.6806 25.1074 29.7578 24.9287C29.8344 24.7501 29.9355 24.5863 30.0609 24.4375C30.1858 24.2886 30.335 24.1746 30.5083 24.0951C30.6814 24.0161 30.8548 23.9862 31.0279 24.0058H31.1434ZM29.6423 35.7953C29.6423 35.2595 29.5314 34.7337 29.3103 34.2173C29.0889 33.7015 28.7858 33.24 28.401 32.833C28.0158 32.4264 27.5733 32.1035 27.0731 31.8654C26.5725 31.6273 26.0434 31.5082 25.4855 31.5082C24.9272 31.5082 24.3932 31.6225 23.8834 31.8504C23.3733 32.0789 22.9309 32.3864 22.5555 32.7734C22.1803 33.1603 21.8817 33.6172 21.6607 34.1428C21.4392 34.669 21.3288 35.2198 21.3288 35.7952C21.3288 36.3906 21.4393 36.9465 21.6607 37.4624C21.8817 37.9787 22.1803 38.43 22.5555 38.8169C22.9308 39.2039 23.3732 39.5119 23.8834 39.7398C24.3932 39.9682 24.9272 40.0822 25.4855 40.0822C26.0434 40.0822 26.5725 39.9681 27.0731 39.7398C27.5733 39.5119 28.0158 39.2039 28.401 38.8169C28.7858 38.43 29.0889 37.9787 29.3103 37.4624C29.5313 36.9466 29.6423 36.3907 29.6423 35.7953Z" fill="#8F8F8F"/>
<path d="M41.031 27C42.0431 27 42.9989 27.1746 43.8978 27.5237C44.7966 27.8729 45.5867 28.343 46.2687 28.9338C46.9504 29.5248 47.4928 30.2143 47.8957 31.002C48.2986 31.7903 48.5 32.6316 48.5 33.5268C48.5 34.4224 48.3034 35.2593 47.9112 36.0382C47.5184 36.8171 46.9863 37.502 46.3151 38.0929C45.6434 38.6838 44.8531 39.1496 43.9442 39.4896C43.0348 39.83 42.0537 40 41 40C39.9666 40 38.9957 39.8389 38.0868 39.5166C37.1774 39.1942 36.3823 38.7423 35.7004 38.1602C35.0187 37.5784 34.4812 36.8936 34.0889 36.1053C33.6962 35.3176 33.5 34.458 33.5 33.5268C33.5 32.6316 33.6908 31.7943 34.0733 31.0154C34.4554 30.2365 34.9875 29.5562 35.6695 28.9742C36.3512 28.3924 37.1517 27.9266 38.0713 27.5775C38.9904 27.2283 39.9773 27.036 41.031 27ZM41 29.659C40.4006 29.659 39.8273 29.7577 39.2801 29.9545C38.7324 30.1517 38.2574 30.4246 37.8544 30.7738C37.4515 31.1228 37.131 31.5304 36.8937 31.9958C36.6559 32.4617 36.5373 32.972 36.5373 33.5268C36.5373 34.0463 36.656 34.5433 36.8937 35.0175C37.131 35.4921 37.4515 35.9085 37.8544 36.2665C38.2573 36.6249 38.7323 36.9069 39.2801 37.1126C39.8273 37.3186 40.4006 37.4214 41 37.4214C41.599 37.4214 42.1724 37.3185 42.7201 37.1126C43.2674 36.9069 43.7428 36.6249 44.1458 36.2665C44.5487 35.9085 44.8687 35.4922 45.1065 35.0175C45.3438 34.5433 45.4628 34.0463 45.4628 33.5268C45.4008 32.4705 44.967 31.5795 44.1613 30.8542C43.3554 30.129 42.3119 29.7307 41.0311 29.6589H41V29.659Z" fill="#8F8F8F"/>
<path d="M56.529 27C57.4736 27 58.3656 27.1746 59.2046 27.5237C60.0435 27.8729 60.781 28.343 61.4174 28.9338C62.0537 29.5248 62.56 30.2143 62.936 31.002C63.312 31.7903 63.5 32.6316 63.5 33.5268C63.5 34.4224 63.3165 35.2593 62.9505 36.0382C62.5839 36.8171 62.0872 37.502 61.4607 38.0929C60.8338 38.6838 60.0962 39.1496 59.2479 39.4896C58.3991 39.83 57.4835 40 56.5 40C55.5355 40 54.6293 39.8389 53.781 39.5166C52.9322 39.1942 52.1901 38.7423 51.5537 38.1602C50.9175 37.5784 50.4158 36.8936 50.0496 36.1053C49.6831 35.3176 49.5 34.458 49.5 33.5268C49.5 32.6316 49.6781 31.7943 50.0351 31.0154C50.3917 30.2365 50.8883 29.5562 51.5248 28.9742C52.1611 28.3924 52.9082 27.9266 53.7665 27.5775C54.6244 27.2283 55.5455 27.036 56.529 27ZM56.5 29.659C55.9404 29.659 55.4054 29.7577 54.8946 29.9545C54.3835 30.1517 53.9401 30.4246 53.564 30.7738C53.188 31.1228 52.8888 31.5304 52.6674 31.9958C52.4454 32.4617 52.3347 32.972 52.3347 33.5268C52.3347 34.0463 52.4455 34.5433 52.6674 35.0175C52.8888 35.4921 53.188 35.9085 53.564 36.2665C53.94 36.6249 54.3834 36.9069 54.8946 37.1126C55.4054 37.3186 55.9404 37.4214 56.5 37.4214C57.059 37.4214 57.5942 37.3185 58.1054 37.1126C58.6161 36.9069 59.0599 36.6249 59.436 36.2665C59.812 35.9085 60.1107 35.4922 60.3326 35.0175C60.5541 34.5433 60.6652 34.0463 60.6652 33.5268C60.6074 32.4705 60.2024 31.5795 59.4503 30.8542C58.6983 30.129 57.7243 29.7307 56.529 29.6589H56.5V29.659Z" fill="#8F8F8F"/>
</svg>
