<svg width="67" height="67" viewBox="0 0 67 67" fill="none" xmlns="http://www.w3.org/2000/svg">
<path d="M33.5 50.4058C51.4493 50.4058 66 42.8368 66 33.4999C66 24.163 51.4493 16.594 33.5 16.594C15.5507 16.594 1 24.163 1 33.4999C1 42.8368 15.5507 50.4058 33.5 50.4058Z" fill="#8993BE"/>
<path fill-rule="evenodd" clip-rule="evenodd" d="M10.1267 43.5099L13.6885 25.4917H21.9245C25.486 25.7142 27.2669 27.4936 27.2669 30.6081C27.2669 35.9468 23.0376 39.0611 19.2531 38.8385H15.2467L14.3563 43.5099H10.1267ZM16.1369 35.502L17.25 28.8285H20.1438C21.702 28.8285 22.8149 29.4958 22.8149 30.8304C22.5925 34.6122 20.8116 35.2795 18.8083 35.502H16.1369ZM26.4394 38.8385L30.001 20.8206H34.2305L33.3401 25.4917H37.3467C40.9085 25.7142 42.2441 27.4936 41.799 29.7183L40.2408 38.8385H35.7888L37.347 30.6081C37.5694 29.4958 37.5694 28.8285 36.0114 28.8285H32.6723L30.669 38.8385H26.4394ZM39.9556 43.5099L43.5172 25.4917H51.7534C55.3152 25.7142 57.0961 27.4936 57.0961 30.6081C57.0961 35.9468 52.8665 39.0611 49.0823 38.8385H45.0754L44.1849 43.5099H39.9556ZM45.9656 35.502L47.0787 28.8285H49.9727C51.5309 28.8285 52.6438 29.4958 52.6438 30.8304C52.4214 34.6122 50.6405 35.2795 48.6372 35.502H45.9658H45.9656Z" fill="#232531"/>
</svg>
