<svg width="67" height="67" viewBox="0 0 67 67" fill="none" xmlns="http://www.w3.org/2000/svg">
<path d="M15.7396 6.72363H51.2604C56.6458 6.72363 61 11.0719 61 16.4501V50.5498C61 55.928 56.6458 60.2763 51.2604 60.2763H15.7396C10.3542 60.2763 6 55.928 6 50.5498V16.4501C6 11.0719 10.3542 6.72363 15.7396 6.72363Z" fill="#001E36"/>
<path d="M18.375 44.2791V20.7296C18.375 20.5694 18.4438 20.4779 18.6042 20.4779C18.9938 20.4779 19.3604 20.4779 19.8875 20.455C20.4375 20.4321 21.0104 20.4321 21.6292 20.4092C22.2479 20.3863 22.9125 20.3863 23.6229 20.3635C24.3333 20.3406 25.0208 20.3406 25.7083 20.3406C27.5875 20.3406 29.1458 20.5694 30.4292 21.05C31.575 21.4391 32.6292 22.0799 33.5 22.9267C34.2333 23.659 34.8063 24.5516 35.1729 25.5356C35.5167 26.4968 35.7 27.4809 35.7 28.5108C35.7 30.479 35.2417 32.1038 34.325 33.3854C33.4083 34.6671 32.125 35.6283 30.6354 36.1775C29.0771 36.7497 27.3583 36.9556 25.4792 36.9556C24.9292 36.9556 24.5625 36.9556 24.3333 36.9327C24.1042 36.9099 23.7833 36.9099 23.3479 36.9099V44.2562C23.3708 44.4164 23.2562 44.5537 23.0958 44.5766C23.0729 44.5766 23.05 44.5766 23.0042 44.5766H18.65C18.4667 44.5766 18.375 44.485 18.375 44.2791ZM23.3708 24.8948V32.5844C23.6917 32.6073 23.9896 32.6302 24.2646 32.6302H25.4792C26.3729 32.6302 27.2667 32.4929 28.1146 32.2183C28.8479 32.0123 29.4896 31.5775 29.9938 31.0053C30.475 30.4332 30.7042 29.6551 30.7042 28.6481C30.7271 27.9386 30.5438 27.2292 30.1771 26.6113C29.7875 26.0162 29.2375 25.5585 28.5729 25.3068C27.725 24.9635 26.8083 24.8262 25.8688 24.8491C25.2729 24.8491 24.7458 24.8491 24.3104 24.872C23.8521 24.8491 23.5313 24.872 23.3708 24.8948Z" fill="#31A8FF"/>
<path d="M50 31.1885C49.3125 30.8224 48.5792 30.5706 47.8 30.4104C46.9521 30.2273 46.1042 30.1129 45.2333 30.1129C44.775 30.09 44.2938 30.1587 43.8583 30.2731C43.5604 30.3418 43.3083 30.502 43.1479 30.7308C43.0333 30.9139 42.9646 31.1428 42.9646 31.3487C42.9646 31.5547 43.0563 31.7607 43.1938 31.9438C43.4 32.1955 43.675 32.4015 43.9729 32.5617C44.5 32.8363 45.05 33.088 45.6 33.3169C46.8375 33.7288 48.0292 34.301 49.1292 34.9876C49.8854 35.4682 50.5042 36.109 50.9396 36.8871C51.3063 37.6194 51.4896 38.4204 51.4667 39.2443C51.4896 40.3199 51.1688 41.3956 50.5729 42.2881C49.9313 43.2035 49.0375 43.913 48.0063 44.3249C46.8833 44.8055 45.5083 45.0573 43.8583 45.0573C42.8042 45.0573 41.7729 44.9657 40.7417 44.7598C39.9396 44.6225 39.1375 44.3707 38.4042 44.0274C38.2438 43.9359 38.1292 43.7757 38.1521 43.5926V39.6105C38.1521 39.5418 38.175 39.4503 38.2438 39.4045C38.3125 39.3587 38.3813 39.3816 38.45 39.4274C39.3438 39.9538 40.2833 40.3199 41.2917 40.5488C42.1625 40.7777 43.0792 40.8921 43.9958 40.8921C44.8667 40.8921 45.4854 40.7777 45.8979 40.5717C46.2646 40.4115 46.5167 40.0224 46.5167 39.6105C46.5167 39.2901 46.3333 38.9926 45.9667 38.6951C45.6 38.3975 44.8438 38.0543 43.7208 37.6194C42.5521 37.2075 41.475 36.6582 40.4667 35.9717C39.7563 35.4682 39.1604 34.8045 38.725 34.0264C38.3583 33.294 38.175 32.493 38.1979 31.692C38.1979 30.7079 38.4729 29.7696 38.9771 28.9228C39.55 28.0074 40.3979 27.2751 41.3833 26.8174C42.4604 26.2681 43.8125 26.0164 45.4396 26.0164C46.3792 26.0164 47.3417 26.085 48.2813 26.2223C48.9688 26.3139 49.6333 26.497 50.2521 26.7487C50.3438 26.7716 50.4354 26.8631 50.4813 26.9547C50.5042 27.0462 50.5271 27.1378 50.5271 27.2293V30.9597C50.5271 31.0512 50.4813 31.1428 50.4125 31.1885C50.2063 31.2343 50.0917 31.2343 50 31.1885Z" fill="#31A8FF"/>
</svg>
