<svg width="67" height="67" viewBox="0 0 67 67" fill="none" xmlns="http://www.w3.org/2000/svg">
<path d="M33.3022 6.10205C19.3734 6.10205 20.2432 12.1661 20.2432 12.1661L20.2587 18.4484H33.5506V20.3347H14.9792C14.9792 20.3347 6.06616 19.3199 6.06616 33.4293C6.06616 47.5387 13.8457 47.0384 13.8457 47.0384H18.4885V40.491C18.4885 40.491 18.2383 32.681 26.1438 32.681H39.327C39.327 32.681 46.7339 32.8012 46.7339 25.4946V13.4132C46.7339 13.4132 47.8584 6.10205 33.3022 6.10205ZM25.973 10.3266C27.2954 10.3266 28.3643 11.3997 28.3643 12.7273C28.3643 14.0549 27.2954 15.128 25.973 15.128C24.6505 15.128 23.5817 14.0549 23.5817 12.7273C23.5817 11.3997 24.6505 10.3266 25.973 10.3266Z" fill="url(#paint0_linear_50_30555)"/>
<path d="M33.6978 60.898C47.6266 60.898 46.7568 54.8339 46.7568 54.8339L46.7413 48.5516H33.4493V46.6654H52.0208C52.0208 46.6654 60.9338 47.6801 60.9338 33.5707C60.9338 19.4613 53.1543 19.9617 53.1543 19.9617H48.5115V26.509C48.5115 26.509 48.7617 34.319 40.8562 34.319H27.6729C27.6729 34.319 20.2661 34.1988 20.2661 41.5055V53.5868C20.2661 53.5868 19.1416 60.898 33.6978 60.898ZM41.027 56.6734C39.7045 56.6734 38.6357 55.6004 38.6357 54.2727C38.6357 52.9451 39.7045 51.872 41.027 51.872C42.3494 51.872 43.4183 52.9451 43.4183 54.2727C43.4183 55.6004 42.3494 56.6734 41.027 56.6734Z" fill="url(#paint1_linear_50_30555)"/>
<defs>
<linearGradient id="paint0_linear_50_30555" x1="533.354" y1="498.977" x2="3262.93" y2="3190.76" gradientUnits="userSpaceOnUse">
<stop stop-color="#387EB8"/>
<stop offset="1" stop-color="#366994"/>
</linearGradient>
<linearGradient id="paint1_linear_50_30555" x1="798.504" y1="862.44" x2="3729.25" y2="3622.14" gradientUnits="userSpaceOnUse">
<stop stop-color="#FFE052"/>
<stop offset="1" stop-color="#FFC331"/>
</linearGradient>
</defs>
</svg>
