<svg width="53" height="47" viewBox="0 0 53 47" fill="none" xmlns="http://www.w3.org/2000/svg">
<path d="M26.4999 28.212C29.1089 28.212 31.2238 26.1125 31.2238 23.5225C31.2238 20.9326 29.1089 18.833 26.4999 18.833C23.891 18.833 21.776 20.9326 21.776 23.5225C21.776 26.1125 23.891 28.212 26.4999 28.212Z" fill="#61DAFB"/>
<path d="M26.5 34.3656C11.637 34.3656 0 29.5389 0 23.4997C0 17.4605 11.637 12.771 26.5 12.771C41.363 12.771 53 17.4834 53 23.4997C53 29.516 41.4783 34.3656 26.5 34.3656ZM26.5 15.1501C12.2361 15.0586 2.30435 19.4964 2.30435 23.4997C2.30435 27.5029 12.2361 32.0781 26.5 32.0781C40.7639 32.0781 50.6957 27.5029 50.6957 23.4997C50.6957 19.4964 40.7639 15.0586 26.5 15.0586V15.1501Z" fill="#61DAFB"/>
<path d="M37.0771 46.9701C33.975 46.6545 31.0658 45.3272 28.8045 43.1956C24.1002 39.1426 20.1462 34.3039 17.1214 28.8983C13.9049 23.5892 11.6582 17.7579 10.4849 11.673C9.58622 6.15991 10.5771 2.33967 13.2501 0.738376C15.9232 -0.862922 19.8175 0.280862 24.1958 3.82659C28.9053 7.88352 32.8598 12.7307 35.8788 18.1468C43.2988 30.9114 45.0962 43.31 39.7501 46.2839C38.938 46.7483 38.0142 46.9854 37.0771 46.9701ZM15.9462 2.33967C15.4081 2.32496 14.8756 2.4512 14.4023 2.70568C12.628 3.73509 12.098 6.86906 12.7432 11.3069C13.8957 17.115 16.0554 22.6802 19.1262 27.7546C22.0015 32.9391 25.7683 37.5842 30.2562 41.48C33.7819 44.3166 36.8236 45.3688 38.598 44.3623C42.1006 42.3492 41.0175 31.5748 33.9893 19.3363C31.1028 14.1529 27.3287 9.50829 22.8362 5.6109C20.9518 3.81597 18.5366 2.66926 15.9462 2.33967Z" fill="#61DAFB"/>
<path d="M15.9229 46.9702C14.9857 46.9855 14.062 46.7483 13.2498 46.2839C7.9959 43.2872 9.70112 30.9115 17.1211 18.1468C20.1401 12.7307 24.0946 7.88358 28.8042 3.82665C33.1824 0.280922 37.0768 -0.794236 39.7498 0.738435C45.0037 3.73515 43.2985 16.0651 35.8785 28.8984C32.8537 34.304 28.8998 39.1426 24.1955 43.1957C21.9341 45.3272 19.0249 46.6546 15.9229 46.9702ZM37.0537 2.33973C34.4988 2.68167 32.1188 3.81894 30.2559 5.58808C25.7645 9.48052 21.9972 14.1263 19.1259 19.3135C11.9824 31.5291 10.8994 42.3036 14.402 44.3166C16.1763 45.3231 19.2181 44.3166 22.7437 41.4343C27.2328 37.5337 31.0064 32.8897 33.8968 27.7089C41.0172 15.4933 42.1002 4.6273 38.5976 2.70574C38.1243 2.45126 37.5918 2.32502 37.0537 2.33973Z" fill="#61DAFB"/>
</svg>
