<svg width="67" height="67" viewBox="0 0 67 67" fill="none" xmlns="http://www.w3.org/2000/svg">
<path d="M15.7644 6.7251H51.2356C56.6135 6.7251 60.9615 11.0732 60.9615 16.4511V50.5491C60.9615 55.927 56.6135 60.2751 51.2356 60.2751H15.7644C10.3865 60.2751 6.03845 55.927 6.03845 50.5491V16.4511C6.03845 11.0732 10.3865 6.7251 15.7644 6.7251Z" fill="#470137"/>
<path d="M34.9188 20.7993L28.0534 32.1272L35.3765 44.1416C35.4223 44.2332 35.4452 44.3247 35.4223 44.4162C35.3994 44.5078 35.3078 44.4391 35.1705 44.462H29.93C29.5638 44.462 29.3121 44.4391 29.1519 44.2103C28.6713 43.2491 28.1678 42.3109 27.6873 41.3497C27.2067 40.4114 26.6803 39.4503 26.1311 38.4662C25.5819 37.4822 25.0327 36.4982 24.4834 35.4912H24.4377C23.9571 36.4753 23.4307 37.4593 22.9044 38.4434C22.378 39.4274 21.8517 40.4114 21.3482 41.3726C20.8219 42.3337 20.2955 43.3178 19.7692 44.2561C19.6777 44.4849 19.4946 44.5078 19.2428 44.5078H14.2082C14.1167 44.5078 14.048 44.5536 14.048 44.4391C14.0252 44.3476 14.048 44.2561 14.0938 44.1874L21.2109 32.5162L14.2769 20.7764C14.2082 20.6849 14.1853 20.5934 14.2311 20.5476C14.2769 20.4789 14.3684 20.4561 14.46 20.4561H19.6548C19.7692 20.4561 19.8836 20.4789 19.9752 20.5018C20.0667 20.5476 20.1353 20.6162 20.204 20.7078C20.6388 21.6918 21.1423 22.6759 21.6686 23.6599C22.2178 24.6439 22.7442 25.6051 23.3163 26.5662C23.8655 27.5274 24.369 28.4886 24.8496 29.4726H24.8953C25.3759 28.4657 25.8794 27.4816 26.3828 26.5205C26.8863 25.5593 27.4127 24.5982 27.939 23.637C28.4653 22.6759 28.9688 21.6918 29.4723 20.7536C29.4952 20.662 29.5409 20.5705 29.6096 20.5247C29.7011 20.4789 29.7927 20.4561 29.9071 20.4789H34.7357C34.8502 20.4561 34.9646 20.5247 34.9875 20.6391C35.0103 20.662 34.9646 20.7536 34.9188 20.7993Z" fill="#FF61F6"/>
<path d="M45.4915 44.9425C43.798 44.9654 42.1046 44.6221 40.5713 43.9127C39.1296 43.249 37.9396 42.1506 37.1157 40.8004C36.269 39.4044 35.8571 37.6652 35.8571 35.5827C35.8342 33.8892 36.269 32.2186 37.1157 30.754C37.9853 29.2665 39.244 28.0308 40.7544 27.2069C42.3563 26.3144 44.2786 25.8796 46.5442 25.8796C46.6586 25.8796 46.8188 25.8796 47.0248 25.9025C47.2307 25.9254 47.4596 25.9254 47.7342 25.9483V18.7167C47.7342 18.5565 47.8028 18.465 47.963 18.465H52.6086C52.723 18.4421 52.8146 18.5336 52.8374 18.6252V40.4571C52.8374 40.869 52.8603 41.3267 52.8832 41.8302C52.929 42.3107 52.9519 42.7684 52.9748 43.1575C52.9748 43.3177 52.9061 43.455 52.7459 43.5236C51.5559 44.0271 50.2973 44.3933 49.0157 44.6221C47.8486 44.8281 46.6815 44.9425 45.4915 44.9425ZM47.7342 40.3656V30.2963C47.5282 30.2506 47.3223 30.2048 47.1163 30.1819C46.8646 30.159 46.6128 30.1361 46.3611 30.1361C45.4686 30.1361 44.5761 30.3192 43.7751 30.7311C42.9971 31.1202 42.3334 31.6923 41.8299 32.4246C41.3265 33.1569 41.0748 34.1409 41.0748 35.3309C41.0519 36.1319 41.1892 36.9329 41.4638 37.6881C41.6926 38.3059 42.0359 38.8552 42.4936 39.3129C42.9284 39.7248 43.4548 40.0452 44.0498 40.2283C44.6676 40.4342 45.3084 40.5258 45.9492 40.5258C46.2924 40.5258 46.6128 40.5029 46.9103 40.48C47.2078 40.5029 47.4596 40.4571 47.7342 40.3656Z" fill="#FF61F6"/>
</svg>
